%TF.GenerationSoftware,KiCad,Pcbnew,7.0.10+1*%
%TF.CreationDate,2024-02-10T16:35:24+08:00*%
%TF.ProjectId,ohmify-overdrive,6f686d69-6679-42d6-9f76-657264726976,v1.1*%
%TF.SameCoordinates,Original*%
%TF.FileFunction,Legend,Top*%
%TF.FilePolarity,Positive*%
%FSLAX46Y46*%
G04 Gerber Fmt 4.6, Leading zero omitted, Abs format (unit mm)*
G04 Created by KiCad (PCBNEW 7.0.10+1) date 2024-02-10 16:35:24*
%MOMM*%
%LPD*%
G01*
G04 APERTURE LIST*
%ADD10C,0.150000*%
%ADD11C,0.200000*%
%ADD12C,0.100000*%
%ADD13C,0.120000*%
G04 APERTURE END LIST*
D10*
X169164000Y-101600000D02*
X169164000Y-108331000D01*
X136779000Y-101600000D02*
X136779000Y-108331000D01*
X178689000Y-101600000D02*
X136779000Y-101600000D01*
X160020000Y-101600000D02*
X160020000Y-108331000D01*
X146304000Y-101600000D02*
X146304000Y-108331000D01*
X136779000Y-108331000D02*
X178689000Y-108331000D01*
X178689000Y-108331000D02*
X178689000Y-101600000D01*
D11*
G36*
X163681447Y-119860043D02*
G01*
X163697424Y-119860327D01*
X163713212Y-119860802D01*
X163728809Y-119861466D01*
X163744217Y-119862320D01*
X163759435Y-119863363D01*
X163774463Y-119864597D01*
X163789302Y-119866020D01*
X163818409Y-119869435D01*
X163846758Y-119873610D01*
X163874348Y-119878543D01*
X163901179Y-119884236D01*
X163927251Y-119890687D01*
X163952564Y-119897897D01*
X163977117Y-119905867D01*
X164000912Y-119914595D01*
X164023948Y-119924083D01*
X164046225Y-119934329D01*
X164067743Y-119945334D01*
X164088502Y-119957099D01*
X164108584Y-119969551D01*
X164127981Y-119982620D01*
X164146691Y-119996305D01*
X164164715Y-120010606D01*
X164182053Y-120025524D01*
X164198704Y-120041059D01*
X164214669Y-120057210D01*
X164229948Y-120073978D01*
X164244540Y-120091362D01*
X164258446Y-120109363D01*
X164271666Y-120127980D01*
X164284200Y-120147213D01*
X164296047Y-120167063D01*
X164307208Y-120187530D01*
X164317682Y-120208613D01*
X164327471Y-120230313D01*
X164336666Y-120252558D01*
X164345268Y-120275277D01*
X164353277Y-120298469D01*
X164360692Y-120322136D01*
X164367514Y-120346277D01*
X164373743Y-120370892D01*
X164379379Y-120395981D01*
X164384421Y-120421544D01*
X164388871Y-120447581D01*
X164392727Y-120474092D01*
X164395990Y-120501077D01*
X164398659Y-120528536D01*
X164400735Y-120556469D01*
X164402218Y-120584876D01*
X164403108Y-120613757D01*
X164403405Y-120643112D01*
X164403238Y-120665130D01*
X164402736Y-120686889D01*
X164401900Y-120708389D01*
X164400730Y-120729631D01*
X164399225Y-120750614D01*
X164397385Y-120771338D01*
X164395212Y-120791803D01*
X164392703Y-120812009D01*
X164389861Y-120831957D01*
X164386684Y-120851645D01*
X164383172Y-120871075D01*
X164379327Y-120890246D01*
X164375146Y-120909159D01*
X164370632Y-120927812D01*
X164365782Y-120946207D01*
X164360599Y-120964343D01*
X164355110Y-120982195D01*
X164349252Y-120999739D01*
X164343024Y-121016975D01*
X164336428Y-121033902D01*
X164329461Y-121050522D01*
X164322126Y-121066833D01*
X164314421Y-121082836D01*
X164306347Y-121098530D01*
X164297904Y-121113916D01*
X164289091Y-121128995D01*
X164279909Y-121143764D01*
X164270357Y-121158226D01*
X164260437Y-121172379D01*
X164250147Y-121186224D01*
X164239487Y-121199761D01*
X164228459Y-121212990D01*
X164217094Y-121225827D01*
X164205334Y-121238284D01*
X164193179Y-121250359D01*
X164180628Y-121262054D01*
X164167681Y-121273367D01*
X164154339Y-121284300D01*
X164140602Y-121294852D01*
X164126469Y-121305023D01*
X164111940Y-121314812D01*
X164097016Y-121324221D01*
X164081697Y-121333249D01*
X164065982Y-121341896D01*
X164049872Y-121350162D01*
X164033366Y-121358047D01*
X164016464Y-121365552D01*
X163999167Y-121372675D01*
X163981497Y-121379391D01*
X163963381Y-121385674D01*
X163944821Y-121391523D01*
X163925816Y-121396939D01*
X163906365Y-121401922D01*
X163886470Y-121406472D01*
X163866130Y-121410588D01*
X163845345Y-121414271D01*
X163824115Y-121417521D01*
X163802440Y-121420337D01*
X163780320Y-121422720D01*
X163757756Y-121424670D01*
X163734746Y-121426187D01*
X163711291Y-121427270D01*
X163687392Y-121427920D01*
X163663047Y-121428136D01*
X163639244Y-121427920D01*
X163615850Y-121427270D01*
X163592867Y-121426187D01*
X163570293Y-121424670D01*
X163548130Y-121422720D01*
X163526376Y-121420337D01*
X163505033Y-121417521D01*
X163484100Y-121414271D01*
X163463576Y-121410588D01*
X163443463Y-121406472D01*
X163423760Y-121401922D01*
X163404466Y-121396939D01*
X163385583Y-121391523D01*
X163367110Y-121385674D01*
X163349047Y-121379391D01*
X163331394Y-121372675D01*
X163314136Y-121365552D01*
X163297259Y-121358047D01*
X163280764Y-121350162D01*
X163264649Y-121341896D01*
X163248915Y-121333249D01*
X163233562Y-121324221D01*
X163218590Y-121314812D01*
X163203999Y-121305023D01*
X163189789Y-121294852D01*
X163175960Y-121284300D01*
X163162512Y-121273367D01*
X163149445Y-121262054D01*
X163136759Y-121250359D01*
X163124454Y-121238284D01*
X163112529Y-121225827D01*
X163100986Y-121212990D01*
X163089816Y-121199761D01*
X163079013Y-121186224D01*
X163068576Y-121172379D01*
X163058506Y-121158226D01*
X163048801Y-121143764D01*
X163039464Y-121128995D01*
X163030493Y-121113916D01*
X163021888Y-121098530D01*
X163013649Y-121082836D01*
X163005777Y-121066833D01*
X162998272Y-121050522D01*
X162991133Y-121033902D01*
X162984360Y-121016975D01*
X162977953Y-120999739D01*
X162971914Y-120982195D01*
X162966240Y-120964343D01*
X162960966Y-120946198D01*
X162956033Y-120927777D01*
X162951440Y-120909080D01*
X162947187Y-120890107D01*
X162943274Y-120870857D01*
X162939701Y-120851331D01*
X162936469Y-120831529D01*
X162933577Y-120811451D01*
X162931025Y-120791096D01*
X162928814Y-120770465D01*
X162926942Y-120749558D01*
X162925411Y-120728375D01*
X162924221Y-120706915D01*
X162923370Y-120685179D01*
X162922860Y-120663167D01*
X162922707Y-120643112D01*
X163355961Y-120643112D01*
X163356081Y-120660042D01*
X163356443Y-120676682D01*
X163357047Y-120693031D01*
X163357892Y-120709089D01*
X163358978Y-120724856D01*
X163360305Y-120740332D01*
X163361874Y-120755518D01*
X163363684Y-120770413D01*
X163366852Y-120792210D01*
X163370563Y-120813353D01*
X163374817Y-120833841D01*
X163379615Y-120853675D01*
X163384955Y-120872855D01*
X163386855Y-120879103D01*
X163392975Y-120897265D01*
X163399750Y-120914623D01*
X163407178Y-120931176D01*
X163415261Y-120946924D01*
X163423998Y-120961867D01*
X163433390Y-120976005D01*
X163443435Y-120989339D01*
X163454135Y-121001868D01*
X163465490Y-121013592D01*
X163477498Y-121024511D01*
X163485868Y-121031343D01*
X163499063Y-121040856D01*
X163512965Y-121049433D01*
X163527573Y-121057074D01*
X163542888Y-121063779D01*
X163558910Y-121069549D01*
X163575638Y-121074383D01*
X163593073Y-121078282D01*
X163611215Y-121081245D01*
X163630063Y-121083272D01*
X163649618Y-121084364D01*
X163663047Y-121084572D01*
X163683858Y-121084104D01*
X163703858Y-121082700D01*
X163723047Y-121080361D01*
X163741424Y-121077086D01*
X163758990Y-121072876D01*
X163775744Y-121067730D01*
X163791688Y-121061648D01*
X163806820Y-121054631D01*
X163821140Y-121046678D01*
X163834649Y-121037789D01*
X163843205Y-121031343D01*
X163855507Y-121020961D01*
X163867148Y-121009773D01*
X163878128Y-120997781D01*
X163888448Y-120984984D01*
X163898106Y-120971382D01*
X163907104Y-120956975D01*
X163915441Y-120941764D01*
X163923117Y-120925747D01*
X163930132Y-120908926D01*
X163936487Y-120891301D01*
X163940356Y-120879103D01*
X163945744Y-120860141D01*
X163950602Y-120840525D01*
X163954930Y-120820255D01*
X163958729Y-120799330D01*
X163961997Y-120777751D01*
X163964735Y-120755518D01*
X163966266Y-120740332D01*
X163967562Y-120724856D01*
X163968622Y-120709089D01*
X163969446Y-120693031D01*
X163970035Y-120676682D01*
X163970388Y-120660042D01*
X163970506Y-120643112D01*
X163970238Y-120617584D01*
X163969436Y-120592739D01*
X163968098Y-120568578D01*
X163966225Y-120545100D01*
X163963818Y-120522305D01*
X163960875Y-120500194D01*
X163957397Y-120478766D01*
X163953384Y-120458022D01*
X163948835Y-120437961D01*
X163943752Y-120418584D01*
X163938134Y-120399889D01*
X163931981Y-120381879D01*
X163925292Y-120364551D01*
X163918069Y-120347907D01*
X163910310Y-120331947D01*
X163902016Y-120316669D01*
X163893109Y-120302200D01*
X163883417Y-120288665D01*
X163872939Y-120276063D01*
X163861676Y-120264395D01*
X163849628Y-120253660D01*
X163836795Y-120243858D01*
X163823177Y-120234990D01*
X163808774Y-120227056D01*
X163793585Y-120220055D01*
X163777611Y-120213987D01*
X163760853Y-120208853D01*
X163743308Y-120204652D01*
X163724979Y-120201385D01*
X163705865Y-120199052D01*
X163685965Y-120197651D01*
X163665281Y-120197185D01*
X163644855Y-120197662D01*
X163625176Y-120199095D01*
X163606243Y-120201483D01*
X163588055Y-120204827D01*
X163570614Y-120209126D01*
X163553918Y-120214380D01*
X163537968Y-120220589D01*
X163522765Y-120227754D01*
X163508307Y-120235874D01*
X163494595Y-120244949D01*
X163485868Y-120251530D01*
X163473423Y-120262115D01*
X163461632Y-120273492D01*
X163450496Y-120285661D01*
X163440014Y-120298622D01*
X163430186Y-120312374D01*
X163421013Y-120326919D01*
X163412494Y-120342254D01*
X163404629Y-120358382D01*
X163397419Y-120375301D01*
X163390863Y-120393012D01*
X163386855Y-120405259D01*
X163381334Y-120424174D01*
X163376356Y-120443789D01*
X163371921Y-120464104D01*
X163368029Y-120485119D01*
X163364680Y-120506834D01*
X163362749Y-120521700D01*
X163361060Y-120536877D01*
X163359611Y-120552365D01*
X163358405Y-120568164D01*
X163357439Y-120584275D01*
X163356715Y-120600696D01*
X163356232Y-120617429D01*
X163355991Y-120634473D01*
X163355961Y-120643112D01*
X162922707Y-120643112D01*
X162922690Y-120640878D01*
X162922998Y-120611523D01*
X162923923Y-120582642D01*
X162925464Y-120554235D01*
X162927622Y-120526302D01*
X162930396Y-120498843D01*
X162933787Y-120471858D01*
X162937794Y-120445348D01*
X162942418Y-120419311D01*
X162947658Y-120393748D01*
X162953514Y-120368659D01*
X162959988Y-120344044D01*
X162967077Y-120319903D01*
X162974784Y-120296236D01*
X162983106Y-120273043D01*
X162992046Y-120250324D01*
X163001601Y-120228079D01*
X163011798Y-120206384D01*
X163022661Y-120185314D01*
X163034190Y-120164869D01*
X163046385Y-120145050D01*
X163059246Y-120125855D01*
X163072772Y-120107286D01*
X163086965Y-120089342D01*
X163101823Y-120072024D01*
X163117348Y-120055330D01*
X163133538Y-120039262D01*
X163150394Y-120023819D01*
X163167917Y-120009001D01*
X163186105Y-119994809D01*
X163204959Y-119981241D01*
X163224479Y-119968299D01*
X163244665Y-119955982D01*
X163265588Y-119944353D01*
X163287227Y-119933474D01*
X163309581Y-119923345D01*
X163332650Y-119913967D01*
X163356435Y-119905339D01*
X163380935Y-119897461D01*
X163406150Y-119890334D01*
X163432081Y-119883956D01*
X163458727Y-119878329D01*
X163486089Y-119873453D01*
X163514166Y-119869326D01*
X163542958Y-119865950D01*
X163572465Y-119863324D01*
X163587488Y-119862292D01*
X163602688Y-119861448D01*
X163618068Y-119860792D01*
X163633627Y-119860323D01*
X163649364Y-119860042D01*
X163665281Y-119859948D01*
X163681447Y-119860043D01*
G37*
G36*
X164964350Y-121406920D02*
G01*
X164514328Y-120226963D01*
X164939038Y-120226963D01*
X165139296Y-120924887D01*
X165143246Y-120940273D01*
X165145624Y-120951687D01*
X165148921Y-120967390D01*
X165151852Y-120982889D01*
X165154185Y-120996354D01*
X165156540Y-121011599D01*
X165158024Y-121026627D01*
X165158647Y-121042905D01*
X165158652Y-121044371D01*
X165164980Y-121044371D01*
X165165331Y-121028381D01*
X165166387Y-121012655D01*
X165167957Y-120998587D01*
X165170480Y-120983417D01*
X165173734Y-120967871D01*
X165176519Y-120956898D01*
X165180763Y-120941601D01*
X165184335Y-120926748D01*
X165393526Y-120226963D01*
X165817864Y-120226963D01*
X165367843Y-121406920D01*
X164964350Y-121406920D01*
G37*
G36*
X166510762Y-120205980D02*
G01*
X166531788Y-120206682D01*
X166552439Y-120207853D01*
X166572715Y-120209491D01*
X166592616Y-120211598D01*
X166612142Y-120214173D01*
X166631293Y-120217217D01*
X166650069Y-120220728D01*
X166668469Y-120224708D01*
X166686494Y-120229155D01*
X166704145Y-120234071D01*
X166721420Y-120239456D01*
X166738320Y-120245308D01*
X166754844Y-120251629D01*
X166770994Y-120258417D01*
X166786769Y-120265674D01*
X166802175Y-120273353D01*
X166817128Y-120281500D01*
X166831628Y-120290115D01*
X166845673Y-120299198D01*
X166859266Y-120308749D01*
X166872404Y-120318769D01*
X166885089Y-120329257D01*
X166897320Y-120340213D01*
X166909097Y-120351637D01*
X166920421Y-120363529D01*
X166931291Y-120375890D01*
X166941708Y-120388718D01*
X166951671Y-120402015D01*
X166961180Y-120415780D01*
X166970235Y-120430014D01*
X166978837Y-120444715D01*
X166986996Y-120459892D01*
X166994628Y-120475552D01*
X167001734Y-120491694D01*
X167008313Y-120508319D01*
X167014366Y-120525427D01*
X167019893Y-120543018D01*
X167024893Y-120561091D01*
X167029367Y-120579647D01*
X167033315Y-120598686D01*
X167036736Y-120618207D01*
X167039631Y-120638212D01*
X167041999Y-120658699D01*
X167043842Y-120679668D01*
X167045158Y-120701121D01*
X167045947Y-120723056D01*
X167046210Y-120745474D01*
X167046210Y-120926748D01*
X166318508Y-120926748D01*
X166319812Y-120943705D01*
X166322190Y-120960100D01*
X166325640Y-120975932D01*
X166330164Y-120991201D01*
X166335760Y-121005908D01*
X166342430Y-121020052D01*
X166350172Y-121033633D01*
X166358988Y-121046651D01*
X166368877Y-121059107D01*
X166379838Y-121071000D01*
X166387742Y-121078616D01*
X166400473Y-121089259D01*
X166414237Y-121098856D01*
X166429035Y-121107405D01*
X166444867Y-121114908D01*
X166461733Y-121121364D01*
X166479633Y-121126773D01*
X166498566Y-121131135D01*
X166518533Y-121134450D01*
X166539534Y-121136718D01*
X166561569Y-121137940D01*
X166576833Y-121138172D01*
X166597461Y-121137986D01*
X166617749Y-121137426D01*
X166637696Y-121136494D01*
X166657304Y-121135189D01*
X166676571Y-121133510D01*
X166695498Y-121131459D01*
X166714084Y-121129035D01*
X166732331Y-121126238D01*
X166750237Y-121123068D01*
X166767803Y-121119525D01*
X166779324Y-121116955D01*
X166796615Y-121112685D01*
X166814011Y-121107970D01*
X166831511Y-121102809D01*
X166849117Y-121097204D01*
X166866826Y-121091154D01*
X166884641Y-121084659D01*
X166902560Y-121077719D01*
X166920584Y-121070334D01*
X166938713Y-121062504D01*
X166956946Y-121054229D01*
X166969159Y-121048466D01*
X166969159Y-121340663D01*
X166953033Y-121348899D01*
X166936619Y-121356716D01*
X166919917Y-121364113D01*
X166902926Y-121371093D01*
X166885648Y-121377653D01*
X166868083Y-121383795D01*
X166850229Y-121389518D01*
X166832087Y-121394822D01*
X166813658Y-121399708D01*
X166794940Y-121404174D01*
X166782302Y-121406920D01*
X166762860Y-121410711D01*
X166742503Y-121414130D01*
X166721229Y-121417176D01*
X166699040Y-121419849D01*
X166683738Y-121421423D01*
X166668029Y-121422832D01*
X166651912Y-121424075D01*
X166635389Y-121425153D01*
X166618458Y-121426064D01*
X166601121Y-121426810D01*
X166583376Y-121427390D01*
X166565224Y-121427805D01*
X166546665Y-121428054D01*
X166527699Y-121428136D01*
X166505427Y-121427891D01*
X166483463Y-121427153D01*
X166461807Y-121425925D01*
X166440459Y-121424205D01*
X166419419Y-121421993D01*
X166398688Y-121419290D01*
X166378265Y-121416096D01*
X166358150Y-121412410D01*
X166338344Y-121408232D01*
X166318846Y-121403564D01*
X166299656Y-121398403D01*
X166280774Y-121392752D01*
X166262200Y-121386608D01*
X166243935Y-121379974D01*
X166225978Y-121372848D01*
X166208329Y-121365230D01*
X166191109Y-121357088D01*
X166174346Y-121348387D01*
X166158040Y-121339128D01*
X166142189Y-121329310D01*
X166126796Y-121318935D01*
X166111859Y-121308000D01*
X166097378Y-121296508D01*
X166083354Y-121284457D01*
X166069787Y-121271848D01*
X166056676Y-121258680D01*
X166044022Y-121244955D01*
X166031824Y-121230670D01*
X166020083Y-121215828D01*
X166008799Y-121200427D01*
X165997971Y-121184468D01*
X165987599Y-121167950D01*
X165977818Y-121150861D01*
X165968668Y-121133188D01*
X165960149Y-121114930D01*
X165952261Y-121096087D01*
X165945004Y-121076660D01*
X165938378Y-121056649D01*
X165932383Y-121036053D01*
X165927019Y-121014872D01*
X165922287Y-120993107D01*
X165918185Y-120970758D01*
X165914714Y-120947824D01*
X165911874Y-120924305D01*
X165909666Y-120900202D01*
X165908088Y-120875514D01*
X165907142Y-120850242D01*
X165906826Y-120824386D01*
X165907113Y-120798024D01*
X165907972Y-120772262D01*
X165909404Y-120747099D01*
X165911409Y-120722535D01*
X165913987Y-120698570D01*
X165917138Y-120675204D01*
X165917882Y-120670656D01*
X166327069Y-120670656D01*
X166676962Y-120670656D01*
X166676462Y-120654313D01*
X166674963Y-120638552D01*
X166672464Y-120623372D01*
X166668965Y-120608774D01*
X166663447Y-120592024D01*
X166656490Y-120576111D01*
X166648311Y-120561040D01*
X166638849Y-120547095D01*
X166628106Y-120534275D01*
X166616080Y-120522580D01*
X166602771Y-120512011D01*
X166598050Y-120508738D01*
X166583071Y-120500010D01*
X166566888Y-120493087D01*
X166552482Y-120488698D01*
X166537240Y-120485562D01*
X166521163Y-120483681D01*
X166504249Y-120483054D01*
X166486487Y-120483758D01*
X166469492Y-120485869D01*
X166453266Y-120489388D01*
X166437807Y-120494314D01*
X166423115Y-120500648D01*
X166409192Y-120508389D01*
X166396036Y-120517538D01*
X166383648Y-120528094D01*
X166372260Y-120540092D01*
X166362105Y-120553754D01*
X166353183Y-120569079D01*
X166345495Y-120586068D01*
X166339039Y-120604720D01*
X166335006Y-120619801D01*
X166331667Y-120635817D01*
X166329021Y-120652769D01*
X166327069Y-120670656D01*
X165917882Y-120670656D01*
X165920862Y-120652438D01*
X165925158Y-120630270D01*
X165930028Y-120608701D01*
X165935470Y-120587731D01*
X165941485Y-120567361D01*
X165948073Y-120547589D01*
X165955234Y-120528416D01*
X165962968Y-120509843D01*
X165971275Y-120491869D01*
X165980155Y-120474493D01*
X165989591Y-120457694D01*
X165999476Y-120441446D01*
X166009808Y-120425752D01*
X166020588Y-120410610D01*
X166031816Y-120396020D01*
X166043491Y-120381983D01*
X166055615Y-120368499D01*
X166068186Y-120355567D01*
X166081205Y-120343187D01*
X166094672Y-120331361D01*
X166108587Y-120320086D01*
X166122950Y-120309364D01*
X166137760Y-120299195D01*
X166153019Y-120289578D01*
X166168725Y-120280514D01*
X166184879Y-120272002D01*
X166201466Y-120263979D01*
X166218379Y-120256473D01*
X166235618Y-120249485D01*
X166253183Y-120243015D01*
X166271073Y-120237062D01*
X166289288Y-120231627D01*
X166307830Y-120226710D01*
X166326697Y-120222310D01*
X166345890Y-120218428D01*
X166365409Y-120215063D01*
X166385253Y-120212216D01*
X166405423Y-120209887D01*
X166425919Y-120208075D01*
X166446740Y-120206781D01*
X166467887Y-120206005D01*
X166489360Y-120205746D01*
X166510762Y-120205980D01*
G37*
G36*
X167988315Y-120205746D02*
G01*
X168003386Y-120205960D01*
X168018635Y-120206601D01*
X168034062Y-120207670D01*
X168049668Y-120209166D01*
X168058665Y-120210213D01*
X168073553Y-120212004D01*
X168088343Y-120214051D01*
X168103494Y-120216610D01*
X168111894Y-120218402D01*
X168075788Y-120602539D01*
X168059846Y-120599724D01*
X168043444Y-120597165D01*
X168027129Y-120594862D01*
X168023304Y-120594350D01*
X168006321Y-120592396D01*
X167988942Y-120591144D01*
X167972174Y-120590411D01*
X167956882Y-120590040D01*
X167940390Y-120589888D01*
X167936947Y-120589883D01*
X167919907Y-120590239D01*
X167904875Y-120591112D01*
X167889451Y-120592508D01*
X167873634Y-120594427D01*
X167857425Y-120596870D01*
X167854685Y-120597328D01*
X167838498Y-120600682D01*
X167822598Y-120605162D01*
X167806987Y-120610767D01*
X167791663Y-120617498D01*
X167776627Y-120625354D01*
X167771679Y-120628223D01*
X167757406Y-120637841D01*
X167744181Y-120649108D01*
X167732002Y-120662024D01*
X167722653Y-120674047D01*
X167714030Y-120687215D01*
X167707656Y-120698573D01*
X167700579Y-120714066D01*
X167694701Y-120731230D01*
X167690862Y-120746166D01*
X167687791Y-120762172D01*
X167685488Y-120779247D01*
X167683953Y-120797393D01*
X167683185Y-120816610D01*
X167683089Y-120826619D01*
X167683089Y-121406920D01*
X167275502Y-121406920D01*
X167275502Y-120226963D01*
X167578494Y-120226963D01*
X167642516Y-120414937D01*
X167661872Y-120414937D01*
X167670172Y-120400664D01*
X167679064Y-120386694D01*
X167688550Y-120373027D01*
X167698630Y-120359661D01*
X167709302Y-120346599D01*
X167720568Y-120333838D01*
X167732427Y-120321380D01*
X167744879Y-120309225D01*
X167757901Y-120297540D01*
X167771283Y-120286496D01*
X167785027Y-120276091D01*
X167799131Y-120266326D01*
X167813595Y-120257200D01*
X167828420Y-120248715D01*
X167843606Y-120240869D01*
X167859152Y-120233663D01*
X167874931Y-120227120D01*
X167890815Y-120221449D01*
X167906803Y-120216651D01*
X167922896Y-120212725D01*
X167939093Y-120209672D01*
X167955396Y-120207491D01*
X167971803Y-120206182D01*
X167988315Y-120205746D01*
G37*
G36*
X169323117Y-121406920D02*
G01*
X169016031Y-121406920D01*
X168928558Y-121257657D01*
X168913669Y-121257657D01*
X168904581Y-121272104D01*
X168894766Y-121286134D01*
X168884225Y-121299745D01*
X168872956Y-121312938D01*
X168860961Y-121325714D01*
X168848238Y-121338071D01*
X168842946Y-121342897D01*
X168829258Y-121354514D01*
X168814716Y-121365405D01*
X168799320Y-121375568D01*
X168786388Y-121383176D01*
X168772909Y-121390318D01*
X168758884Y-121396994D01*
X168744312Y-121403206D01*
X168740583Y-121404686D01*
X168725357Y-121410182D01*
X168709456Y-121414946D01*
X168692880Y-121418976D01*
X168675630Y-121422274D01*
X168657705Y-121424839D01*
X168639105Y-121426671D01*
X168619831Y-121427770D01*
X168604932Y-121428113D01*
X168599882Y-121428136D01*
X168577468Y-121427529D01*
X168555546Y-121425705D01*
X168534116Y-121422666D01*
X168513177Y-121418412D01*
X168492729Y-121412942D01*
X168472773Y-121406256D01*
X168453308Y-121398355D01*
X168434334Y-121389239D01*
X168415853Y-121378907D01*
X168397862Y-121367359D01*
X168380363Y-121354596D01*
X168363356Y-121340617D01*
X168346839Y-121325422D01*
X168330815Y-121309012D01*
X168315282Y-121291387D01*
X168300240Y-121272546D01*
X168285906Y-121252494D01*
X168272497Y-121231328D01*
X168260013Y-121209048D01*
X168248454Y-121185654D01*
X168237819Y-121161147D01*
X168228110Y-121135526D01*
X168219324Y-121108791D01*
X168211464Y-121080942D01*
X168204528Y-121051980D01*
X168201407Y-121037081D01*
X168198518Y-121021904D01*
X168195859Y-121006448D01*
X168193431Y-120990714D01*
X168191235Y-120974701D01*
X168189270Y-120958410D01*
X168187536Y-120941841D01*
X168186033Y-120924993D01*
X168184762Y-120907866D01*
X168183722Y-120890462D01*
X168182912Y-120872778D01*
X168182334Y-120854817D01*
X168181988Y-120836576D01*
X168181912Y-120824386D01*
X168593554Y-120824386D01*
X168593742Y-120842498D01*
X168594304Y-120859986D01*
X168595242Y-120876848D01*
X168596555Y-120893085D01*
X168598243Y-120908696D01*
X168600307Y-120923683D01*
X168604105Y-120944990D01*
X168608747Y-120964891D01*
X168614233Y-120983385D01*
X168620564Y-121000472D01*
X168627738Y-121016152D01*
X168635757Y-121030426D01*
X168641571Y-121039160D01*
X168650826Y-121051134D01*
X168663950Y-121065267D01*
X168677970Y-121077306D01*
X168692885Y-121087251D01*
X168708696Y-121095103D01*
X168725403Y-121100861D01*
X168743005Y-121104525D01*
X168761503Y-121106095D01*
X168766267Y-121106161D01*
X168784185Y-121105618D01*
X168801089Y-121103989D01*
X168816979Y-121101273D01*
X168831854Y-121097472D01*
X168850111Y-121090713D01*
X168866565Y-121082024D01*
X168881215Y-121071404D01*
X168894063Y-121058853D01*
X168905107Y-121044371D01*
X168914651Y-121027801D01*
X168921023Y-121014023D01*
X168926721Y-120999086D01*
X168931745Y-120982991D01*
X168936095Y-120965739D01*
X168939771Y-120947328D01*
X168942773Y-120927758D01*
X168945102Y-120907031D01*
X168946756Y-120885146D01*
X168947484Y-120869912D01*
X168947913Y-120854164D01*
X168947913Y-120822152D01*
X168947758Y-120805094D01*
X168947291Y-120788536D01*
X168946513Y-120772478D01*
X168945424Y-120756920D01*
X168944024Y-120741862D01*
X168941340Y-120720213D01*
X168937956Y-120699690D01*
X168933872Y-120680292D01*
X168929088Y-120662019D01*
X168923604Y-120644872D01*
X168917420Y-120628851D01*
X168910536Y-120613954D01*
X168908085Y-120609239D01*
X168900098Y-120595868D01*
X168890934Y-120583813D01*
X168880591Y-120573072D01*
X168864969Y-120560798D01*
X168851879Y-120553126D01*
X168837611Y-120546769D01*
X168822165Y-120541728D01*
X168805541Y-120538002D01*
X168787740Y-120535591D01*
X168768761Y-120534495D01*
X168762173Y-120534422D01*
X168744410Y-120535521D01*
X168727416Y-120538818D01*
X168711189Y-120544315D01*
X168695730Y-120552009D01*
X168681039Y-120561902D01*
X168667115Y-120573994D01*
X168653959Y-120588284D01*
X168644596Y-120600444D01*
X168641571Y-120604772D01*
X168632990Y-120618657D01*
X168625253Y-120633928D01*
X168618360Y-120650587D01*
X168612311Y-120668632D01*
X168607106Y-120688065D01*
X168602745Y-120708885D01*
X168599228Y-120731092D01*
X168597352Y-120746667D01*
X168595852Y-120762859D01*
X168594726Y-120779668D01*
X168593976Y-120797092D01*
X168593601Y-120815134D01*
X168593554Y-120824386D01*
X168181912Y-120824386D01*
X168181872Y-120818058D01*
X168181989Y-120799266D01*
X168182342Y-120780764D01*
X168182929Y-120762552D01*
X168183751Y-120744630D01*
X168184807Y-120726999D01*
X168186099Y-120709657D01*
X168187625Y-120692606D01*
X168189386Y-120675844D01*
X168191382Y-120659373D01*
X168193613Y-120643192D01*
X168196079Y-120627300D01*
X168198779Y-120611699D01*
X168201715Y-120596388D01*
X168204885Y-120581367D01*
X168208290Y-120566636D01*
X168211929Y-120552195D01*
X168219913Y-120524184D01*
X168228837Y-120497333D01*
X168238699Y-120471642D01*
X168249501Y-120447111D01*
X168261242Y-120423741D01*
X168273922Y-120401531D01*
X168287542Y-120380481D01*
X168302101Y-120360592D01*
X168317455Y-120341841D01*
X168333368Y-120324300D01*
X168349839Y-120307968D01*
X168366868Y-120292847D01*
X168384456Y-120278935D01*
X168402602Y-120266233D01*
X168421307Y-120254740D01*
X168440569Y-120244457D01*
X168460390Y-120235384D01*
X168480770Y-120227521D01*
X168501707Y-120220868D01*
X168523203Y-120215424D01*
X168545258Y-120211190D01*
X168567871Y-120208165D01*
X168591042Y-120206351D01*
X168614771Y-120205746D01*
X168634167Y-120206095D01*
X168652901Y-120207142D01*
X168670971Y-120208887D01*
X168688379Y-120211329D01*
X168705123Y-120214470D01*
X168721204Y-120218309D01*
X168736623Y-120222845D01*
X168751378Y-120228079D01*
X168765563Y-120233930D01*
X168779272Y-120240316D01*
X168792503Y-120247237D01*
X168808372Y-120256641D01*
X168823495Y-120266881D01*
X168837874Y-120277957D01*
X168851507Y-120289869D01*
X168864566Y-120302435D01*
X168876988Y-120315474D01*
X168888775Y-120328985D01*
X168899925Y-120342969D01*
X168910440Y-120357426D01*
X168920318Y-120372355D01*
X168924091Y-120378459D01*
X168932652Y-120378459D01*
X168930059Y-120363664D01*
X168927629Y-120347198D01*
X168925362Y-120329059D01*
X168923667Y-120313344D01*
X168922076Y-120296559D01*
X168920590Y-120278704D01*
X168919209Y-120259778D01*
X168918880Y-120254880D01*
X168917658Y-120235216D01*
X168916600Y-120215680D01*
X168915704Y-120196272D01*
X168914971Y-120176991D01*
X168914401Y-120157839D01*
X168913994Y-120138815D01*
X168913750Y-120119919D01*
X168913669Y-120101150D01*
X168913669Y-119785503D01*
X169323117Y-119785503D01*
X169323117Y-121406920D01*
G37*
G36*
X170316961Y-120205746D02*
G01*
X170332032Y-120205960D01*
X170347281Y-120206601D01*
X170362709Y-120207670D01*
X170378314Y-120209166D01*
X170387312Y-120210213D01*
X170402200Y-120212004D01*
X170416990Y-120214051D01*
X170432141Y-120216610D01*
X170440540Y-120218402D01*
X170404434Y-120602539D01*
X170388492Y-120599724D01*
X170372091Y-120597165D01*
X170355776Y-120594862D01*
X170351950Y-120594350D01*
X170334967Y-120592396D01*
X170317588Y-120591144D01*
X170300821Y-120590411D01*
X170285528Y-120590040D01*
X170269036Y-120589888D01*
X170265594Y-120589883D01*
X170248553Y-120590239D01*
X170233522Y-120591112D01*
X170218098Y-120592508D01*
X170202281Y-120594427D01*
X170186072Y-120596870D01*
X170183332Y-120597328D01*
X170167144Y-120600682D01*
X170151245Y-120605162D01*
X170135633Y-120610767D01*
X170120309Y-120617498D01*
X170105273Y-120625354D01*
X170100325Y-120628223D01*
X170086053Y-120637841D01*
X170072827Y-120649108D01*
X170060648Y-120662024D01*
X170051299Y-120674047D01*
X170042677Y-120687215D01*
X170036303Y-120698573D01*
X170029225Y-120714066D01*
X170023347Y-120731230D01*
X170019509Y-120746166D01*
X170016438Y-120762172D01*
X170014135Y-120779247D01*
X170012599Y-120797393D01*
X170011832Y-120816610D01*
X170011736Y-120826619D01*
X170011736Y-121406920D01*
X169604148Y-121406920D01*
X169604148Y-120226963D01*
X169907140Y-120226963D01*
X169971163Y-120414937D01*
X169990519Y-120414937D01*
X169998818Y-120400664D01*
X170007711Y-120386694D01*
X170017197Y-120373027D01*
X170027276Y-120359661D01*
X170037948Y-120346599D01*
X170049214Y-120333838D01*
X170061073Y-120321380D01*
X170073525Y-120309225D01*
X170086547Y-120297540D01*
X170099930Y-120286496D01*
X170113673Y-120276091D01*
X170127777Y-120266326D01*
X170142242Y-120257200D01*
X170157067Y-120248715D01*
X170172252Y-120240869D01*
X170187799Y-120233663D01*
X170203577Y-120227120D01*
X170219461Y-120221449D01*
X170235449Y-120216651D01*
X170251542Y-120212725D01*
X170267740Y-120209672D01*
X170284042Y-120207491D01*
X170300449Y-120206182D01*
X170316961Y-120205746D01*
G37*
G36*
X171014513Y-120226963D02*
G01*
X171014513Y-121406920D01*
X170606925Y-121406920D01*
X170606925Y-120226963D01*
X171014513Y-120226963D01*
G37*
G36*
X170811649Y-119751258D02*
G01*
X170827854Y-119751578D01*
X170843667Y-119752540D01*
X170859086Y-119754143D01*
X170874114Y-119756388D01*
X170888748Y-119759273D01*
X170907650Y-119764118D01*
X170925855Y-119770102D01*
X170943361Y-119777227D01*
X170960169Y-119785492D01*
X170964262Y-119787736D01*
X170979529Y-119797897D01*
X170992761Y-119810325D01*
X171003957Y-119825023D01*
X171013117Y-119841988D01*
X171018651Y-119856200D01*
X171023040Y-119871689D01*
X171026285Y-119888453D01*
X171028384Y-119906494D01*
X171029338Y-119925810D01*
X171029402Y-119932532D01*
X171028829Y-119951555D01*
X171027112Y-119969400D01*
X171024249Y-119986067D01*
X171020241Y-120001557D01*
X171015089Y-120015868D01*
X171006437Y-120033119D01*
X170995751Y-120048275D01*
X170983028Y-120061338D01*
X170968270Y-120072307D01*
X170964262Y-120074722D01*
X170947628Y-120083446D01*
X170930297Y-120091007D01*
X170912267Y-120097405D01*
X170893539Y-120102639D01*
X170874114Y-120106710D01*
X170859086Y-120109001D01*
X170843667Y-120110636D01*
X170827854Y-120111618D01*
X170811649Y-120111945D01*
X170795128Y-120111618D01*
X170779065Y-120110636D01*
X170763460Y-120109001D01*
X170748313Y-120106710D01*
X170733624Y-120103766D01*
X170714751Y-120098822D01*
X170696692Y-120092716D01*
X170679447Y-120085446D01*
X170663017Y-120077012D01*
X170659037Y-120074722D01*
X170644293Y-120064277D01*
X170631515Y-120051737D01*
X170620703Y-120037104D01*
X170611857Y-120020377D01*
X170606513Y-120006458D01*
X170602274Y-119991361D01*
X170599141Y-119975086D01*
X170597113Y-119957634D01*
X170596192Y-119939004D01*
X170596131Y-119932532D01*
X170596683Y-119912790D01*
X170598342Y-119894325D01*
X170601107Y-119877135D01*
X170604977Y-119861222D01*
X170609953Y-119846584D01*
X170618307Y-119829051D01*
X170628628Y-119813787D01*
X170640914Y-119800791D01*
X170655167Y-119790063D01*
X170659037Y-119787736D01*
X170675263Y-119779186D01*
X170692304Y-119771777D01*
X170710160Y-119765507D01*
X170728829Y-119760377D01*
X170748313Y-119756388D01*
X170763460Y-119754143D01*
X170779065Y-119752540D01*
X170795128Y-119751578D01*
X170811649Y-119751258D01*
G37*
G36*
X171606352Y-121406920D02*
G01*
X171156331Y-120226963D01*
X171581041Y-120226963D01*
X171781298Y-120924887D01*
X171785249Y-120940273D01*
X171787626Y-120951687D01*
X171790924Y-120967390D01*
X171793855Y-120982889D01*
X171796187Y-120996354D01*
X171798543Y-121011599D01*
X171800026Y-121026627D01*
X171800650Y-121042905D01*
X171800654Y-121044371D01*
X171806982Y-121044371D01*
X171807334Y-121028381D01*
X171808390Y-121012655D01*
X171809960Y-120998587D01*
X171812483Y-120983417D01*
X171815737Y-120967871D01*
X171818521Y-120956898D01*
X171822765Y-120941601D01*
X171826338Y-120926748D01*
X172035529Y-120226963D01*
X172459867Y-120226963D01*
X172009845Y-121406920D01*
X171606352Y-121406920D01*
G37*
G36*
X173152764Y-120205980D02*
G01*
X173173790Y-120206682D01*
X173194442Y-120207853D01*
X173214718Y-120209491D01*
X173234619Y-120211598D01*
X173254145Y-120214173D01*
X173273296Y-120217217D01*
X173292071Y-120220728D01*
X173310472Y-120224708D01*
X173328497Y-120229155D01*
X173346147Y-120234071D01*
X173363422Y-120239456D01*
X173380322Y-120245308D01*
X173396847Y-120251629D01*
X173412997Y-120258417D01*
X173428771Y-120265674D01*
X173444178Y-120273353D01*
X173459131Y-120281500D01*
X173473630Y-120290115D01*
X173487676Y-120299198D01*
X173501268Y-120308749D01*
X173514406Y-120318769D01*
X173527091Y-120329257D01*
X173539322Y-120340213D01*
X173551100Y-120351637D01*
X173562424Y-120363529D01*
X173573294Y-120375890D01*
X173583710Y-120388718D01*
X173593673Y-120402015D01*
X173603182Y-120415780D01*
X173612238Y-120430014D01*
X173620840Y-120444715D01*
X173628998Y-120459892D01*
X173636630Y-120475552D01*
X173643736Y-120491694D01*
X173650315Y-120508319D01*
X173656369Y-120525427D01*
X173661895Y-120543018D01*
X173666896Y-120561091D01*
X173671370Y-120579647D01*
X173675317Y-120598686D01*
X173678738Y-120618207D01*
X173681633Y-120638212D01*
X173684002Y-120658699D01*
X173685844Y-120679668D01*
X173687160Y-120701121D01*
X173687950Y-120723056D01*
X173688213Y-120745474D01*
X173688213Y-120926748D01*
X172960511Y-120926748D01*
X172961815Y-120943705D01*
X172964192Y-120960100D01*
X172967643Y-120975932D01*
X172972166Y-120991201D01*
X172977763Y-121005908D01*
X172984432Y-121020052D01*
X172992175Y-121033633D01*
X173000990Y-121046651D01*
X173010879Y-121059107D01*
X173021841Y-121071000D01*
X173029745Y-121078616D01*
X173042475Y-121089259D01*
X173056240Y-121098856D01*
X173071038Y-121107405D01*
X173086870Y-121114908D01*
X173103736Y-121121364D01*
X173121635Y-121126773D01*
X173140569Y-121131135D01*
X173160536Y-121134450D01*
X173181537Y-121136718D01*
X173203571Y-121137940D01*
X173218836Y-121138172D01*
X173239464Y-121137986D01*
X173259751Y-121137426D01*
X173279699Y-121136494D01*
X173299306Y-121135189D01*
X173318573Y-121133510D01*
X173337500Y-121131459D01*
X173356087Y-121129035D01*
X173374333Y-121126238D01*
X173392239Y-121123068D01*
X173409805Y-121119525D01*
X173421327Y-121116955D01*
X173438618Y-121112685D01*
X173456013Y-121107970D01*
X173473514Y-121102809D01*
X173491119Y-121097204D01*
X173508829Y-121091154D01*
X173526643Y-121084659D01*
X173544563Y-121077719D01*
X173562586Y-121070334D01*
X173580715Y-121062504D01*
X173598948Y-121054229D01*
X173611162Y-121048466D01*
X173611162Y-121340663D01*
X173595036Y-121348899D01*
X173578621Y-121356716D01*
X173561919Y-121364113D01*
X173544929Y-121371093D01*
X173527651Y-121377653D01*
X173510085Y-121383795D01*
X173492231Y-121389518D01*
X173474090Y-121394822D01*
X173455660Y-121399708D01*
X173436943Y-121404174D01*
X173424304Y-121406920D01*
X173404863Y-121410711D01*
X173384505Y-121414130D01*
X173363232Y-121417176D01*
X173341042Y-121419849D01*
X173325740Y-121421423D01*
X173310031Y-121422832D01*
X173293915Y-121424075D01*
X173277391Y-121425153D01*
X173260461Y-121426064D01*
X173243123Y-121426810D01*
X173225379Y-121427390D01*
X173207227Y-121427805D01*
X173188668Y-121428054D01*
X173169702Y-121428136D01*
X173147429Y-121427891D01*
X173125465Y-121427153D01*
X173103809Y-121425925D01*
X173082461Y-121424205D01*
X173061422Y-121421993D01*
X173040691Y-121419290D01*
X173020268Y-121416096D01*
X173000153Y-121412410D01*
X172980346Y-121408232D01*
X172960848Y-121403564D01*
X172941658Y-121398403D01*
X172922776Y-121392752D01*
X172904203Y-121386608D01*
X172885938Y-121379974D01*
X172867981Y-121372848D01*
X172850332Y-121365230D01*
X172833112Y-121357088D01*
X172816349Y-121348387D01*
X172800042Y-121339128D01*
X172784192Y-121329310D01*
X172768798Y-121318935D01*
X172753861Y-121308000D01*
X172739381Y-121296508D01*
X172725357Y-121284457D01*
X172711790Y-121271848D01*
X172698679Y-121258680D01*
X172686025Y-121244955D01*
X172673827Y-121230670D01*
X172662086Y-121215828D01*
X172650801Y-121200427D01*
X172639973Y-121184468D01*
X172629602Y-121167950D01*
X172619821Y-121150861D01*
X172610671Y-121133188D01*
X172602152Y-121114930D01*
X172594264Y-121096087D01*
X172587007Y-121076660D01*
X172580381Y-121056649D01*
X172574386Y-121036053D01*
X172569022Y-121014872D01*
X172564289Y-120993107D01*
X172560187Y-120970758D01*
X172556717Y-120947824D01*
X172553877Y-120924305D01*
X172551668Y-120900202D01*
X172550091Y-120875514D01*
X172549144Y-120850242D01*
X172548829Y-120824386D01*
X172549115Y-120798024D01*
X172549974Y-120772262D01*
X172551407Y-120747099D01*
X172553412Y-120722535D01*
X172555990Y-120698570D01*
X172559140Y-120675204D01*
X172559884Y-120670656D01*
X172969072Y-120670656D01*
X173318964Y-120670656D01*
X173318465Y-120654313D01*
X173316965Y-120638552D01*
X173314466Y-120623372D01*
X173310967Y-120608774D01*
X173305449Y-120592024D01*
X173298492Y-120576111D01*
X173290313Y-120561040D01*
X173280852Y-120547095D01*
X173270108Y-120534275D01*
X173258082Y-120522580D01*
X173244774Y-120512011D01*
X173240053Y-120508738D01*
X173225073Y-120500010D01*
X173208890Y-120493087D01*
X173194485Y-120488698D01*
X173179243Y-120485562D01*
X173163165Y-120483681D01*
X173146252Y-120483054D01*
X173128489Y-120483758D01*
X173111495Y-120485869D01*
X173095268Y-120489388D01*
X173079809Y-120494314D01*
X173065118Y-120500648D01*
X173051194Y-120508389D01*
X173038038Y-120517538D01*
X173025650Y-120528094D01*
X173014263Y-120540092D01*
X173004108Y-120553754D01*
X172995186Y-120569079D01*
X172987497Y-120586068D01*
X172981041Y-120604720D01*
X172977009Y-120619801D01*
X172973670Y-120635817D01*
X172971024Y-120652769D01*
X172969072Y-120670656D01*
X172559884Y-120670656D01*
X172562864Y-120652438D01*
X172567161Y-120630270D01*
X172572030Y-120608701D01*
X172577473Y-120587731D01*
X172583488Y-120567361D01*
X172590076Y-120547589D01*
X172597237Y-120528416D01*
X172604971Y-120509843D01*
X172613278Y-120491869D01*
X172622157Y-120474493D01*
X172631594Y-120457694D01*
X172641478Y-120441446D01*
X172651810Y-120425752D01*
X172662590Y-120410610D01*
X172673818Y-120396020D01*
X172685494Y-120381983D01*
X172697617Y-120368499D01*
X172710189Y-120355567D01*
X172723208Y-120343187D01*
X172736675Y-120331361D01*
X172750590Y-120320086D01*
X172764952Y-120309364D01*
X172779763Y-120299195D01*
X172795021Y-120289578D01*
X172810728Y-120280514D01*
X172826882Y-120272002D01*
X172843469Y-120263979D01*
X172860382Y-120256473D01*
X172877621Y-120249485D01*
X172895185Y-120243015D01*
X172913075Y-120237062D01*
X172931291Y-120231627D01*
X172949832Y-120226710D01*
X172968700Y-120222310D01*
X172987893Y-120218428D01*
X173007411Y-120215063D01*
X173027256Y-120212216D01*
X173047426Y-120209887D01*
X173067921Y-120208075D01*
X173088743Y-120206781D01*
X173109890Y-120206005D01*
X173131363Y-120205746D01*
X173152764Y-120205980D01*
G37*
G36*
X174780696Y-121406920D02*
G01*
X174330675Y-120226963D01*
X174755385Y-120226963D01*
X174955643Y-120924887D01*
X174959593Y-120940273D01*
X174961970Y-120951687D01*
X174965268Y-120967390D01*
X174968199Y-120982889D01*
X174970532Y-120996354D01*
X174972887Y-121011599D01*
X174974370Y-121026627D01*
X174974994Y-121042905D01*
X174974998Y-121044371D01*
X174981326Y-121044371D01*
X174981678Y-121028381D01*
X174982734Y-121012655D01*
X174984304Y-120998587D01*
X174986827Y-120983417D01*
X174990081Y-120967871D01*
X174992865Y-120956898D01*
X174997109Y-120941601D01*
X175000682Y-120926748D01*
X175209873Y-120226963D01*
X175634211Y-120226963D01*
X175184189Y-121406920D01*
X174780696Y-121406920D01*
G37*
G36*
X176615027Y-121406920D02*
G01*
X176196644Y-121406920D01*
X176196644Y-120653906D01*
X176196644Y-120637105D01*
X176196644Y-120621408D01*
X176196644Y-120605373D01*
X176196644Y-120590191D01*
X176196644Y-120576855D01*
X176196699Y-120559215D01*
X176196863Y-120540956D01*
X176197072Y-120525904D01*
X176197351Y-120510457D01*
X176197700Y-120494614D01*
X176198119Y-120478375D01*
X176198607Y-120461741D01*
X176198878Y-120453276D01*
X176199430Y-120436392D01*
X176199971Y-120419985D01*
X176200500Y-120404055D01*
X176201018Y-120388602D01*
X176201524Y-120373626D01*
X176202140Y-120355576D01*
X176202738Y-120338271D01*
X176202972Y-120331558D01*
X176192826Y-120343262D01*
X176181452Y-120356155D01*
X176170577Y-120368228D01*
X176160200Y-120379483D01*
X176153094Y-120387020D01*
X176141857Y-120398489D01*
X176130481Y-120409447D01*
X176118966Y-120419892D01*
X176107310Y-120429826D01*
X175934225Y-120572761D01*
X175720939Y-120310341D01*
X176243545Y-119883398D01*
X176615027Y-119883398D01*
X176615027Y-121406920D01*
G37*
G36*
X176972364Y-121234207D02*
G01*
X176972933Y-121213991D01*
X176974641Y-121194940D01*
X176977487Y-121177053D01*
X176981472Y-121160331D01*
X176986595Y-121144774D01*
X176992856Y-121130382D01*
X177000257Y-121117154D01*
X177011894Y-121101328D01*
X177025556Y-121087573D01*
X177037131Y-121078616D01*
X177053835Y-121068060D01*
X177071376Y-121058911D01*
X177085081Y-121052974D01*
X177099258Y-121047827D01*
X177113906Y-121043473D01*
X177129024Y-121039910D01*
X177144614Y-121037139D01*
X177160675Y-121035160D01*
X177177207Y-121033973D01*
X177194210Y-121033577D01*
X177210396Y-121033973D01*
X177226149Y-121035160D01*
X177241471Y-121037139D01*
X177256361Y-121039910D01*
X177270818Y-121043473D01*
X177289424Y-121049455D01*
X177307262Y-121056844D01*
X177324332Y-121065641D01*
X177340634Y-121075845D01*
X177344590Y-121078616D01*
X177359333Y-121090818D01*
X177372111Y-121105091D01*
X177382923Y-121121434D01*
X177389742Y-121135050D01*
X177395455Y-121149830D01*
X177400063Y-121165776D01*
X177403564Y-121182886D01*
X177405960Y-121201161D01*
X177407250Y-121220600D01*
X177407496Y-121234207D01*
X177406943Y-121253311D01*
X177405284Y-121271402D01*
X177402520Y-121288478D01*
X177398650Y-121304540D01*
X177393674Y-121319588D01*
X177387592Y-121333621D01*
X177377763Y-121350756D01*
X177365968Y-121366087D01*
X177352207Y-121379615D01*
X177344590Y-121385703D01*
X177328479Y-121396695D01*
X177311601Y-121406222D01*
X177293955Y-121414283D01*
X177275542Y-121420878D01*
X177256361Y-121426008D01*
X177241471Y-121428893D01*
X177226149Y-121430954D01*
X177210396Y-121432191D01*
X177194210Y-121432603D01*
X177177207Y-121432191D01*
X177160675Y-121430954D01*
X177144614Y-121428893D01*
X177129024Y-121426008D01*
X177113906Y-121422298D01*
X177099258Y-121417763D01*
X177085081Y-121412405D01*
X177071376Y-121406222D01*
X177058141Y-121399214D01*
X177045378Y-121391382D01*
X177037131Y-121385703D01*
X177021951Y-121373076D01*
X177008795Y-121358646D01*
X176997663Y-121342414D01*
X176990643Y-121329056D01*
X176984761Y-121314684D01*
X176980017Y-121299299D01*
X176976412Y-121282898D01*
X176973945Y-121265484D01*
X176972617Y-121247056D01*
X176972364Y-121234207D01*
G37*
G36*
X178480624Y-121406920D02*
G01*
X178062242Y-121406920D01*
X178062242Y-120653906D01*
X178062242Y-120637105D01*
X178062242Y-120621408D01*
X178062242Y-120605373D01*
X178062242Y-120590191D01*
X178062242Y-120576855D01*
X178062296Y-120559215D01*
X178062460Y-120540956D01*
X178062669Y-120525904D01*
X178062948Y-120510457D01*
X178063297Y-120494614D01*
X178063716Y-120478375D01*
X178064205Y-120461741D01*
X178064475Y-120453276D01*
X178065028Y-120436392D01*
X178065568Y-120419985D01*
X178066098Y-120404055D01*
X178066615Y-120388602D01*
X178067121Y-120373626D01*
X178067737Y-120355576D01*
X178068335Y-120338271D01*
X178068569Y-120331558D01*
X178058423Y-120343262D01*
X178047049Y-120356155D01*
X178036174Y-120368228D01*
X178025798Y-120379483D01*
X178018691Y-120387020D01*
X178007455Y-120398489D01*
X177996078Y-120409447D01*
X177984563Y-120419892D01*
X177972907Y-120429826D01*
X177799822Y-120572761D01*
X177586537Y-120310341D01*
X178109142Y-119883398D01*
X178480624Y-119883398D01*
X178480624Y-121406920D01*
G37*
D10*
X166087588Y-106994438D02*
X165992350Y-106946819D01*
X165992350Y-106946819D02*
X165849493Y-106946819D01*
X165849493Y-106946819D02*
X165706636Y-106994438D01*
X165706636Y-106994438D02*
X165611398Y-107089676D01*
X165611398Y-107089676D02*
X165563779Y-107184914D01*
X165563779Y-107184914D02*
X165516160Y-107375390D01*
X165516160Y-107375390D02*
X165516160Y-107518247D01*
X165516160Y-107518247D02*
X165563779Y-107708723D01*
X165563779Y-107708723D02*
X165611398Y-107803961D01*
X165611398Y-107803961D02*
X165706636Y-107899200D01*
X165706636Y-107899200D02*
X165849493Y-107946819D01*
X165849493Y-107946819D02*
X165944731Y-107946819D01*
X165944731Y-107946819D02*
X166087588Y-107899200D01*
X166087588Y-107899200D02*
X166135207Y-107851580D01*
X166135207Y-107851580D02*
X166135207Y-107518247D01*
X166135207Y-107518247D02*
X165944731Y-107518247D01*
X166563779Y-107946819D02*
X166563779Y-106946819D01*
X166563779Y-106946819D02*
X167135207Y-107946819D01*
X167135207Y-107946819D02*
X167135207Y-106946819D01*
X167611398Y-107946819D02*
X167611398Y-106946819D01*
X167611398Y-106946819D02*
X167849493Y-106946819D01*
X167849493Y-106946819D02*
X167992350Y-106994438D01*
X167992350Y-106994438D02*
X168087588Y-107089676D01*
X168087588Y-107089676D02*
X168135207Y-107184914D01*
X168135207Y-107184914D02*
X168182826Y-107375390D01*
X168182826Y-107375390D02*
X168182826Y-107518247D01*
X168182826Y-107518247D02*
X168135207Y-107708723D01*
X168135207Y-107708723D02*
X168087588Y-107803961D01*
X168087588Y-107803961D02*
X167992350Y-107899200D01*
X167992350Y-107899200D02*
X167849493Y-107946819D01*
X167849493Y-107946819D02*
X167611398Y-107946819D01*
X175358588Y-106994438D02*
X175263350Y-106946819D01*
X175263350Y-106946819D02*
X175120493Y-106946819D01*
X175120493Y-106946819D02*
X174977636Y-106994438D01*
X174977636Y-106994438D02*
X174882398Y-107089676D01*
X174882398Y-107089676D02*
X174834779Y-107184914D01*
X174834779Y-107184914D02*
X174787160Y-107375390D01*
X174787160Y-107375390D02*
X174787160Y-107518247D01*
X174787160Y-107518247D02*
X174834779Y-107708723D01*
X174834779Y-107708723D02*
X174882398Y-107803961D01*
X174882398Y-107803961D02*
X174977636Y-107899200D01*
X174977636Y-107899200D02*
X175120493Y-107946819D01*
X175120493Y-107946819D02*
X175215731Y-107946819D01*
X175215731Y-107946819D02*
X175358588Y-107899200D01*
X175358588Y-107899200D02*
X175406207Y-107851580D01*
X175406207Y-107851580D02*
X175406207Y-107518247D01*
X175406207Y-107518247D02*
X175215731Y-107518247D01*
X175834779Y-107946819D02*
X175834779Y-106946819D01*
X175834779Y-106946819D02*
X176406207Y-107946819D01*
X176406207Y-107946819D02*
X176406207Y-106946819D01*
X176882398Y-107946819D02*
X176882398Y-106946819D01*
X176882398Y-106946819D02*
X177120493Y-106946819D01*
X177120493Y-106946819D02*
X177263350Y-106994438D01*
X177263350Y-106994438D02*
X177358588Y-107089676D01*
X177358588Y-107089676D02*
X177406207Y-107184914D01*
X177406207Y-107184914D02*
X177453826Y-107375390D01*
X177453826Y-107375390D02*
X177453826Y-107518247D01*
X177453826Y-107518247D02*
X177406207Y-107708723D01*
X177406207Y-107708723D02*
X177358588Y-107803961D01*
X177358588Y-107803961D02*
X177263350Y-107899200D01*
X177263350Y-107899200D02*
X177120493Y-107946819D01*
X177120493Y-107946819D02*
X176882398Y-107946819D01*
X157467541Y-106946819D02*
X158086588Y-106946819D01*
X158086588Y-106946819D02*
X157753255Y-107327771D01*
X157753255Y-107327771D02*
X157896112Y-107327771D01*
X157896112Y-107327771D02*
X157991350Y-107375390D01*
X157991350Y-107375390D02*
X158038969Y-107423009D01*
X158038969Y-107423009D02*
X158086588Y-107518247D01*
X158086588Y-107518247D02*
X158086588Y-107756342D01*
X158086588Y-107756342D02*
X158038969Y-107851580D01*
X158038969Y-107851580D02*
X157991350Y-107899200D01*
X157991350Y-107899200D02*
X157896112Y-107946819D01*
X157896112Y-107946819D02*
X157610398Y-107946819D01*
X157610398Y-107946819D02*
X157515160Y-107899200D01*
X157515160Y-107899200D02*
X157467541Y-107851580D01*
X170500922Y-106946819D02*
X171072350Y-106946819D01*
X170786636Y-107946819D02*
X170786636Y-106946819D01*
X171405684Y-107946819D02*
X171405684Y-106946819D01*
X171881874Y-107946819D02*
X171881874Y-106946819D01*
X171881874Y-106946819D02*
X172262826Y-106946819D01*
X172262826Y-106946819D02*
X172358064Y-106994438D01*
X172358064Y-106994438D02*
X172405683Y-107042057D01*
X172405683Y-107042057D02*
X172453302Y-107137295D01*
X172453302Y-107137295D02*
X172453302Y-107280152D01*
X172453302Y-107280152D02*
X172405683Y-107375390D01*
X172405683Y-107375390D02*
X172358064Y-107423009D01*
X172358064Y-107423009D02*
X172262826Y-107470628D01*
X172262826Y-107470628D02*
X171881874Y-107470628D01*
X148815588Y-107946819D02*
X148244160Y-107946819D01*
X148529874Y-107946819D02*
X148529874Y-106946819D01*
X148529874Y-106946819D02*
X148434636Y-107089676D01*
X148434636Y-107089676D02*
X148339398Y-107184914D01*
X148339398Y-107184914D02*
X148244160Y-107232533D01*
X143227588Y-106994438D02*
X143132350Y-106946819D01*
X143132350Y-106946819D02*
X142989493Y-106946819D01*
X142989493Y-106946819D02*
X142846636Y-106994438D01*
X142846636Y-106994438D02*
X142751398Y-107089676D01*
X142751398Y-107089676D02*
X142703779Y-107184914D01*
X142703779Y-107184914D02*
X142656160Y-107375390D01*
X142656160Y-107375390D02*
X142656160Y-107518247D01*
X142656160Y-107518247D02*
X142703779Y-107708723D01*
X142703779Y-107708723D02*
X142751398Y-107803961D01*
X142751398Y-107803961D02*
X142846636Y-107899200D01*
X142846636Y-107899200D02*
X142989493Y-107946819D01*
X142989493Y-107946819D02*
X143084731Y-107946819D01*
X143084731Y-107946819D02*
X143227588Y-107899200D01*
X143227588Y-107899200D02*
X143275207Y-107851580D01*
X143275207Y-107851580D02*
X143275207Y-107518247D01*
X143275207Y-107518247D02*
X143084731Y-107518247D01*
X143703779Y-107946819D02*
X143703779Y-106946819D01*
X143703779Y-106946819D02*
X144275207Y-107946819D01*
X144275207Y-107946819D02*
X144275207Y-106946819D01*
X144751398Y-107946819D02*
X144751398Y-106946819D01*
X144751398Y-106946819D02*
X144989493Y-106946819D01*
X144989493Y-106946819D02*
X145132350Y-106994438D01*
X145132350Y-106994438D02*
X145227588Y-107089676D01*
X145227588Y-107089676D02*
X145275207Y-107184914D01*
X145275207Y-107184914D02*
X145322826Y-107375390D01*
X145322826Y-107375390D02*
X145322826Y-107518247D01*
X145322826Y-107518247D02*
X145275207Y-107708723D01*
X145275207Y-107708723D02*
X145227588Y-107803961D01*
X145227588Y-107803961D02*
X145132350Y-107899200D01*
X145132350Y-107899200D02*
X144989493Y-107946819D01*
X144989493Y-107946819D02*
X144751398Y-107946819D01*
X152943160Y-107042057D02*
X152990779Y-106994438D01*
X152990779Y-106994438D02*
X153086017Y-106946819D01*
X153086017Y-106946819D02*
X153324112Y-106946819D01*
X153324112Y-106946819D02*
X153419350Y-106994438D01*
X153419350Y-106994438D02*
X153466969Y-107042057D01*
X153466969Y-107042057D02*
X153514588Y-107137295D01*
X153514588Y-107137295D02*
X153514588Y-107232533D01*
X153514588Y-107232533D02*
X153466969Y-107375390D01*
X153466969Y-107375390D02*
X152895541Y-107946819D01*
X152895541Y-107946819D02*
X153514588Y-107946819D01*
X171532779Y-122805819D02*
X171532779Y-121805819D01*
X171532779Y-122186771D02*
X171628017Y-122139152D01*
X171628017Y-122139152D02*
X171818493Y-122139152D01*
X171818493Y-122139152D02*
X171913731Y-122186771D01*
X171913731Y-122186771D02*
X171961350Y-122234390D01*
X171961350Y-122234390D02*
X172008969Y-122329628D01*
X172008969Y-122329628D02*
X172008969Y-122615342D01*
X172008969Y-122615342D02*
X171961350Y-122710580D01*
X171961350Y-122710580D02*
X171913731Y-122758200D01*
X171913731Y-122758200D02*
X171818493Y-122805819D01*
X171818493Y-122805819D02*
X171628017Y-122805819D01*
X171628017Y-122805819D02*
X171532779Y-122758200D01*
X172342303Y-122139152D02*
X172580398Y-122805819D01*
X172818493Y-122139152D02*
X172580398Y-122805819D01*
X172580398Y-122805819D02*
X172485160Y-123043914D01*
X172485160Y-123043914D02*
X172437541Y-123091533D01*
X172437541Y-123091533D02*
X172342303Y-123139152D01*
X174151827Y-121805819D02*
X174342303Y-121805819D01*
X174342303Y-121805819D02*
X174437541Y-121853438D01*
X174437541Y-121853438D02*
X174532779Y-121948676D01*
X174532779Y-121948676D02*
X174580398Y-122139152D01*
X174580398Y-122139152D02*
X174580398Y-122472485D01*
X174580398Y-122472485D02*
X174532779Y-122662961D01*
X174532779Y-122662961D02*
X174437541Y-122758200D01*
X174437541Y-122758200D02*
X174342303Y-122805819D01*
X174342303Y-122805819D02*
X174151827Y-122805819D01*
X174151827Y-122805819D02*
X174056589Y-122758200D01*
X174056589Y-122758200D02*
X173961351Y-122662961D01*
X173961351Y-122662961D02*
X173913732Y-122472485D01*
X173913732Y-122472485D02*
X173913732Y-122139152D01*
X173913732Y-122139152D02*
X173961351Y-121948676D01*
X173961351Y-121948676D02*
X174056589Y-121853438D01*
X174056589Y-121853438D02*
X174151827Y-121805819D01*
X175008970Y-122805819D02*
X175008970Y-121805819D01*
X175437541Y-122805819D02*
X175437541Y-122282009D01*
X175437541Y-122282009D02*
X175389922Y-122186771D01*
X175389922Y-122186771D02*
X175294684Y-122139152D01*
X175294684Y-122139152D02*
X175151827Y-122139152D01*
X175151827Y-122139152D02*
X175056589Y-122186771D01*
X175056589Y-122186771D02*
X175008970Y-122234390D01*
X175913732Y-122805819D02*
X175913732Y-122139152D01*
X175913732Y-122234390D02*
X175961351Y-122186771D01*
X175961351Y-122186771D02*
X176056589Y-122139152D01*
X176056589Y-122139152D02*
X176199446Y-122139152D01*
X176199446Y-122139152D02*
X176294684Y-122186771D01*
X176294684Y-122186771D02*
X176342303Y-122282009D01*
X176342303Y-122282009D02*
X176342303Y-122805819D01*
X176342303Y-122282009D02*
X176389922Y-122186771D01*
X176389922Y-122186771D02*
X176485160Y-122139152D01*
X176485160Y-122139152D02*
X176628017Y-122139152D01*
X176628017Y-122139152D02*
X176723256Y-122186771D01*
X176723256Y-122186771D02*
X176770875Y-122282009D01*
X176770875Y-122282009D02*
X176770875Y-122805819D01*
X177247065Y-122805819D02*
X177247065Y-122139152D01*
X177247065Y-121805819D02*
X177199446Y-121853438D01*
X177199446Y-121853438D02*
X177247065Y-121901057D01*
X177247065Y-121901057D02*
X177294684Y-121853438D01*
X177294684Y-121853438D02*
X177247065Y-121805819D01*
X177247065Y-121805819D02*
X177247065Y-121901057D01*
X177580398Y-122139152D02*
X177961350Y-122139152D01*
X177723255Y-122805819D02*
X177723255Y-121948676D01*
X177723255Y-121948676D02*
X177770874Y-121853438D01*
X177770874Y-121853438D02*
X177866112Y-121805819D01*
X177866112Y-121805819D02*
X177961350Y-121805819D01*
X178199446Y-122139152D02*
X178437541Y-122805819D01*
X178675636Y-122139152D02*
X178437541Y-122805819D01*
X178437541Y-122805819D02*
X178342303Y-123043914D01*
X178342303Y-123043914D02*
X178294684Y-123091533D01*
X178294684Y-123091533D02*
X178199446Y-123139152D01*
X138369922Y-106946819D02*
X138941350Y-106946819D01*
X138655636Y-107946819D02*
X138655636Y-106946819D01*
X139274684Y-107946819D02*
X139274684Y-106946819D01*
X139750874Y-107946819D02*
X139750874Y-106946819D01*
X139750874Y-106946819D02*
X140131826Y-106946819D01*
X140131826Y-106946819D02*
X140227064Y-106994438D01*
X140227064Y-106994438D02*
X140274683Y-107042057D01*
X140274683Y-107042057D02*
X140322302Y-107137295D01*
X140322302Y-107137295D02*
X140322302Y-107280152D01*
X140322302Y-107280152D02*
X140274683Y-107375390D01*
X140274683Y-107375390D02*
X140227064Y-107423009D01*
X140227064Y-107423009D02*
X140131826Y-107470628D01*
X140131826Y-107470628D02*
X139750874Y-107470628D01*
X160610779Y-107565866D02*
X161372684Y-107565866D01*
X160991731Y-107946819D02*
X160991731Y-107184914D01*
X161896493Y-107946819D02*
X162086969Y-107946819D01*
X162086969Y-107946819D02*
X162182207Y-107899200D01*
X162182207Y-107899200D02*
X162229826Y-107851580D01*
X162229826Y-107851580D02*
X162325064Y-107708723D01*
X162325064Y-107708723D02*
X162372683Y-107518247D01*
X162372683Y-107518247D02*
X162372683Y-107137295D01*
X162372683Y-107137295D02*
X162325064Y-107042057D01*
X162325064Y-107042057D02*
X162277445Y-106994438D01*
X162277445Y-106994438D02*
X162182207Y-106946819D01*
X162182207Y-106946819D02*
X161991731Y-106946819D01*
X161991731Y-106946819D02*
X161896493Y-106994438D01*
X161896493Y-106994438D02*
X161848874Y-107042057D01*
X161848874Y-107042057D02*
X161801255Y-107137295D01*
X161801255Y-107137295D02*
X161801255Y-107375390D01*
X161801255Y-107375390D02*
X161848874Y-107470628D01*
X161848874Y-107470628D02*
X161896493Y-107518247D01*
X161896493Y-107518247D02*
X161991731Y-107565866D01*
X161991731Y-107565866D02*
X162182207Y-107565866D01*
X162182207Y-107565866D02*
X162277445Y-107518247D01*
X162277445Y-107518247D02*
X162325064Y-107470628D01*
X162325064Y-107470628D02*
X162372683Y-107375390D01*
X162658398Y-106946819D02*
X162991731Y-107946819D01*
X162991731Y-107946819D02*
X163325064Y-106946819D01*
X155946095Y-108938819D02*
X155946095Y-109748342D01*
X155946095Y-109748342D02*
X155993714Y-109843580D01*
X155993714Y-109843580D02*
X156041333Y-109891200D01*
X156041333Y-109891200D02*
X156136571Y-109938819D01*
X156136571Y-109938819D02*
X156327047Y-109938819D01*
X156327047Y-109938819D02*
X156422285Y-109891200D01*
X156422285Y-109891200D02*
X156469904Y-109843580D01*
X156469904Y-109843580D02*
X156517523Y-109748342D01*
X156517523Y-109748342D02*
X156517523Y-108938819D01*
X157517523Y-109938819D02*
X156946095Y-109938819D01*
X157231809Y-109938819D02*
X157231809Y-108938819D01*
X157231809Y-108938819D02*
X157136571Y-109081676D01*
X157136571Y-109081676D02*
X157041333Y-109176914D01*
X157041333Y-109176914D02*
X156946095Y-109224533D01*
X148169523Y-121358819D02*
X147693333Y-121358819D01*
X147693333Y-121358819D02*
X147693333Y-120358819D01*
X148502857Y-121358819D02*
X148502857Y-120358819D01*
X148502857Y-120358819D02*
X148836190Y-121073104D01*
X148836190Y-121073104D02*
X149169523Y-120358819D01*
X149169523Y-120358819D02*
X149169523Y-121358819D01*
X149550476Y-120358819D02*
X150169523Y-120358819D01*
X150169523Y-120358819D02*
X149836190Y-120739771D01*
X149836190Y-120739771D02*
X149979047Y-120739771D01*
X149979047Y-120739771D02*
X150074285Y-120787390D01*
X150074285Y-120787390D02*
X150121904Y-120835009D01*
X150121904Y-120835009D02*
X150169523Y-120930247D01*
X150169523Y-120930247D02*
X150169523Y-121168342D01*
X150169523Y-121168342D02*
X150121904Y-121263580D01*
X150121904Y-121263580D02*
X150074285Y-121311200D01*
X150074285Y-121311200D02*
X149979047Y-121358819D01*
X149979047Y-121358819D02*
X149693333Y-121358819D01*
X149693333Y-121358819D02*
X149598095Y-121311200D01*
X149598095Y-121311200D02*
X149550476Y-121263580D01*
X151074285Y-120358819D02*
X150598095Y-120358819D01*
X150598095Y-120358819D02*
X150550476Y-120835009D01*
X150550476Y-120835009D02*
X150598095Y-120787390D01*
X150598095Y-120787390D02*
X150693333Y-120739771D01*
X150693333Y-120739771D02*
X150931428Y-120739771D01*
X150931428Y-120739771D02*
X151026666Y-120787390D01*
X151026666Y-120787390D02*
X151074285Y-120835009D01*
X151074285Y-120835009D02*
X151121904Y-120930247D01*
X151121904Y-120930247D02*
X151121904Y-121168342D01*
X151121904Y-121168342D02*
X151074285Y-121263580D01*
X151074285Y-121263580D02*
X151026666Y-121311200D01*
X151026666Y-121311200D02*
X150931428Y-121358819D01*
X150931428Y-121358819D02*
X150693333Y-121358819D01*
X150693333Y-121358819D02*
X150598095Y-121311200D01*
X150598095Y-121311200D02*
X150550476Y-121263580D01*
X151693333Y-120787390D02*
X151598095Y-120739771D01*
X151598095Y-120739771D02*
X151550476Y-120692152D01*
X151550476Y-120692152D02*
X151502857Y-120596914D01*
X151502857Y-120596914D02*
X151502857Y-120549295D01*
X151502857Y-120549295D02*
X151550476Y-120454057D01*
X151550476Y-120454057D02*
X151598095Y-120406438D01*
X151598095Y-120406438D02*
X151693333Y-120358819D01*
X151693333Y-120358819D02*
X151883809Y-120358819D01*
X151883809Y-120358819D02*
X151979047Y-120406438D01*
X151979047Y-120406438D02*
X152026666Y-120454057D01*
X152026666Y-120454057D02*
X152074285Y-120549295D01*
X152074285Y-120549295D02*
X152074285Y-120596914D01*
X152074285Y-120596914D02*
X152026666Y-120692152D01*
X152026666Y-120692152D02*
X151979047Y-120739771D01*
X151979047Y-120739771D02*
X151883809Y-120787390D01*
X151883809Y-120787390D02*
X151693333Y-120787390D01*
X151693333Y-120787390D02*
X151598095Y-120835009D01*
X151598095Y-120835009D02*
X151550476Y-120882628D01*
X151550476Y-120882628D02*
X151502857Y-120977866D01*
X151502857Y-120977866D02*
X151502857Y-121168342D01*
X151502857Y-121168342D02*
X151550476Y-121263580D01*
X151550476Y-121263580D02*
X151598095Y-121311200D01*
X151598095Y-121311200D02*
X151693333Y-121358819D01*
X151693333Y-121358819D02*
X151883809Y-121358819D01*
X151883809Y-121358819D02*
X151979047Y-121311200D01*
X151979047Y-121311200D02*
X152026666Y-121263580D01*
X152026666Y-121263580D02*
X152074285Y-121168342D01*
X152074285Y-121168342D02*
X152074285Y-120977866D01*
X152074285Y-120977866D02*
X152026666Y-120882628D01*
X152026666Y-120882628D02*
X151979047Y-120835009D01*
X151979047Y-120835009D02*
X151883809Y-120787390D01*
X163663333Y-109960580D02*
X163615714Y-110008200D01*
X163615714Y-110008200D02*
X163472857Y-110055819D01*
X163472857Y-110055819D02*
X163377619Y-110055819D01*
X163377619Y-110055819D02*
X163234762Y-110008200D01*
X163234762Y-110008200D02*
X163139524Y-109912961D01*
X163139524Y-109912961D02*
X163091905Y-109817723D01*
X163091905Y-109817723D02*
X163044286Y-109627247D01*
X163044286Y-109627247D02*
X163044286Y-109484390D01*
X163044286Y-109484390D02*
X163091905Y-109293914D01*
X163091905Y-109293914D02*
X163139524Y-109198676D01*
X163139524Y-109198676D02*
X163234762Y-109103438D01*
X163234762Y-109103438D02*
X163377619Y-109055819D01*
X163377619Y-109055819D02*
X163472857Y-109055819D01*
X163472857Y-109055819D02*
X163615714Y-109103438D01*
X163615714Y-109103438D02*
X163663333Y-109151057D01*
X163996667Y-109055819D02*
X164615714Y-109055819D01*
X164615714Y-109055819D02*
X164282381Y-109436771D01*
X164282381Y-109436771D02*
X164425238Y-109436771D01*
X164425238Y-109436771D02*
X164520476Y-109484390D01*
X164520476Y-109484390D02*
X164568095Y-109532009D01*
X164568095Y-109532009D02*
X164615714Y-109627247D01*
X164615714Y-109627247D02*
X164615714Y-109865342D01*
X164615714Y-109865342D02*
X164568095Y-109960580D01*
X164568095Y-109960580D02*
X164520476Y-110008200D01*
X164520476Y-110008200D02*
X164425238Y-110055819D01*
X164425238Y-110055819D02*
X164139524Y-110055819D01*
X164139524Y-110055819D02*
X164044286Y-110008200D01*
X164044286Y-110008200D02*
X163996667Y-109960580D01*
X162282380Y-118945819D02*
X161710952Y-118945819D01*
X161996666Y-118945819D02*
X161996666Y-117945819D01*
X161996666Y-117945819D02*
X161901428Y-118088676D01*
X161901428Y-118088676D02*
X161806190Y-118183914D01*
X161806190Y-118183914D02*
X161710952Y-118231533D01*
X162901428Y-117945819D02*
X162996666Y-117945819D01*
X162996666Y-117945819D02*
X163091904Y-117993438D01*
X163091904Y-117993438D02*
X163139523Y-118041057D01*
X163139523Y-118041057D02*
X163187142Y-118136295D01*
X163187142Y-118136295D02*
X163234761Y-118326771D01*
X163234761Y-118326771D02*
X163234761Y-118564866D01*
X163234761Y-118564866D02*
X163187142Y-118755342D01*
X163187142Y-118755342D02*
X163139523Y-118850580D01*
X163139523Y-118850580D02*
X163091904Y-118898200D01*
X163091904Y-118898200D02*
X162996666Y-118945819D01*
X162996666Y-118945819D02*
X162901428Y-118945819D01*
X162901428Y-118945819D02*
X162806190Y-118898200D01*
X162806190Y-118898200D02*
X162758571Y-118850580D01*
X162758571Y-118850580D02*
X162710952Y-118755342D01*
X162710952Y-118755342D02*
X162663333Y-118564866D01*
X162663333Y-118564866D02*
X162663333Y-118326771D01*
X162663333Y-118326771D02*
X162710952Y-118136295D01*
X162710952Y-118136295D02*
X162758571Y-118041057D01*
X162758571Y-118041057D02*
X162806190Y-117993438D01*
X162806190Y-117993438D02*
X162901428Y-117945819D01*
X163853809Y-117945819D02*
X163949047Y-117945819D01*
X163949047Y-117945819D02*
X164044285Y-117993438D01*
X164044285Y-117993438D02*
X164091904Y-118041057D01*
X164091904Y-118041057D02*
X164139523Y-118136295D01*
X164139523Y-118136295D02*
X164187142Y-118326771D01*
X164187142Y-118326771D02*
X164187142Y-118564866D01*
X164187142Y-118564866D02*
X164139523Y-118755342D01*
X164139523Y-118755342D02*
X164091904Y-118850580D01*
X164091904Y-118850580D02*
X164044285Y-118898200D01*
X164044285Y-118898200D02*
X163949047Y-118945819D01*
X163949047Y-118945819D02*
X163853809Y-118945819D01*
X163853809Y-118945819D02*
X163758571Y-118898200D01*
X163758571Y-118898200D02*
X163710952Y-118850580D01*
X163710952Y-118850580D02*
X163663333Y-118755342D01*
X163663333Y-118755342D02*
X163615714Y-118564866D01*
X163615714Y-118564866D02*
X163615714Y-118326771D01*
X163615714Y-118326771D02*
X163663333Y-118136295D01*
X163663333Y-118136295D02*
X163710952Y-118041057D01*
X163710952Y-118041057D02*
X163758571Y-117993438D01*
X163758571Y-117993438D02*
X163853809Y-117945819D01*
X164615714Y-118279152D02*
X164615714Y-118945819D01*
X164615714Y-118374390D02*
X164663333Y-118326771D01*
X164663333Y-118326771D02*
X164758571Y-118279152D01*
X164758571Y-118279152D02*
X164901428Y-118279152D01*
X164901428Y-118279152D02*
X164996666Y-118326771D01*
X164996666Y-118326771D02*
X165044285Y-118422009D01*
X165044285Y-118422009D02*
X165044285Y-118945819D01*
X165853809Y-118422009D02*
X165520476Y-118422009D01*
X165520476Y-118945819D02*
X165520476Y-117945819D01*
X165520476Y-117945819D02*
X165996666Y-117945819D01*
X138199905Y-132026819D02*
X138199905Y-131026819D01*
X138199905Y-131026819D02*
X138438000Y-131026819D01*
X138438000Y-131026819D02*
X138580857Y-131074438D01*
X138580857Y-131074438D02*
X138676095Y-131169676D01*
X138676095Y-131169676D02*
X138723714Y-131264914D01*
X138723714Y-131264914D02*
X138771333Y-131455390D01*
X138771333Y-131455390D02*
X138771333Y-131598247D01*
X138771333Y-131598247D02*
X138723714Y-131788723D01*
X138723714Y-131788723D02*
X138676095Y-131883961D01*
X138676095Y-131883961D02*
X138580857Y-131979200D01*
X138580857Y-131979200D02*
X138438000Y-132026819D01*
X138438000Y-132026819D02*
X138199905Y-132026819D01*
X139152286Y-131122057D02*
X139199905Y-131074438D01*
X139199905Y-131074438D02*
X139295143Y-131026819D01*
X139295143Y-131026819D02*
X139533238Y-131026819D01*
X139533238Y-131026819D02*
X139628476Y-131074438D01*
X139628476Y-131074438D02*
X139676095Y-131122057D01*
X139676095Y-131122057D02*
X139723714Y-131217295D01*
X139723714Y-131217295D02*
X139723714Y-131312533D01*
X139723714Y-131312533D02*
X139676095Y-131455390D01*
X139676095Y-131455390D02*
X139104667Y-132026819D01*
X139104667Y-132026819D02*
X139723714Y-132026819D01*
X137272819Y-127999857D02*
X137272819Y-128571285D01*
X137272819Y-128285571D02*
X136272819Y-128285571D01*
X136272819Y-128285571D02*
X136415676Y-128380809D01*
X136415676Y-128380809D02*
X136510914Y-128476047D01*
X136510914Y-128476047D02*
X136558533Y-128571285D01*
X137272819Y-127571285D02*
X136272819Y-127571285D01*
X136272819Y-127571285D02*
X137272819Y-126999857D01*
X137272819Y-126999857D02*
X136272819Y-126999857D01*
X136606152Y-126095095D02*
X137272819Y-126095095D01*
X136225200Y-126333190D02*
X136939485Y-126571285D01*
X136939485Y-126571285D02*
X136939485Y-125952238D01*
X137272819Y-125047476D02*
X137272819Y-125618904D01*
X137272819Y-125333190D02*
X136272819Y-125333190D01*
X136272819Y-125333190D02*
X136415676Y-125428428D01*
X136415676Y-125428428D02*
X136510914Y-125523666D01*
X136510914Y-125523666D02*
X136558533Y-125618904D01*
X136606152Y-124190333D02*
X137272819Y-124190333D01*
X136225200Y-124428428D02*
X136939485Y-124666523D01*
X136939485Y-124666523D02*
X136939485Y-124047476D01*
X136701390Y-123523666D02*
X136653771Y-123618904D01*
X136653771Y-123618904D02*
X136606152Y-123666523D01*
X136606152Y-123666523D02*
X136510914Y-123714142D01*
X136510914Y-123714142D02*
X136463295Y-123714142D01*
X136463295Y-123714142D02*
X136368057Y-123666523D01*
X136368057Y-123666523D02*
X136320438Y-123618904D01*
X136320438Y-123618904D02*
X136272819Y-123523666D01*
X136272819Y-123523666D02*
X136272819Y-123333190D01*
X136272819Y-123333190D02*
X136320438Y-123237952D01*
X136320438Y-123237952D02*
X136368057Y-123190333D01*
X136368057Y-123190333D02*
X136463295Y-123142714D01*
X136463295Y-123142714D02*
X136510914Y-123142714D01*
X136510914Y-123142714D02*
X136606152Y-123190333D01*
X136606152Y-123190333D02*
X136653771Y-123237952D01*
X136653771Y-123237952D02*
X136701390Y-123333190D01*
X136701390Y-123333190D02*
X136701390Y-123523666D01*
X136701390Y-123523666D02*
X136749009Y-123618904D01*
X136749009Y-123618904D02*
X136796628Y-123666523D01*
X136796628Y-123666523D02*
X136891866Y-123714142D01*
X136891866Y-123714142D02*
X137082342Y-123714142D01*
X137082342Y-123714142D02*
X137177580Y-123666523D01*
X137177580Y-123666523D02*
X137225200Y-123618904D01*
X137225200Y-123618904D02*
X137272819Y-123523666D01*
X137272819Y-123523666D02*
X137272819Y-123333190D01*
X137272819Y-123333190D02*
X137225200Y-123237952D01*
X137225200Y-123237952D02*
X137177580Y-123190333D01*
X137177580Y-123190333D02*
X137082342Y-123142714D01*
X137082342Y-123142714D02*
X136891866Y-123142714D01*
X136891866Y-123142714D02*
X136796628Y-123190333D01*
X136796628Y-123190333D02*
X136749009Y-123237952D01*
X136749009Y-123237952D02*
X136701390Y-123333190D01*
X145200333Y-109928819D02*
X144867000Y-109452628D01*
X144628905Y-109928819D02*
X144628905Y-108928819D01*
X144628905Y-108928819D02*
X145009857Y-108928819D01*
X145009857Y-108928819D02*
X145105095Y-108976438D01*
X145105095Y-108976438D02*
X145152714Y-109024057D01*
X145152714Y-109024057D02*
X145200333Y-109119295D01*
X145200333Y-109119295D02*
X145200333Y-109262152D01*
X145200333Y-109262152D02*
X145152714Y-109357390D01*
X145152714Y-109357390D02*
X145105095Y-109405009D01*
X145105095Y-109405009D02*
X145009857Y-109452628D01*
X145009857Y-109452628D02*
X144628905Y-109452628D01*
X145533667Y-108928819D02*
X146152714Y-108928819D01*
X146152714Y-108928819D02*
X145819381Y-109309771D01*
X145819381Y-109309771D02*
X145962238Y-109309771D01*
X145962238Y-109309771D02*
X146057476Y-109357390D01*
X146057476Y-109357390D02*
X146105095Y-109405009D01*
X146105095Y-109405009D02*
X146152714Y-109500247D01*
X146152714Y-109500247D02*
X146152714Y-109738342D01*
X146152714Y-109738342D02*
X146105095Y-109833580D01*
X146105095Y-109833580D02*
X146057476Y-109881200D01*
X146057476Y-109881200D02*
X145962238Y-109928819D01*
X145962238Y-109928819D02*
X145676524Y-109928819D01*
X145676524Y-109928819D02*
X145581286Y-109881200D01*
X145581286Y-109881200D02*
X145533667Y-109833580D01*
X145821819Y-115784238D02*
X145821819Y-116355666D01*
X145821819Y-116069952D02*
X144821819Y-116069952D01*
X144821819Y-116069952D02*
X144964676Y-116165190D01*
X144964676Y-116165190D02*
X145059914Y-116260428D01*
X145059914Y-116260428D02*
X145107533Y-116355666D01*
X144821819Y-115165190D02*
X144821819Y-115069952D01*
X144821819Y-115069952D02*
X144869438Y-114974714D01*
X144869438Y-114974714D02*
X144917057Y-114927095D01*
X144917057Y-114927095D02*
X145012295Y-114879476D01*
X145012295Y-114879476D02*
X145202771Y-114831857D01*
X145202771Y-114831857D02*
X145440866Y-114831857D01*
X145440866Y-114831857D02*
X145631342Y-114879476D01*
X145631342Y-114879476D02*
X145726580Y-114927095D01*
X145726580Y-114927095D02*
X145774200Y-114974714D01*
X145774200Y-114974714D02*
X145821819Y-115069952D01*
X145821819Y-115069952D02*
X145821819Y-115165190D01*
X145821819Y-115165190D02*
X145774200Y-115260428D01*
X145774200Y-115260428D02*
X145726580Y-115308047D01*
X145726580Y-115308047D02*
X145631342Y-115355666D01*
X145631342Y-115355666D02*
X145440866Y-115403285D01*
X145440866Y-115403285D02*
X145202771Y-115403285D01*
X145202771Y-115403285D02*
X145012295Y-115355666D01*
X145012295Y-115355666D02*
X144917057Y-115308047D01*
X144917057Y-115308047D02*
X144869438Y-115260428D01*
X144869438Y-115260428D02*
X144821819Y-115165190D01*
X145821819Y-114403285D02*
X144821819Y-114403285D01*
X145440866Y-114308047D02*
X145821819Y-114022333D01*
X145155152Y-114022333D02*
X145536104Y-114403285D01*
X140739905Y-132026819D02*
X140739905Y-131026819D01*
X140739905Y-131026819D02*
X140978000Y-131026819D01*
X140978000Y-131026819D02*
X141120857Y-131074438D01*
X141120857Y-131074438D02*
X141216095Y-131169676D01*
X141216095Y-131169676D02*
X141263714Y-131264914D01*
X141263714Y-131264914D02*
X141311333Y-131455390D01*
X141311333Y-131455390D02*
X141311333Y-131598247D01*
X141311333Y-131598247D02*
X141263714Y-131788723D01*
X141263714Y-131788723D02*
X141216095Y-131883961D01*
X141216095Y-131883961D02*
X141120857Y-131979200D01*
X141120857Y-131979200D02*
X140978000Y-132026819D01*
X140978000Y-132026819D02*
X140739905Y-132026819D01*
X142263714Y-132026819D02*
X141692286Y-132026819D01*
X141978000Y-132026819D02*
X141978000Y-131026819D01*
X141978000Y-131026819D02*
X141882762Y-131169676D01*
X141882762Y-131169676D02*
X141787524Y-131264914D01*
X141787524Y-131264914D02*
X141692286Y-131312533D01*
X144496333Y-132016819D02*
X144163000Y-131540628D01*
X143924905Y-132016819D02*
X143924905Y-131016819D01*
X143924905Y-131016819D02*
X144305857Y-131016819D01*
X144305857Y-131016819D02*
X144401095Y-131064438D01*
X144401095Y-131064438D02*
X144448714Y-131112057D01*
X144448714Y-131112057D02*
X144496333Y-131207295D01*
X144496333Y-131207295D02*
X144496333Y-131350152D01*
X144496333Y-131350152D02*
X144448714Y-131445390D01*
X144448714Y-131445390D02*
X144401095Y-131493009D01*
X144401095Y-131493009D02*
X144305857Y-131540628D01*
X144305857Y-131540628D02*
X143924905Y-131540628D01*
X145401095Y-131016819D02*
X144924905Y-131016819D01*
X144924905Y-131016819D02*
X144877286Y-131493009D01*
X144877286Y-131493009D02*
X144924905Y-131445390D01*
X144924905Y-131445390D02*
X145020143Y-131397771D01*
X145020143Y-131397771D02*
X145258238Y-131397771D01*
X145258238Y-131397771D02*
X145353476Y-131445390D01*
X145353476Y-131445390D02*
X145401095Y-131493009D01*
X145401095Y-131493009D02*
X145448714Y-131588247D01*
X145448714Y-131588247D02*
X145448714Y-131826342D01*
X145448714Y-131826342D02*
X145401095Y-131921580D01*
X145401095Y-131921580D02*
X145353476Y-131969200D01*
X145353476Y-131969200D02*
X145258238Y-132016819D01*
X145258238Y-132016819D02*
X145020143Y-132016819D01*
X145020143Y-132016819D02*
X144924905Y-131969200D01*
X144924905Y-131969200D02*
X144877286Y-131921580D01*
X145117819Y-125966047D02*
X145117819Y-126537475D01*
X145117819Y-126251761D02*
X144117819Y-126251761D01*
X144117819Y-126251761D02*
X144260676Y-126346999D01*
X144260676Y-126346999D02*
X144355914Y-126442237D01*
X144355914Y-126442237D02*
X144403533Y-126537475D01*
X145117819Y-125537475D02*
X144117819Y-125537475D01*
X144736866Y-125442237D02*
X145117819Y-125156523D01*
X144451152Y-125156523D02*
X144832104Y-125537475D01*
X139025333Y-109928819D02*
X138692000Y-109452628D01*
X138453905Y-109928819D02*
X138453905Y-108928819D01*
X138453905Y-108928819D02*
X138834857Y-108928819D01*
X138834857Y-108928819D02*
X138930095Y-108976438D01*
X138930095Y-108976438D02*
X138977714Y-109024057D01*
X138977714Y-109024057D02*
X139025333Y-109119295D01*
X139025333Y-109119295D02*
X139025333Y-109262152D01*
X139025333Y-109262152D02*
X138977714Y-109357390D01*
X138977714Y-109357390D02*
X138930095Y-109405009D01*
X138930095Y-109405009D02*
X138834857Y-109452628D01*
X138834857Y-109452628D02*
X138453905Y-109452628D01*
X139977714Y-109928819D02*
X139406286Y-109928819D01*
X139692000Y-109928819D02*
X139692000Y-108928819D01*
X139692000Y-108928819D02*
X139596762Y-109071676D01*
X139596762Y-109071676D02*
X139501524Y-109166914D01*
X139501524Y-109166914D02*
X139406286Y-109214533D01*
X139646819Y-115474714D02*
X139646819Y-116046142D01*
X139646819Y-115760428D02*
X138646819Y-115760428D01*
X138646819Y-115760428D02*
X138789676Y-115855666D01*
X138789676Y-115855666D02*
X138884914Y-115950904D01*
X138884914Y-115950904D02*
X138932533Y-116046142D01*
X139646819Y-115046142D02*
X138646819Y-115046142D01*
X138646819Y-115046142D02*
X139361104Y-114712809D01*
X139361104Y-114712809D02*
X138646819Y-114379476D01*
X138646819Y-114379476D02*
X139646819Y-114379476D01*
D12*
X155257667Y-122456800D02*
X155400524Y-122504419D01*
X155400524Y-122504419D02*
X155638619Y-122504419D01*
X155638619Y-122504419D02*
X155733857Y-122456800D01*
X155733857Y-122456800D02*
X155781476Y-122409180D01*
X155781476Y-122409180D02*
X155829095Y-122313942D01*
X155829095Y-122313942D02*
X155829095Y-122218704D01*
X155829095Y-122218704D02*
X155781476Y-122123466D01*
X155781476Y-122123466D02*
X155733857Y-122075847D01*
X155733857Y-122075847D02*
X155638619Y-122028228D01*
X155638619Y-122028228D02*
X155448143Y-121980609D01*
X155448143Y-121980609D02*
X155352905Y-121932990D01*
X155352905Y-121932990D02*
X155305286Y-121885371D01*
X155305286Y-121885371D02*
X155257667Y-121790133D01*
X155257667Y-121790133D02*
X155257667Y-121694895D01*
X155257667Y-121694895D02*
X155305286Y-121599657D01*
X155305286Y-121599657D02*
X155352905Y-121552038D01*
X155352905Y-121552038D02*
X155448143Y-121504419D01*
X155448143Y-121504419D02*
X155686238Y-121504419D01*
X155686238Y-121504419D02*
X155829095Y-121552038D01*
X156162429Y-121504419D02*
X156400524Y-122504419D01*
X156400524Y-122504419D02*
X156591000Y-121790133D01*
X156591000Y-121790133D02*
X156781476Y-122504419D01*
X156781476Y-122504419D02*
X157019572Y-121504419D01*
X157924333Y-122504419D02*
X157352905Y-122504419D01*
X157638619Y-122504419D02*
X157638619Y-121504419D01*
X157638619Y-121504419D02*
X157543381Y-121647276D01*
X157543381Y-121647276D02*
X157448143Y-121742514D01*
X157448143Y-121742514D02*
X157352905Y-121790133D01*
D10*
X167714705Y-131874419D02*
X167714705Y-130874419D01*
X167714705Y-130874419D02*
X167952800Y-130874419D01*
X167952800Y-130874419D02*
X168095657Y-130922038D01*
X168095657Y-130922038D02*
X168190895Y-131017276D01*
X168190895Y-131017276D02*
X168238514Y-131112514D01*
X168238514Y-131112514D02*
X168286133Y-131302990D01*
X168286133Y-131302990D02*
X168286133Y-131445847D01*
X168286133Y-131445847D02*
X168238514Y-131636323D01*
X168238514Y-131636323D02*
X168190895Y-131731561D01*
X168190895Y-131731561D02*
X168095657Y-131826800D01*
X168095657Y-131826800D02*
X167952800Y-131874419D01*
X167952800Y-131874419D02*
X167714705Y-131874419D01*
X168619467Y-130874419D02*
X169238514Y-130874419D01*
X169238514Y-130874419D02*
X168905181Y-131255371D01*
X168905181Y-131255371D02*
X169048038Y-131255371D01*
X169048038Y-131255371D02*
X169143276Y-131302990D01*
X169143276Y-131302990D02*
X169190895Y-131350609D01*
X169190895Y-131350609D02*
X169238514Y-131445847D01*
X169238514Y-131445847D02*
X169238514Y-131683942D01*
X169238514Y-131683942D02*
X169190895Y-131779180D01*
X169190895Y-131779180D02*
X169143276Y-131826800D01*
X169143276Y-131826800D02*
X169048038Y-131874419D01*
X169048038Y-131874419D02*
X168762324Y-131874419D01*
X168762324Y-131874419D02*
X168667086Y-131826800D01*
X168667086Y-131826800D02*
X168619467Y-131779180D01*
X179449580Y-114339666D02*
X179497200Y-114387285D01*
X179497200Y-114387285D02*
X179544819Y-114530142D01*
X179544819Y-114530142D02*
X179544819Y-114625380D01*
X179544819Y-114625380D02*
X179497200Y-114768237D01*
X179497200Y-114768237D02*
X179401961Y-114863475D01*
X179401961Y-114863475D02*
X179306723Y-114911094D01*
X179306723Y-114911094D02*
X179116247Y-114958713D01*
X179116247Y-114958713D02*
X178973390Y-114958713D01*
X178973390Y-114958713D02*
X178782914Y-114911094D01*
X178782914Y-114911094D02*
X178687676Y-114863475D01*
X178687676Y-114863475D02*
X178592438Y-114768237D01*
X178592438Y-114768237D02*
X178544819Y-114625380D01*
X178544819Y-114625380D02*
X178544819Y-114530142D01*
X178544819Y-114530142D02*
X178592438Y-114387285D01*
X178592438Y-114387285D02*
X178640057Y-114339666D01*
X178640057Y-113958713D02*
X178592438Y-113911094D01*
X178592438Y-113911094D02*
X178544819Y-113815856D01*
X178544819Y-113815856D02*
X178544819Y-113577761D01*
X178544819Y-113577761D02*
X178592438Y-113482523D01*
X178592438Y-113482523D02*
X178640057Y-113434904D01*
X178640057Y-113434904D02*
X178735295Y-113387285D01*
X178735295Y-113387285D02*
X178830533Y-113387285D01*
X178830533Y-113387285D02*
X178973390Y-113434904D01*
X178973390Y-113434904D02*
X179544819Y-114006332D01*
X179544819Y-114006332D02*
X179544819Y-113387285D01*
X174410761Y-118564819D02*
X173839333Y-118564819D01*
X174125047Y-118564819D02*
X174125047Y-117564819D01*
X174125047Y-117564819D02*
X174029809Y-117707676D01*
X174029809Y-117707676D02*
X173934571Y-117802914D01*
X173934571Y-117802914D02*
X173839333Y-117850533D01*
X175267904Y-117898152D02*
X175267904Y-118564819D01*
X174839333Y-117898152D02*
X174839333Y-118421961D01*
X174839333Y-118421961D02*
X174886952Y-118517200D01*
X174886952Y-118517200D02*
X174982190Y-118564819D01*
X174982190Y-118564819D02*
X175125047Y-118564819D01*
X175125047Y-118564819D02*
X175220285Y-118517200D01*
X175220285Y-118517200D02*
X175267904Y-118469580D01*
X176077428Y-118041009D02*
X175744095Y-118041009D01*
X175744095Y-118564819D02*
X175744095Y-117564819D01*
X175744095Y-117564819D02*
X176220285Y-117564819D01*
X177458019Y-105489333D02*
X178172304Y-105489333D01*
X178172304Y-105489333D02*
X178315161Y-105536952D01*
X178315161Y-105536952D02*
X178410400Y-105632190D01*
X178410400Y-105632190D02*
X178458019Y-105775047D01*
X178458019Y-105775047D02*
X178458019Y-105870285D01*
X178458019Y-104489333D02*
X178458019Y-105060761D01*
X178458019Y-104775047D02*
X177458019Y-104775047D01*
X177458019Y-104775047D02*
X177600876Y-104870285D01*
X177600876Y-104870285D02*
X177696114Y-104965523D01*
X177696114Y-104965523D02*
X177743733Y-105060761D01*
X170426476Y-103324819D02*
X170426476Y-102324819D01*
X170902666Y-102658152D02*
X170902666Y-103324819D01*
X170902666Y-102753390D02*
X170950285Y-102705771D01*
X170950285Y-102705771D02*
X171045523Y-102658152D01*
X171045523Y-102658152D02*
X171188380Y-102658152D01*
X171188380Y-102658152D02*
X171283618Y-102705771D01*
X171283618Y-102705771D02*
X171331237Y-102801009D01*
X171331237Y-102801009D02*
X171331237Y-103324819D01*
X171807428Y-102658152D02*
X171807428Y-103658152D01*
X171807428Y-102705771D02*
X171902666Y-102658152D01*
X171902666Y-102658152D02*
X172093142Y-102658152D01*
X172093142Y-102658152D02*
X172188380Y-102705771D01*
X172188380Y-102705771D02*
X172235999Y-102753390D01*
X172235999Y-102753390D02*
X172283618Y-102848628D01*
X172283618Y-102848628D02*
X172283618Y-103134342D01*
X172283618Y-103134342D02*
X172235999Y-103229580D01*
X172235999Y-103229580D02*
X172188380Y-103277200D01*
X172188380Y-103277200D02*
X172093142Y-103324819D01*
X172093142Y-103324819D02*
X171902666Y-103324819D01*
X171902666Y-103324819D02*
X171807428Y-103277200D01*
X173140761Y-102658152D02*
X173140761Y-103324819D01*
X172712190Y-102658152D02*
X172712190Y-103181961D01*
X172712190Y-103181961D02*
X172759809Y-103277200D01*
X172759809Y-103277200D02*
X172855047Y-103324819D01*
X172855047Y-103324819D02*
X172997904Y-103324819D01*
X172997904Y-103324819D02*
X173093142Y-103277200D01*
X173093142Y-103277200D02*
X173140761Y-103229580D01*
X173474095Y-102658152D02*
X173855047Y-102658152D01*
X173616952Y-102324819D02*
X173616952Y-103181961D01*
X173616952Y-103181961D02*
X173664571Y-103277200D01*
X173664571Y-103277200D02*
X173759809Y-103324819D01*
X173759809Y-103324819D02*
X173855047Y-103324819D01*
X174474095Y-102324819D02*
X174474095Y-103039104D01*
X174474095Y-103039104D02*
X174426476Y-103181961D01*
X174426476Y-103181961D02*
X174331238Y-103277200D01*
X174331238Y-103277200D02*
X174188381Y-103324819D01*
X174188381Y-103324819D02*
X174093143Y-103324819D01*
X175378857Y-103324819D02*
X175378857Y-102801009D01*
X175378857Y-102801009D02*
X175331238Y-102705771D01*
X175331238Y-102705771D02*
X175236000Y-102658152D01*
X175236000Y-102658152D02*
X175045524Y-102658152D01*
X175045524Y-102658152D02*
X174950286Y-102705771D01*
X175378857Y-103277200D02*
X175283619Y-103324819D01*
X175283619Y-103324819D02*
X175045524Y-103324819D01*
X175045524Y-103324819D02*
X174950286Y-103277200D01*
X174950286Y-103277200D02*
X174902667Y-103181961D01*
X174902667Y-103181961D02*
X174902667Y-103086723D01*
X174902667Y-103086723D02*
X174950286Y-102991485D01*
X174950286Y-102991485D02*
X175045524Y-102943866D01*
X175045524Y-102943866D02*
X175283619Y-102943866D01*
X175283619Y-102943866D02*
X175378857Y-102896247D01*
X176283619Y-103277200D02*
X176188381Y-103324819D01*
X176188381Y-103324819D02*
X175997905Y-103324819D01*
X175997905Y-103324819D02*
X175902667Y-103277200D01*
X175902667Y-103277200D02*
X175855048Y-103229580D01*
X175855048Y-103229580D02*
X175807429Y-103134342D01*
X175807429Y-103134342D02*
X175807429Y-102848628D01*
X175807429Y-102848628D02*
X175855048Y-102753390D01*
X175855048Y-102753390D02*
X175902667Y-102705771D01*
X175902667Y-102705771D02*
X175997905Y-102658152D01*
X175997905Y-102658152D02*
X176188381Y-102658152D01*
X176188381Y-102658152D02*
X176283619Y-102705771D01*
X176712191Y-103324819D02*
X176712191Y-102324819D01*
X176807429Y-102943866D02*
X177093143Y-103324819D01*
X177093143Y-102658152D02*
X176712191Y-103039104D01*
X163806285Y-102837009D02*
X163949142Y-102884628D01*
X163949142Y-102884628D02*
X163996761Y-102932247D01*
X163996761Y-102932247D02*
X164044380Y-103027485D01*
X164044380Y-103027485D02*
X164044380Y-103170342D01*
X164044380Y-103170342D02*
X163996761Y-103265580D01*
X163996761Y-103265580D02*
X163949142Y-103313200D01*
X163949142Y-103313200D02*
X163853904Y-103360819D01*
X163853904Y-103360819D02*
X163472952Y-103360819D01*
X163472952Y-103360819D02*
X163472952Y-102360819D01*
X163472952Y-102360819D02*
X163806285Y-102360819D01*
X163806285Y-102360819D02*
X163901523Y-102408438D01*
X163901523Y-102408438D02*
X163949142Y-102456057D01*
X163949142Y-102456057D02*
X163996761Y-102551295D01*
X163996761Y-102551295D02*
X163996761Y-102646533D01*
X163996761Y-102646533D02*
X163949142Y-102741771D01*
X163949142Y-102741771D02*
X163901523Y-102789390D01*
X163901523Y-102789390D02*
X163806285Y-102837009D01*
X163806285Y-102837009D02*
X163472952Y-102837009D01*
X164330095Y-102360819D02*
X164901523Y-102360819D01*
X164615809Y-103360819D02*
X164615809Y-102360819D01*
X165758666Y-103360819D02*
X165187238Y-103360819D01*
X165472952Y-103360819D02*
X165472952Y-102360819D01*
X165472952Y-102360819D02*
X165377714Y-102503676D01*
X165377714Y-102503676D02*
X165282476Y-102598914D01*
X165282476Y-102598914D02*
X165187238Y-102646533D01*
X136970419Y-105387733D02*
X137684704Y-105387733D01*
X137684704Y-105387733D02*
X137827561Y-105435352D01*
X137827561Y-105435352D02*
X137922800Y-105530590D01*
X137922800Y-105530590D02*
X137970419Y-105673447D01*
X137970419Y-105673447D02*
X137970419Y-105768685D01*
X137065657Y-104959161D02*
X137018038Y-104911542D01*
X137018038Y-104911542D02*
X136970419Y-104816304D01*
X136970419Y-104816304D02*
X136970419Y-104578209D01*
X136970419Y-104578209D02*
X137018038Y-104482971D01*
X137018038Y-104482971D02*
X137065657Y-104435352D01*
X137065657Y-104435352D02*
X137160895Y-104387733D01*
X137160895Y-104387733D02*
X137256133Y-104387733D01*
X137256133Y-104387733D02*
X137398990Y-104435352D01*
X137398990Y-104435352D02*
X137970419Y-105006780D01*
X137970419Y-105006780D02*
X137970419Y-104387733D01*
X138013523Y-102324819D02*
X138203999Y-102324819D01*
X138203999Y-102324819D02*
X138299237Y-102372438D01*
X138299237Y-102372438D02*
X138394475Y-102467676D01*
X138394475Y-102467676D02*
X138442094Y-102658152D01*
X138442094Y-102658152D02*
X138442094Y-102991485D01*
X138442094Y-102991485D02*
X138394475Y-103181961D01*
X138394475Y-103181961D02*
X138299237Y-103277200D01*
X138299237Y-103277200D02*
X138203999Y-103324819D01*
X138203999Y-103324819D02*
X138013523Y-103324819D01*
X138013523Y-103324819D02*
X137918285Y-103277200D01*
X137918285Y-103277200D02*
X137823047Y-103181961D01*
X137823047Y-103181961D02*
X137775428Y-102991485D01*
X137775428Y-102991485D02*
X137775428Y-102658152D01*
X137775428Y-102658152D02*
X137823047Y-102467676D01*
X137823047Y-102467676D02*
X137918285Y-102372438D01*
X137918285Y-102372438D02*
X138013523Y-102324819D01*
X139299237Y-102658152D02*
X139299237Y-103324819D01*
X138870666Y-102658152D02*
X138870666Y-103181961D01*
X138870666Y-103181961D02*
X138918285Y-103277200D01*
X138918285Y-103277200D02*
X139013523Y-103324819D01*
X139013523Y-103324819D02*
X139156380Y-103324819D01*
X139156380Y-103324819D02*
X139251618Y-103277200D01*
X139251618Y-103277200D02*
X139299237Y-103229580D01*
X139632571Y-102658152D02*
X140013523Y-102658152D01*
X139775428Y-102324819D02*
X139775428Y-103181961D01*
X139775428Y-103181961D02*
X139823047Y-103277200D01*
X139823047Y-103277200D02*
X139918285Y-103324819D01*
X139918285Y-103324819D02*
X140013523Y-103324819D01*
X140346857Y-102658152D02*
X140346857Y-103658152D01*
X140346857Y-102705771D02*
X140442095Y-102658152D01*
X140442095Y-102658152D02*
X140632571Y-102658152D01*
X140632571Y-102658152D02*
X140727809Y-102705771D01*
X140727809Y-102705771D02*
X140775428Y-102753390D01*
X140775428Y-102753390D02*
X140823047Y-102848628D01*
X140823047Y-102848628D02*
X140823047Y-103134342D01*
X140823047Y-103134342D02*
X140775428Y-103229580D01*
X140775428Y-103229580D02*
X140727809Y-103277200D01*
X140727809Y-103277200D02*
X140632571Y-103324819D01*
X140632571Y-103324819D02*
X140442095Y-103324819D01*
X140442095Y-103324819D02*
X140346857Y-103277200D01*
X141680190Y-102658152D02*
X141680190Y-103324819D01*
X141251619Y-102658152D02*
X141251619Y-103181961D01*
X141251619Y-103181961D02*
X141299238Y-103277200D01*
X141299238Y-103277200D02*
X141394476Y-103324819D01*
X141394476Y-103324819D02*
X141537333Y-103324819D01*
X141537333Y-103324819D02*
X141632571Y-103277200D01*
X141632571Y-103277200D02*
X141680190Y-103229580D01*
X142013524Y-102658152D02*
X142394476Y-102658152D01*
X142156381Y-102324819D02*
X142156381Y-103181961D01*
X142156381Y-103181961D02*
X142204000Y-103277200D01*
X142204000Y-103277200D02*
X142299238Y-103324819D01*
X142299238Y-103324819D02*
X142394476Y-103324819D01*
X143013524Y-102324819D02*
X143013524Y-103039104D01*
X143013524Y-103039104D02*
X142965905Y-103181961D01*
X142965905Y-103181961D02*
X142870667Y-103277200D01*
X142870667Y-103277200D02*
X142727810Y-103324819D01*
X142727810Y-103324819D02*
X142632572Y-103324819D01*
X143918286Y-103324819D02*
X143918286Y-102801009D01*
X143918286Y-102801009D02*
X143870667Y-102705771D01*
X143870667Y-102705771D02*
X143775429Y-102658152D01*
X143775429Y-102658152D02*
X143584953Y-102658152D01*
X143584953Y-102658152D02*
X143489715Y-102705771D01*
X143918286Y-103277200D02*
X143823048Y-103324819D01*
X143823048Y-103324819D02*
X143584953Y-103324819D01*
X143584953Y-103324819D02*
X143489715Y-103277200D01*
X143489715Y-103277200D02*
X143442096Y-103181961D01*
X143442096Y-103181961D02*
X143442096Y-103086723D01*
X143442096Y-103086723D02*
X143489715Y-102991485D01*
X143489715Y-102991485D02*
X143584953Y-102943866D01*
X143584953Y-102943866D02*
X143823048Y-102943866D01*
X143823048Y-102943866D02*
X143918286Y-102896247D01*
X144823048Y-103277200D02*
X144727810Y-103324819D01*
X144727810Y-103324819D02*
X144537334Y-103324819D01*
X144537334Y-103324819D02*
X144442096Y-103277200D01*
X144442096Y-103277200D02*
X144394477Y-103229580D01*
X144394477Y-103229580D02*
X144346858Y-103134342D01*
X144346858Y-103134342D02*
X144346858Y-102848628D01*
X144346858Y-102848628D02*
X144394477Y-102753390D01*
X144394477Y-102753390D02*
X144442096Y-102705771D01*
X144442096Y-102705771D02*
X144537334Y-102658152D01*
X144537334Y-102658152D02*
X144727810Y-102658152D01*
X144727810Y-102658152D02*
X144823048Y-102705771D01*
X145251620Y-103324819D02*
X145251620Y-102324819D01*
X145346858Y-102943866D02*
X145632572Y-103324819D01*
X145632572Y-102658152D02*
X145251620Y-103039104D01*
X142025333Y-109928819D02*
X141692000Y-109452628D01*
X141453905Y-109928819D02*
X141453905Y-108928819D01*
X141453905Y-108928819D02*
X141834857Y-108928819D01*
X141834857Y-108928819D02*
X141930095Y-108976438D01*
X141930095Y-108976438D02*
X141977714Y-109024057D01*
X141977714Y-109024057D02*
X142025333Y-109119295D01*
X142025333Y-109119295D02*
X142025333Y-109262152D01*
X142025333Y-109262152D02*
X141977714Y-109357390D01*
X141977714Y-109357390D02*
X141930095Y-109405009D01*
X141930095Y-109405009D02*
X141834857Y-109452628D01*
X141834857Y-109452628D02*
X141453905Y-109452628D01*
X142406286Y-109024057D02*
X142453905Y-108976438D01*
X142453905Y-108976438D02*
X142549143Y-108928819D01*
X142549143Y-108928819D02*
X142787238Y-108928819D01*
X142787238Y-108928819D02*
X142882476Y-108976438D01*
X142882476Y-108976438D02*
X142930095Y-109024057D01*
X142930095Y-109024057D02*
X142977714Y-109119295D01*
X142977714Y-109119295D02*
X142977714Y-109214533D01*
X142977714Y-109214533D02*
X142930095Y-109357390D01*
X142930095Y-109357390D02*
X142358667Y-109928819D01*
X142358667Y-109928819D02*
X142977714Y-109928819D01*
X142646819Y-115784238D02*
X142646819Y-116355666D01*
X142646819Y-116069952D02*
X141646819Y-116069952D01*
X141646819Y-116069952D02*
X141789676Y-116165190D01*
X141789676Y-116165190D02*
X141884914Y-116260428D01*
X141884914Y-116260428D02*
X141932533Y-116355666D01*
X141646819Y-115165190D02*
X141646819Y-115069952D01*
X141646819Y-115069952D02*
X141694438Y-114974714D01*
X141694438Y-114974714D02*
X141742057Y-114927095D01*
X141742057Y-114927095D02*
X141837295Y-114879476D01*
X141837295Y-114879476D02*
X142027771Y-114831857D01*
X142027771Y-114831857D02*
X142265866Y-114831857D01*
X142265866Y-114831857D02*
X142456342Y-114879476D01*
X142456342Y-114879476D02*
X142551580Y-114927095D01*
X142551580Y-114927095D02*
X142599200Y-114974714D01*
X142599200Y-114974714D02*
X142646819Y-115069952D01*
X142646819Y-115069952D02*
X142646819Y-115165190D01*
X142646819Y-115165190D02*
X142599200Y-115260428D01*
X142599200Y-115260428D02*
X142551580Y-115308047D01*
X142551580Y-115308047D02*
X142456342Y-115355666D01*
X142456342Y-115355666D02*
X142265866Y-115403285D01*
X142265866Y-115403285D02*
X142027771Y-115403285D01*
X142027771Y-115403285D02*
X141837295Y-115355666D01*
X141837295Y-115355666D02*
X141742057Y-115308047D01*
X141742057Y-115308047D02*
X141694438Y-115260428D01*
X141694438Y-115260428D02*
X141646819Y-115165190D01*
X142646819Y-114403285D02*
X141646819Y-114403285D01*
X142265866Y-114308047D02*
X142646819Y-114022333D01*
X141980152Y-114022333D02*
X142361104Y-114403285D01*
X168108333Y-109960580D02*
X168060714Y-110008200D01*
X168060714Y-110008200D02*
X167917857Y-110055819D01*
X167917857Y-110055819D02*
X167822619Y-110055819D01*
X167822619Y-110055819D02*
X167679762Y-110008200D01*
X167679762Y-110008200D02*
X167584524Y-109912961D01*
X167584524Y-109912961D02*
X167536905Y-109817723D01*
X167536905Y-109817723D02*
X167489286Y-109627247D01*
X167489286Y-109627247D02*
X167489286Y-109484390D01*
X167489286Y-109484390D02*
X167536905Y-109293914D01*
X167536905Y-109293914D02*
X167584524Y-109198676D01*
X167584524Y-109198676D02*
X167679762Y-109103438D01*
X167679762Y-109103438D02*
X167822619Y-109055819D01*
X167822619Y-109055819D02*
X167917857Y-109055819D01*
X167917857Y-109055819D02*
X168060714Y-109103438D01*
X168060714Y-109103438D02*
X168108333Y-109151057D01*
X169060714Y-110055819D02*
X168489286Y-110055819D01*
X168775000Y-110055819D02*
X168775000Y-109055819D01*
X168775000Y-109055819D02*
X168679762Y-109198676D01*
X168679762Y-109198676D02*
X168584524Y-109293914D01*
X168584524Y-109293914D02*
X168489286Y-109341533D01*
X167203571Y-118945819D02*
X166632143Y-118945819D01*
X166917857Y-118945819D02*
X166917857Y-117945819D01*
X166917857Y-117945819D02*
X166822619Y-118088676D01*
X166822619Y-118088676D02*
X166727381Y-118183914D01*
X166727381Y-118183914D02*
X166632143Y-118231533D01*
X167822619Y-117945819D02*
X167917857Y-117945819D01*
X167917857Y-117945819D02*
X168013095Y-117993438D01*
X168013095Y-117993438D02*
X168060714Y-118041057D01*
X168060714Y-118041057D02*
X168108333Y-118136295D01*
X168108333Y-118136295D02*
X168155952Y-118326771D01*
X168155952Y-118326771D02*
X168155952Y-118564866D01*
X168155952Y-118564866D02*
X168108333Y-118755342D01*
X168108333Y-118755342D02*
X168060714Y-118850580D01*
X168060714Y-118850580D02*
X168013095Y-118898200D01*
X168013095Y-118898200D02*
X167917857Y-118945819D01*
X167917857Y-118945819D02*
X167822619Y-118945819D01*
X167822619Y-118945819D02*
X167727381Y-118898200D01*
X167727381Y-118898200D02*
X167679762Y-118850580D01*
X167679762Y-118850580D02*
X167632143Y-118755342D01*
X167632143Y-118755342D02*
X167584524Y-118564866D01*
X167584524Y-118564866D02*
X167584524Y-118326771D01*
X167584524Y-118326771D02*
X167632143Y-118136295D01*
X167632143Y-118136295D02*
X167679762Y-118041057D01*
X167679762Y-118041057D02*
X167727381Y-117993438D01*
X167727381Y-117993438D02*
X167822619Y-117945819D01*
X168584524Y-118279152D02*
X168584524Y-118945819D01*
X168584524Y-118374390D02*
X168632143Y-118326771D01*
X168632143Y-118326771D02*
X168727381Y-118279152D01*
X168727381Y-118279152D02*
X168870238Y-118279152D01*
X168870238Y-118279152D02*
X168965476Y-118326771D01*
X168965476Y-118326771D02*
X169013095Y-118422009D01*
X169013095Y-118422009D02*
X169013095Y-118945819D01*
X169822619Y-118422009D02*
X169489286Y-118422009D01*
X169489286Y-118945819D02*
X169489286Y-117945819D01*
X169489286Y-117945819D02*
X169965476Y-117945819D01*
X159853333Y-109928819D02*
X159520000Y-109452628D01*
X159281905Y-109928819D02*
X159281905Y-108928819D01*
X159281905Y-108928819D02*
X159662857Y-108928819D01*
X159662857Y-108928819D02*
X159758095Y-108976438D01*
X159758095Y-108976438D02*
X159805714Y-109024057D01*
X159805714Y-109024057D02*
X159853333Y-109119295D01*
X159853333Y-109119295D02*
X159853333Y-109262152D01*
X159853333Y-109262152D02*
X159805714Y-109357390D01*
X159805714Y-109357390D02*
X159758095Y-109405009D01*
X159758095Y-109405009D02*
X159662857Y-109452628D01*
X159662857Y-109452628D02*
X159281905Y-109452628D01*
X160710476Y-109262152D02*
X160710476Y-109928819D01*
X160472381Y-108881200D02*
X160234286Y-109595485D01*
X160234286Y-109595485D02*
X160853333Y-109595485D01*
X160474819Y-115308047D02*
X160474819Y-115879475D01*
X160474819Y-115593761D02*
X159474819Y-115593761D01*
X159474819Y-115593761D02*
X159617676Y-115688999D01*
X159617676Y-115688999D02*
X159712914Y-115784237D01*
X159712914Y-115784237D02*
X159760533Y-115879475D01*
X160474819Y-114879475D02*
X159474819Y-114879475D01*
X160093866Y-114784237D02*
X160474819Y-114498523D01*
X159808152Y-114498523D02*
X160189104Y-114879475D01*
X177760333Y-126946819D02*
X177427000Y-126470628D01*
X177188905Y-126946819D02*
X177188905Y-125946819D01*
X177188905Y-125946819D02*
X177569857Y-125946819D01*
X177569857Y-125946819D02*
X177665095Y-125994438D01*
X177665095Y-125994438D02*
X177712714Y-126042057D01*
X177712714Y-126042057D02*
X177760333Y-126137295D01*
X177760333Y-126137295D02*
X177760333Y-126280152D01*
X177760333Y-126280152D02*
X177712714Y-126375390D01*
X177712714Y-126375390D02*
X177665095Y-126423009D01*
X177665095Y-126423009D02*
X177569857Y-126470628D01*
X177569857Y-126470628D02*
X177188905Y-126470628D01*
X178617476Y-125946819D02*
X178427000Y-125946819D01*
X178427000Y-125946819D02*
X178331762Y-125994438D01*
X178331762Y-125994438D02*
X178284143Y-126042057D01*
X178284143Y-126042057D02*
X178188905Y-126184914D01*
X178188905Y-126184914D02*
X178141286Y-126375390D01*
X178141286Y-126375390D02*
X178141286Y-126756342D01*
X178141286Y-126756342D02*
X178188905Y-126851580D01*
X178188905Y-126851580D02*
X178236524Y-126899200D01*
X178236524Y-126899200D02*
X178331762Y-126946819D01*
X178331762Y-126946819D02*
X178522238Y-126946819D01*
X178522238Y-126946819D02*
X178617476Y-126899200D01*
X178617476Y-126899200D02*
X178665095Y-126851580D01*
X178665095Y-126851580D02*
X178712714Y-126756342D01*
X178712714Y-126756342D02*
X178712714Y-126518247D01*
X178712714Y-126518247D02*
X178665095Y-126423009D01*
X178665095Y-126423009D02*
X178617476Y-126375390D01*
X178617476Y-126375390D02*
X178522238Y-126327771D01*
X178522238Y-126327771D02*
X178331762Y-126327771D01*
X178331762Y-126327771D02*
X178236524Y-126375390D01*
X178236524Y-126375390D02*
X178188905Y-126423009D01*
X178188905Y-126423009D02*
X178141286Y-126518247D01*
X171413561Y-126946819D02*
X170842133Y-126946819D01*
X171127847Y-126946819D02*
X171127847Y-125946819D01*
X171127847Y-125946819D02*
X171032609Y-126089676D01*
X171032609Y-126089676D02*
X170937371Y-126184914D01*
X170937371Y-126184914D02*
X170842133Y-126232533D01*
X172032609Y-125946819D02*
X172127847Y-125946819D01*
X172127847Y-125946819D02*
X172223085Y-125994438D01*
X172223085Y-125994438D02*
X172270704Y-126042057D01*
X172270704Y-126042057D02*
X172318323Y-126137295D01*
X172318323Y-126137295D02*
X172365942Y-126327771D01*
X172365942Y-126327771D02*
X172365942Y-126565866D01*
X172365942Y-126565866D02*
X172318323Y-126756342D01*
X172318323Y-126756342D02*
X172270704Y-126851580D01*
X172270704Y-126851580D02*
X172223085Y-126899200D01*
X172223085Y-126899200D02*
X172127847Y-126946819D01*
X172127847Y-126946819D02*
X172032609Y-126946819D01*
X172032609Y-126946819D02*
X171937371Y-126899200D01*
X171937371Y-126899200D02*
X171889752Y-126851580D01*
X171889752Y-126851580D02*
X171842133Y-126756342D01*
X171842133Y-126756342D02*
X171794514Y-126565866D01*
X171794514Y-126565866D02*
X171794514Y-126327771D01*
X171794514Y-126327771D02*
X171842133Y-126137295D01*
X171842133Y-126137295D02*
X171889752Y-126042057D01*
X171889752Y-126042057D02*
X171937371Y-125994438D01*
X171937371Y-125994438D02*
X172032609Y-125946819D01*
X172794514Y-126946819D02*
X172794514Y-125946819D01*
X172889752Y-126565866D02*
X173175466Y-126946819D01*
X173175466Y-126280152D02*
X172794514Y-126661104D01*
X152594761Y-103360819D02*
X152261428Y-102884628D01*
X152023333Y-103360819D02*
X152023333Y-102360819D01*
X152023333Y-102360819D02*
X152404285Y-102360819D01*
X152404285Y-102360819D02*
X152499523Y-102408438D01*
X152499523Y-102408438D02*
X152547142Y-102456057D01*
X152547142Y-102456057D02*
X152594761Y-102551295D01*
X152594761Y-102551295D02*
X152594761Y-102694152D01*
X152594761Y-102694152D02*
X152547142Y-102789390D01*
X152547142Y-102789390D02*
X152499523Y-102837009D01*
X152499523Y-102837009D02*
X152404285Y-102884628D01*
X152404285Y-102884628D02*
X152023333Y-102884628D01*
X152880476Y-102360819D02*
X153213809Y-103360819D01*
X153213809Y-103360819D02*
X153547142Y-102360819D01*
X154404285Y-103360819D02*
X153832857Y-103360819D01*
X154118571Y-103360819D02*
X154118571Y-102360819D01*
X154118571Y-102360819D02*
X154023333Y-102503676D01*
X154023333Y-102503676D02*
X153928095Y-102598914D01*
X153928095Y-102598914D02*
X153832857Y-102646533D01*
D13*
%TO.C,U1*%
X158038000Y-112549000D02*
X147758000Y-112549000D01*
X147758000Y-112549000D02*
X147758000Y-117849000D01*
X158038000Y-114199000D02*
X158038000Y-112549000D01*
X158038000Y-117849000D02*
X158038000Y-116199000D01*
X147758000Y-117849000D02*
X158038000Y-117849000D01*
X158038000Y-114199000D02*
G75*
G03*
X158038000Y-116199000I0J-1000000D01*
G01*
%TO.C,C3*%
X165700000Y-110426000D02*
X161960000Y-110426000D01*
X165700000Y-110426000D02*
X165700000Y-117666000D01*
X161960000Y-110426000D02*
X161960000Y-117666000D01*
X165700000Y-117666000D02*
X161960000Y-117666000D01*
%TO.C,D2*%
X138938000Y-123087000D02*
X138938000Y-123737000D01*
X140058000Y-123737000D02*
X137818000Y-123737000D01*
X137818000Y-123737000D02*
X137818000Y-127977000D01*
X140058000Y-124337000D02*
X137818000Y-124337000D01*
X140058000Y-124457000D02*
X137818000Y-124457000D01*
X140058000Y-124577000D02*
X137818000Y-124577000D01*
X140058000Y-127977000D02*
X140058000Y-123737000D01*
X137818000Y-127977000D02*
X140058000Y-127977000D01*
X138938000Y-128627000D02*
X138938000Y-127977000D01*
%TO.C,R3*%
X144172000Y-118459000D02*
X144172000Y-111919000D01*
X144502000Y-118459000D02*
X144172000Y-118459000D01*
X146582000Y-118459000D02*
X146912000Y-118459000D01*
X146912000Y-118459000D02*
X146912000Y-111919000D01*
X144172000Y-111919000D02*
X144502000Y-111919000D01*
X146912000Y-111919000D02*
X146582000Y-111919000D01*
%TO.C,D1*%
X141478000Y-128627000D02*
X141478000Y-127977000D01*
X140358000Y-127977000D02*
X142598000Y-127977000D01*
X142598000Y-127977000D02*
X142598000Y-123737000D01*
X140358000Y-127377000D02*
X142598000Y-127377000D01*
X140358000Y-127257000D02*
X142598000Y-127257000D01*
X140358000Y-127137000D02*
X142598000Y-127137000D01*
X140358000Y-123737000D02*
X140358000Y-127977000D01*
X142598000Y-123737000D02*
X140358000Y-123737000D01*
X141478000Y-123087000D02*
X141478000Y-123737000D01*
%TO.C,R5*%
X146033000Y-122577000D02*
X146033000Y-129117000D01*
X145703000Y-122577000D02*
X146033000Y-122577000D01*
X143623000Y-122577000D02*
X143293000Y-122577000D01*
X143293000Y-122577000D02*
X143293000Y-129117000D01*
X146033000Y-129117000D02*
X145703000Y-129117000D01*
X143293000Y-129117000D02*
X143623000Y-129117000D01*
%TO.C,R1*%
X140562000Y-111919000D02*
X140562000Y-118459000D01*
X140232000Y-111919000D02*
X140562000Y-111919000D01*
X138152000Y-111919000D02*
X137822000Y-111919000D01*
X137822000Y-111919000D02*
X137822000Y-118459000D01*
X140562000Y-118459000D02*
X140232000Y-118459000D01*
X137822000Y-118459000D02*
X138152000Y-118459000D01*
D12*
%TO.C,SW1*%
X147072000Y-122841000D02*
X166872000Y-122841000D01*
X166872000Y-122841000D02*
X166872000Y-139941000D01*
X166872000Y-139941000D02*
X147072000Y-139941000D01*
X147072000Y-139941000D02*
X147072000Y-122841000D01*
D13*
%TO.C,D3*%
X169525000Y-129900000D02*
X169525000Y-132990000D01*
X175074999Y-131445462D02*
G75*
G03*
X169525001Y-129900170I-2989999J462D01*
G01*
X169525000Y-132989830D02*
G75*
G03*
X175075000Y-131444538I2560000J1544830D01*
G01*
X174585000Y-131445000D02*
G75*
G03*
X169585000Y-131445000I-2500000J0D01*
G01*
X169585000Y-131445000D02*
G75*
G03*
X174585000Y-131445000I2500000J0D01*
G01*
%TO.C,C2*%
X178169000Y-114173000D02*
G75*
G03*
X171629000Y-114173000I-3270000J0D01*
G01*
X171629000Y-114173000D02*
G75*
G03*
X178169000Y-114173000I3270000J0D01*
G01*
%TO.C,R2*%
X143737000Y-111919000D02*
X143737000Y-118459000D01*
X143407000Y-111919000D02*
X143737000Y-111919000D01*
X141327000Y-111919000D02*
X140997000Y-111919000D01*
X140997000Y-111919000D02*
X140997000Y-118459000D01*
X143737000Y-118459000D02*
X143407000Y-118459000D01*
X140997000Y-118459000D02*
X141327000Y-118459000D01*
%TO.C,C1*%
X166405000Y-117666000D02*
X170145000Y-117666000D01*
X166405000Y-117666000D02*
X166405000Y-110426000D01*
X170145000Y-117666000D02*
X170145000Y-110426000D01*
X166405000Y-110426000D02*
X170145000Y-110426000D01*
%TO.C,R4*%
X161390000Y-111919000D02*
X161390000Y-118459000D01*
X161060000Y-111919000D02*
X161390000Y-111919000D01*
X158980000Y-111919000D02*
X158650000Y-111919000D01*
X158650000Y-111919000D02*
X158650000Y-118459000D01*
X161390000Y-118459000D02*
X161060000Y-118459000D01*
X158650000Y-118459000D02*
X158980000Y-118459000D01*
%TO.C,R6*%
X175228000Y-127862000D02*
X168688000Y-127862000D01*
X175228000Y-127532000D02*
X175228000Y-127862000D01*
X175228000Y-125452000D02*
X175228000Y-125122000D01*
X175228000Y-125122000D02*
X168688000Y-125122000D01*
X168688000Y-127862000D02*
X168688000Y-127532000D01*
X168688000Y-125122000D02*
X168688000Y-125452000D01*
%TD*%
M02*
