%TF.GenerationSoftware,KiCad,Pcbnew,7.0.10+1*%
%TF.CreationDate,2024-02-10T16:35:24+08:00*%
%TF.ProjectId,ohmify-overdrive,6f686d69-6679-42d6-9f76-657264726976,v1.1*%
%TF.SameCoordinates,Original*%
%TF.FileFunction,Soldermask,Bot*%
%TF.FilePolarity,Negative*%
%FSLAX46Y46*%
G04 Gerber Fmt 4.6, Leading zero omitted, Abs format (unit mm)*
G04 Created by KiCad (PCBNEW 7.0.10+1) date 2024-02-10 16:35:24*
%MOMM*%
%LPD*%
G01*
G04 APERTURE LIST*
G04 Aperture macros list*
%AMRoundRect*
0 Rectangle with rounded corners*
0 $1 Rounding radius*
0 $2 $3 $4 $5 $6 $7 $8 $9 X,Y pos of 4 corners*
0 Add a 4 corners polygon primitive as box body*
4,1,4,$2,$3,$4,$5,$6,$7,$8,$9,$2,$3,0*
0 Add four circle primitives for the rounded corners*
1,1,$1+$1,$2,$3*
1,1,$1+$1,$4,$5*
1,1,$1+$1,$6,$7*
1,1,$1+$1,$8,$9*
0 Add four rect primitives between the rounded corners*
20,1,$1+$1,$2,$3,$4,$5,0*
20,1,$1+$1,$4,$5,$6,$7,0*
20,1,$1+$1,$6,$7,$8,$9,0*
20,1,$1+$1,$8,$9,$2,$3,0*%
G04 Aperture macros list end*
%ADD10R,1.600000X1.600000*%
%ADD11O,1.600000X1.600000*%
%ADD12C,1.600000*%
%ADD13O,3.500000X2.000000*%
%ADD14R,1.800000X1.800000*%
%ADD15C,1.800000*%
%ADD16C,2.100000*%
%ADD17RoundRect,0.250001X-0.799999X-0.799999X0.799999X-0.799999X0.799999X0.799999X-0.799999X0.799999X0*%
G04 APERTURE END LIST*
D10*
%TO.C,U1*%
X156708000Y-111389000D03*
D11*
X154168000Y-111389000D03*
X151628000Y-111389000D03*
X149088000Y-111389000D03*
X149088000Y-119009000D03*
X151628000Y-119009000D03*
X154168000Y-119009000D03*
X156708000Y-119009000D03*
%TD*%
D12*
%TO.C,C3*%
X163830000Y-111546000D03*
X163830000Y-116546000D03*
%TD*%
D10*
%TO.C,D2*%
X138938000Y-122047000D03*
D11*
X138938000Y-129667000D03*
%TD*%
D12*
%TO.C,R3*%
X145542000Y-118999000D03*
D11*
X145542000Y-111379000D03*
%TD*%
D10*
%TO.C,D1*%
X141478000Y-129667000D03*
D11*
X141478000Y-122047000D03*
%TD*%
D12*
%TO.C,R5*%
X144663000Y-122037000D03*
D11*
X144663000Y-129657000D03*
%TD*%
D12*
%TO.C,R1*%
X139192000Y-111379000D03*
D11*
X139192000Y-118999000D03*
%TD*%
D13*
%TO.C,SW1*%
X151272000Y-126591000D03*
X151272000Y-131391000D03*
X151272000Y-136191000D03*
X156572000Y-126591000D03*
X156572000Y-131391000D03*
X156572000Y-136191000D03*
X161872000Y-126591000D03*
X161872000Y-131391000D03*
X161872000Y-136191000D03*
%TD*%
D14*
%TO.C,D3*%
X170815000Y-131445000D03*
D15*
X173355000Y-131445000D03*
%TD*%
D12*
%TO.C,C2*%
X173649000Y-114173000D03*
X176149000Y-114173000D03*
%TD*%
D16*
%TO.C,J1*%
X176036000Y-105156000D03*
D17*
X171436000Y-105156000D03*
%TD*%
%TO.C,BT1*%
X162292000Y-105156000D03*
D16*
X166892000Y-105156000D03*
%TD*%
%TO.C,J2*%
X144018000Y-105156000D03*
D17*
X139418000Y-105156000D03*
%TD*%
D12*
%TO.C,R2*%
X142367000Y-111379000D03*
D11*
X142367000Y-118999000D03*
%TD*%
D12*
%TO.C,C1*%
X168275000Y-116546000D03*
X168275000Y-111546000D03*
%TD*%
%TO.C,R4*%
X160020000Y-111379000D03*
D11*
X160020000Y-118999000D03*
%TD*%
D12*
%TO.C,R6*%
X175768000Y-126492000D03*
D11*
X168148000Y-126492000D03*
%TD*%
D17*
%TO.C,RV1*%
X148590000Y-105156000D03*
D16*
X153190000Y-105156000D03*
X157790000Y-105156000D03*
%TD*%
M02*
