M48
; DRILL file {KiCad 7.0.10+1} date Saturday, 10 February, 2024 04:35:25 PM
; FORMAT={-:-/ absolute / inch / decimal}
; #@! TF.CreationDate,2024-02-10T16:35:25+08:00
; #@! TF.GenerationSoftware,Kicad,Pcbnew,7.0.10+1
; #@! TF.FileFunction,Plated,1,2,PTH
FMAT,2
INCH
; #@! TA.AperFunction,Plated,PTH,ViaDrill
T1C0.0315
; #@! TA.AperFunction,Plated,PTH,ComponentDrill
T2C0.0315
; #@! TA.AperFunction,Plated,PTH,ComponentDrill
T3C0.0354
; #@! TA.AperFunction,Plated,PTH,ComponentDrill
T4C0.0394
; #@! TA.AperFunction,Plated,PTH,ComponentDrill
T5C0.0433
%
G90
G05
T1
X5.47Y-4.93
X5.54Y-4.93
X5.61Y-4.93
X5.68Y-4.93
X5.735Y-4.265
X5.75Y-4.93
X5.81Y-4.265
X5.88Y-4.295
X5.88Y-4.825
X5.95Y-4.825
X6.02Y-4.825
X6.09Y-4.825
X6.81Y-4.31
X6.81Y-4.38
X6.88Y-4.31
X6.88Y-4.38
X6.95Y-4.31
X6.95Y-4.38
X7.02Y-4.31
X7.02Y-4.38
T2
X5.47Y-4.805
X5.47Y-5.105
X5.48Y-4.385
X5.48Y-4.685
X5.57Y-4.805
X5.57Y-5.105
X5.605Y-4.385
X5.605Y-4.685
X5.6954Y-4.8046
X5.6954Y-5.1046
X5.73Y-4.385
X5.73Y-4.685
X5.8696Y-4.3854
X5.8696Y-4.6854
X5.9696Y-4.3854
X5.9696Y-4.6854
X6.0696Y-4.3854
X6.0696Y-4.6854
X6.1696Y-4.3854
X6.1696Y-4.6854
X6.3Y-4.385
X6.3Y-4.685
X6.45Y-4.3916
X6.45Y-4.5884
X6.62Y-4.98
X6.625Y-4.3916
X6.625Y-4.5884
X6.8366Y-4.495
X6.92Y-4.98
X6.935Y-4.495
T3
X6.725Y-5.175
X6.825Y-5.175
T5
X5.4889Y-4.14
X5.67Y-4.14
X5.85Y-4.14
X6.0311Y-4.14
X6.2122Y-4.14
X6.3894Y-4.14
X6.5706Y-4.14
X6.7494Y-4.14
X6.9306Y-4.14
T4
G00X5.9261Y-4.9839
M15
G01X5.9851Y-4.9839
M16
G05
G00X5.9261Y-5.1729
M15
G01X5.9851Y-5.1729
M16
G05
G00X5.9261Y-5.3619
M15
G01X5.9851Y-5.3619
M16
G05
G00X6.1347Y-4.9839
M15
G01X6.1938Y-4.9839
M16
G05
G00X6.1347Y-5.1729
M15
G01X6.1938Y-5.1729
M16
G05
G00X6.1347Y-5.3619
M15
G01X6.1938Y-5.3619
M16
G05
G00X6.3434Y-4.9839
M15
G01X6.4024Y-4.9839
M16
G05
G00X6.3434Y-5.1729
M15
G01X6.4024Y-5.1729
M16
G05
G00X6.3434Y-5.3619
M15
G01X6.4024Y-5.3619
M16
G05
M30
