%TF.GenerationSoftware,KiCad,Pcbnew,7.0.9*%
%TF.CreationDate,2023-11-29T23:55:18+08:00*%
%TF.ProjectId,ohmify-overdrive,6f686d69-6679-42d6-9f76-657264726976,rev?*%
%TF.SameCoordinates,Original*%
%TF.FileFunction,Drillmap*%
%TF.FilePolarity,Positive*%
%FSLAX45Y45*%
G04 Gerber Fmt 4.5, Leading zero omitted, Abs format (unit mm)*
G04 Created by KiCad (PCBNEW 7.0.9) date 2023-11-29 23:55:18*
%MOMM*%
%LPD*%
G01*
G04 APERTURE LIST*
%ADD10C,0.100000*%
%ADD11C,0.200000*%
G04 APERTURE END LIST*
D10*
X16764000Y-13970000D02*
X16764000Y-13741400D01*
X14605000Y-13385800D02*
G75*
G03*
X14478000Y-13258800I-127000J0D01*
G01*
X13563600Y-13131800D02*
G75*
G03*
X13690600Y-13258800I127000J0D01*
G01*
X17983200Y-10210800D02*
X17983200Y-13487400D01*
X13690600Y-10083800D02*
X17856200Y-10083800D01*
X16891000Y-13614400D02*
X17856200Y-13614400D01*
X13690600Y-10083800D02*
G75*
G03*
X13563600Y-10210800I0J-127000D01*
G01*
X17856200Y-13614400D02*
G75*
G03*
X17983200Y-13487400I0J127000D01*
G01*
X17983200Y-10210800D02*
G75*
G03*
X17856200Y-10083800I-127000J0D01*
G01*
X16637000Y-14097000D02*
X14732000Y-14097000D01*
X13690600Y-13258800D02*
X14478000Y-13258800D01*
X16637000Y-14097000D02*
G75*
G03*
X16764000Y-13970000I0J127000D01*
G01*
X14605000Y-13970000D02*
G75*
G03*
X14732000Y-14097000I127000J0D01*
G01*
X13563600Y-13131800D02*
X13563600Y-10210800D01*
X14605000Y-13385800D02*
X14605000Y-13970000D01*
X16891000Y-13614400D02*
G75*
G03*
X16764000Y-13741400I0J-127000D01*
G01*
D11*
X13819377Y-14413484D02*
X13819377Y-14213484D01*
X13819377Y-14213484D02*
X13866996Y-14213484D01*
X13866996Y-14213484D02*
X13895567Y-14223008D01*
X13895567Y-14223008D02*
X13914615Y-14242055D01*
X13914615Y-14242055D02*
X13924139Y-14261103D01*
X13924139Y-14261103D02*
X13933662Y-14299198D01*
X13933662Y-14299198D02*
X13933662Y-14327769D01*
X13933662Y-14327769D02*
X13924139Y-14365865D01*
X13924139Y-14365865D02*
X13914615Y-14384912D01*
X13914615Y-14384912D02*
X13895567Y-14403960D01*
X13895567Y-14403960D02*
X13866996Y-14413484D01*
X13866996Y-14413484D02*
X13819377Y-14413484D01*
X14019377Y-14413484D02*
X14019377Y-14280150D01*
X14019377Y-14318246D02*
X14028901Y-14299198D01*
X14028901Y-14299198D02*
X14038424Y-14289674D01*
X14038424Y-14289674D02*
X14057472Y-14280150D01*
X14057472Y-14280150D02*
X14076520Y-14280150D01*
X14143186Y-14413484D02*
X14143186Y-14280150D01*
X14143186Y-14213484D02*
X14133662Y-14223008D01*
X14133662Y-14223008D02*
X14143186Y-14232531D01*
X14143186Y-14232531D02*
X14152710Y-14223008D01*
X14152710Y-14223008D02*
X14143186Y-14213484D01*
X14143186Y-14213484D02*
X14143186Y-14232531D01*
X14266996Y-14413484D02*
X14247948Y-14403960D01*
X14247948Y-14403960D02*
X14238424Y-14384912D01*
X14238424Y-14384912D02*
X14238424Y-14213484D01*
X14371758Y-14413484D02*
X14352710Y-14403960D01*
X14352710Y-14403960D02*
X14343186Y-14384912D01*
X14343186Y-14384912D02*
X14343186Y-14213484D01*
X14600329Y-14413484D02*
X14600329Y-14213484D01*
X14600329Y-14213484D02*
X14666996Y-14356341D01*
X14666996Y-14356341D02*
X14733662Y-14213484D01*
X14733662Y-14213484D02*
X14733662Y-14413484D01*
X14914615Y-14413484D02*
X14914615Y-14308722D01*
X14914615Y-14308722D02*
X14905091Y-14289674D01*
X14905091Y-14289674D02*
X14886043Y-14280150D01*
X14886043Y-14280150D02*
X14847948Y-14280150D01*
X14847948Y-14280150D02*
X14828901Y-14289674D01*
X14914615Y-14403960D02*
X14895567Y-14413484D01*
X14895567Y-14413484D02*
X14847948Y-14413484D01*
X14847948Y-14413484D02*
X14828901Y-14403960D01*
X14828901Y-14403960D02*
X14819377Y-14384912D01*
X14819377Y-14384912D02*
X14819377Y-14365865D01*
X14819377Y-14365865D02*
X14828901Y-14346817D01*
X14828901Y-14346817D02*
X14847948Y-14337293D01*
X14847948Y-14337293D02*
X14895567Y-14337293D01*
X14895567Y-14337293D02*
X14914615Y-14327769D01*
X15009853Y-14280150D02*
X15009853Y-14480150D01*
X15009853Y-14289674D02*
X15028901Y-14280150D01*
X15028901Y-14280150D02*
X15066996Y-14280150D01*
X15066996Y-14280150D02*
X15086043Y-14289674D01*
X15086043Y-14289674D02*
X15095567Y-14299198D01*
X15095567Y-14299198D02*
X15105091Y-14318246D01*
X15105091Y-14318246D02*
X15105091Y-14375388D01*
X15105091Y-14375388D02*
X15095567Y-14394436D01*
X15095567Y-14394436D02*
X15086043Y-14403960D01*
X15086043Y-14403960D02*
X15066996Y-14413484D01*
X15066996Y-14413484D02*
X15028901Y-14413484D01*
X15028901Y-14413484D02*
X15009853Y-14403960D01*
X15190805Y-14394436D02*
X15200329Y-14403960D01*
X15200329Y-14403960D02*
X15190805Y-14413484D01*
X15190805Y-14413484D02*
X15181282Y-14403960D01*
X15181282Y-14403960D02*
X15190805Y-14394436D01*
X15190805Y-14394436D02*
X15190805Y-14413484D01*
X15190805Y-14289674D02*
X15200329Y-14299198D01*
X15200329Y-14299198D02*
X15190805Y-14308722D01*
X15190805Y-14308722D02*
X15181282Y-14299198D01*
X15181282Y-14299198D02*
X15190805Y-14289674D01*
X15190805Y-14289674D02*
X15190805Y-14308722D01*
M02*
