%TF.GenerationSoftware,KiCad,Pcbnew,7.0.9*%
%TF.CreationDate,2023-11-29T23:53:55+08:00*%
%TF.ProjectId,SynthCard,53796e74-6843-4617-9264-2e6b69636164,rev?*%
%TF.SameCoordinates,Original*%
%TF.FileFunction,Drillmap*%
%TF.FilePolarity,Positive*%
%FSLAX45Y45*%
G04 Gerber Fmt 4.5, Leading zero omitted, Abs format (unit mm)*
G04 Created by KiCad (PCBNEW 7.0.9) date 2023-11-29 23:53:55*
%MOMM*%
%LPD*%
G01*
G04 APERTURE LIST*
%ADD10C,0.100000*%
%ADD11C,0.200000*%
%ADD12C,0.110000*%
G04 APERTURE END LIST*
D10*
X10160000Y-12192000D02*
G75*
G03*
X10414000Y-12446000I254000J0D01*
G01*
X17018000Y-8128000D02*
G75*
G03*
X16764000Y-7874000I-254000J0D01*
G01*
X16764000Y-12446000D02*
X10414000Y-12446000D01*
X10414000Y-7874000D02*
G75*
G03*
X10160000Y-8128000I0J-254000D01*
G01*
X10160000Y-12192000D02*
X10160000Y-8128000D01*
X10414000Y-7874000D02*
X16764000Y-7874000D01*
X16764000Y-12446000D02*
G75*
G03*
X17018000Y-12192000I0J254000D01*
G01*
X17018000Y-8128000D02*
X17018000Y-12192000D01*
D11*
D10*
X11976000Y-11263000D02*
X12056000Y-11343000D01*
X12056000Y-11263000D02*
X11976000Y-11343000D01*
X11976000Y-11763000D02*
X12056000Y-11843000D01*
X12056000Y-11763000D02*
X11976000Y-11843000D01*
X12358000Y-11263000D02*
X12438000Y-11343000D01*
X12438000Y-11263000D02*
X12358000Y-11343000D01*
X12358000Y-11517000D02*
X12438000Y-11597000D01*
X12438000Y-11517000D02*
X12358000Y-11597000D01*
X12358000Y-11771000D02*
X12438000Y-11851000D01*
X12438000Y-11771000D02*
X12358000Y-11851000D01*
X12358000Y-12025000D02*
X12438000Y-12105000D01*
X12438000Y-12025000D02*
X12358000Y-12105000D01*
X13120000Y-11263000D02*
X13200000Y-11343000D01*
X13200000Y-11263000D02*
X13120000Y-11343000D01*
X13120000Y-11517000D02*
X13200000Y-11597000D01*
X13200000Y-11517000D02*
X13120000Y-11597000D01*
X13120000Y-11771000D02*
X13200000Y-11851000D01*
X13200000Y-11771000D02*
X13120000Y-11851000D01*
X13120000Y-12025000D02*
X13200000Y-12105000D01*
X13200000Y-12025000D02*
X13120000Y-12105000D01*
X13500000Y-11263000D02*
X13580000Y-11343000D01*
X13580000Y-11263000D02*
X13500000Y-11343000D01*
X13500000Y-12025000D02*
X13580000Y-12105000D01*
X13580000Y-12025000D02*
X13500000Y-12105000D01*
X13881000Y-11263000D02*
X13961000Y-11343000D01*
X13961000Y-11263000D02*
X13881000Y-11343000D01*
X13881000Y-11517000D02*
X13961000Y-11597000D01*
X13961000Y-11517000D02*
X13881000Y-11597000D01*
X13881000Y-11771000D02*
X13961000Y-11851000D01*
X13961000Y-11771000D02*
X13881000Y-11851000D01*
X13881000Y-12025000D02*
X13961000Y-12105000D01*
X13961000Y-12025000D02*
X13881000Y-12105000D01*
X14643000Y-11263000D02*
X14723000Y-11343000D01*
X14723000Y-11263000D02*
X14643000Y-11343000D01*
X14643000Y-11517000D02*
X14723000Y-11597000D01*
X14723000Y-11517000D02*
X14643000Y-11597000D01*
X14643000Y-11771000D02*
X14723000Y-11851000D01*
X14723000Y-11771000D02*
X14643000Y-11851000D01*
X14643000Y-12025000D02*
X14723000Y-12105000D01*
X14723000Y-12025000D02*
X14643000Y-12105000D01*
X15009500Y-10689011D02*
X15089500Y-10769011D01*
X15089500Y-10689011D02*
X15009500Y-10769011D01*
X15009500Y-10939011D02*
X15089500Y-11019011D01*
X15089500Y-10939011D02*
X15009500Y-11019011D01*
X15024000Y-11525000D02*
X15104000Y-11605000D01*
X15104000Y-11525000D02*
X15024000Y-11605000D01*
X15024000Y-12025000D02*
X15104000Y-12105000D01*
X15104000Y-12025000D02*
X15024000Y-12105000D01*
X10928000Y-12192000D02*
G75*
G03*
X10928000Y-12192000I-50000J0D01*
G01*
X11178000Y-12192000D02*
G75*
G03*
X11178000Y-12192000I-50000J0D01*
G01*
X11428000Y-12192000D02*
G75*
G03*
X11428000Y-12192000I-50000J0D01*
G01*
X15877000Y-12192000D02*
G75*
G03*
X15877000Y-12192000I-50000J0D01*
G01*
X16127000Y-12192000D02*
G75*
G03*
X16127000Y-12192000I-50000J0D01*
G01*
X16377000Y-12192000D02*
G75*
G03*
X16377000Y-12192000I-50000J0D01*
G01*
D12*
X10648000Y-11387000D02*
X10648000Y-11497000D01*
X10593000Y-11442000D02*
X10703000Y-11442000D01*
D10*
X10703000Y-11477000D02*
X10703000Y-11407000D01*
X10703000Y-11407000D02*
G75*
G03*
X10593000Y-11407000I-55000J0D01*
G01*
X10593000Y-11407000D02*
X10593000Y-11477000D01*
X10593000Y-11477000D02*
G75*
G03*
X10703000Y-11477000I55000J0D01*
G01*
D12*
X10668000Y-9978000D02*
X10668000Y-10088000D01*
X10613000Y-10033000D02*
X10723000Y-10033000D01*
X11128000Y-9978000D02*
X11128000Y-10088000D01*
X11073000Y-10033000D02*
X11183000Y-10033000D01*
X11608000Y-11387000D02*
X11608000Y-11497000D01*
X11553000Y-11442000D02*
X11663000Y-11442000D01*
D10*
X11663000Y-11477000D02*
X11663000Y-11407000D01*
X11663000Y-11407000D02*
G75*
G03*
X11553000Y-11407000I-55000J0D01*
G01*
X11553000Y-11407000D02*
X11553000Y-11477000D01*
X11553000Y-11477000D02*
G75*
G03*
X11663000Y-11477000I55000J0D01*
G01*
D12*
X15597000Y-11387000D02*
X15597000Y-11497000D01*
X15542000Y-11442000D02*
X15652000Y-11442000D01*
D10*
X15652000Y-11477000D02*
X15652000Y-11407000D01*
X15652000Y-11407000D02*
G75*
G03*
X15542000Y-11407000I-55000J0D01*
G01*
X15542000Y-11407000D02*
X15542000Y-11477000D01*
X15542000Y-11477000D02*
G75*
G03*
X15652000Y-11477000I55000J0D01*
G01*
D12*
X15848200Y-10219300D02*
X15848200Y-10329300D01*
X15793200Y-10274300D02*
X15903200Y-10274300D01*
X16308200Y-10219300D02*
X16308200Y-10329300D01*
X16253200Y-10274300D02*
X16363200Y-10274300D01*
X16557000Y-11387000D02*
X16557000Y-11497000D01*
X16502000Y-11442000D02*
X16612000Y-11442000D01*
D10*
X16612000Y-11477000D02*
X16612000Y-11407000D01*
X16612000Y-11407000D02*
G75*
G03*
X16502000Y-11407000I-55000J0D01*
G01*
X16502000Y-11407000D02*
X16502000Y-11477000D01*
X16502000Y-11477000D02*
G75*
G03*
X16612000Y-11477000I55000J0D01*
G01*
D11*
X10415777Y-12762484D02*
X10415777Y-12562484D01*
X10415777Y-12562484D02*
X10463396Y-12562484D01*
X10463396Y-12562484D02*
X10491967Y-12572008D01*
X10491967Y-12572008D02*
X10511015Y-12591055D01*
X10511015Y-12591055D02*
X10520539Y-12610103D01*
X10520539Y-12610103D02*
X10530063Y-12648198D01*
X10530063Y-12648198D02*
X10530063Y-12676769D01*
X10530063Y-12676769D02*
X10520539Y-12714865D01*
X10520539Y-12714865D02*
X10511015Y-12733912D01*
X10511015Y-12733912D02*
X10491967Y-12752960D01*
X10491967Y-12752960D02*
X10463396Y-12762484D01*
X10463396Y-12762484D02*
X10415777Y-12762484D01*
X10615777Y-12762484D02*
X10615777Y-12629150D01*
X10615777Y-12667246D02*
X10625301Y-12648198D01*
X10625301Y-12648198D02*
X10634824Y-12638674D01*
X10634824Y-12638674D02*
X10653872Y-12629150D01*
X10653872Y-12629150D02*
X10672920Y-12629150D01*
X10739586Y-12762484D02*
X10739586Y-12629150D01*
X10739586Y-12562484D02*
X10730063Y-12572008D01*
X10730063Y-12572008D02*
X10739586Y-12581531D01*
X10739586Y-12581531D02*
X10749110Y-12572008D01*
X10749110Y-12572008D02*
X10739586Y-12562484D01*
X10739586Y-12562484D02*
X10739586Y-12581531D01*
X10863396Y-12762484D02*
X10844348Y-12752960D01*
X10844348Y-12752960D02*
X10834824Y-12733912D01*
X10834824Y-12733912D02*
X10834824Y-12562484D01*
X10968158Y-12762484D02*
X10949110Y-12752960D01*
X10949110Y-12752960D02*
X10939586Y-12733912D01*
X10939586Y-12733912D02*
X10939586Y-12562484D01*
X11196729Y-12762484D02*
X11196729Y-12562484D01*
X11196729Y-12562484D02*
X11263396Y-12705341D01*
X11263396Y-12705341D02*
X11330062Y-12562484D01*
X11330062Y-12562484D02*
X11330062Y-12762484D01*
X11511015Y-12762484D02*
X11511015Y-12657722D01*
X11511015Y-12657722D02*
X11501491Y-12638674D01*
X11501491Y-12638674D02*
X11482443Y-12629150D01*
X11482443Y-12629150D02*
X11444348Y-12629150D01*
X11444348Y-12629150D02*
X11425301Y-12638674D01*
X11511015Y-12752960D02*
X11491967Y-12762484D01*
X11491967Y-12762484D02*
X11444348Y-12762484D01*
X11444348Y-12762484D02*
X11425301Y-12752960D01*
X11425301Y-12752960D02*
X11415777Y-12733912D01*
X11415777Y-12733912D02*
X11415777Y-12714865D01*
X11415777Y-12714865D02*
X11425301Y-12695817D01*
X11425301Y-12695817D02*
X11444348Y-12686293D01*
X11444348Y-12686293D02*
X11491967Y-12686293D01*
X11491967Y-12686293D02*
X11511015Y-12676769D01*
X11606253Y-12629150D02*
X11606253Y-12829150D01*
X11606253Y-12638674D02*
X11625301Y-12629150D01*
X11625301Y-12629150D02*
X11663396Y-12629150D01*
X11663396Y-12629150D02*
X11682443Y-12638674D01*
X11682443Y-12638674D02*
X11691967Y-12648198D01*
X11691967Y-12648198D02*
X11701491Y-12667246D01*
X11701491Y-12667246D02*
X11701491Y-12724388D01*
X11701491Y-12724388D02*
X11691967Y-12743436D01*
X11691967Y-12743436D02*
X11682443Y-12752960D01*
X11682443Y-12752960D02*
X11663396Y-12762484D01*
X11663396Y-12762484D02*
X11625301Y-12762484D01*
X11625301Y-12762484D02*
X11606253Y-12752960D01*
X11787205Y-12743436D02*
X11796729Y-12752960D01*
X11796729Y-12752960D02*
X11787205Y-12762484D01*
X11787205Y-12762484D02*
X11777682Y-12752960D01*
X11777682Y-12752960D02*
X11787205Y-12743436D01*
X11787205Y-12743436D02*
X11787205Y-12762484D01*
X11787205Y-12638674D02*
X11796729Y-12648198D01*
X11796729Y-12648198D02*
X11787205Y-12657722D01*
X11787205Y-12657722D02*
X11777682Y-12648198D01*
X11777682Y-12648198D02*
X11787205Y-12638674D01*
X11787205Y-12638674D02*
X11787205Y-12657722D01*
D10*
X10075000Y-13051000D02*
X10155000Y-13131000D01*
X10155000Y-13051000D02*
X10075000Y-13131000D01*
D11*
X10453872Y-12982484D02*
X10472920Y-12982484D01*
X10472920Y-12982484D02*
X10491967Y-12992008D01*
X10491967Y-12992008D02*
X10501491Y-13001531D01*
X10501491Y-13001531D02*
X10511015Y-13020579D01*
X10511015Y-13020579D02*
X10520539Y-13058674D01*
X10520539Y-13058674D02*
X10520539Y-13106293D01*
X10520539Y-13106293D02*
X10511015Y-13144388D01*
X10511015Y-13144388D02*
X10501491Y-13163436D01*
X10501491Y-13163436D02*
X10491967Y-13172960D01*
X10491967Y-13172960D02*
X10472920Y-13182484D01*
X10472920Y-13182484D02*
X10453872Y-13182484D01*
X10453872Y-13182484D02*
X10434824Y-13172960D01*
X10434824Y-13172960D02*
X10425301Y-13163436D01*
X10425301Y-13163436D02*
X10415777Y-13144388D01*
X10415777Y-13144388D02*
X10406253Y-13106293D01*
X10406253Y-13106293D02*
X10406253Y-13058674D01*
X10406253Y-13058674D02*
X10415777Y-13020579D01*
X10415777Y-13020579D02*
X10425301Y-13001531D01*
X10425301Y-13001531D02*
X10434824Y-12992008D01*
X10434824Y-12992008D02*
X10453872Y-12982484D01*
X10606253Y-13163436D02*
X10615777Y-13172960D01*
X10615777Y-13172960D02*
X10606253Y-13182484D01*
X10606253Y-13182484D02*
X10596729Y-13172960D01*
X10596729Y-13172960D02*
X10606253Y-13163436D01*
X10606253Y-13163436D02*
X10606253Y-13182484D01*
X10730063Y-13068198D02*
X10711015Y-13058674D01*
X10711015Y-13058674D02*
X10701491Y-13049150D01*
X10701491Y-13049150D02*
X10691967Y-13030103D01*
X10691967Y-13030103D02*
X10691967Y-13020579D01*
X10691967Y-13020579D02*
X10701491Y-13001531D01*
X10701491Y-13001531D02*
X10711015Y-12992008D01*
X10711015Y-12992008D02*
X10730063Y-12982484D01*
X10730063Y-12982484D02*
X10768158Y-12982484D01*
X10768158Y-12982484D02*
X10787205Y-12992008D01*
X10787205Y-12992008D02*
X10796729Y-13001531D01*
X10796729Y-13001531D02*
X10806253Y-13020579D01*
X10806253Y-13020579D02*
X10806253Y-13030103D01*
X10806253Y-13030103D02*
X10796729Y-13049150D01*
X10796729Y-13049150D02*
X10787205Y-13058674D01*
X10787205Y-13058674D02*
X10768158Y-13068198D01*
X10768158Y-13068198D02*
X10730063Y-13068198D01*
X10730063Y-13068198D02*
X10711015Y-13077722D01*
X10711015Y-13077722D02*
X10701491Y-13087246D01*
X10701491Y-13087246D02*
X10691967Y-13106293D01*
X10691967Y-13106293D02*
X10691967Y-13144388D01*
X10691967Y-13144388D02*
X10701491Y-13163436D01*
X10701491Y-13163436D02*
X10711015Y-13172960D01*
X10711015Y-13172960D02*
X10730063Y-13182484D01*
X10730063Y-13182484D02*
X10768158Y-13182484D01*
X10768158Y-13182484D02*
X10787205Y-13172960D01*
X10787205Y-13172960D02*
X10796729Y-13163436D01*
X10796729Y-13163436D02*
X10806253Y-13144388D01*
X10806253Y-13144388D02*
X10806253Y-13106293D01*
X10806253Y-13106293D02*
X10796729Y-13087246D01*
X10796729Y-13087246D02*
X10787205Y-13077722D01*
X10787205Y-13077722D02*
X10768158Y-13068198D01*
X10930063Y-12982484D02*
X10949110Y-12982484D01*
X10949110Y-12982484D02*
X10968158Y-12992008D01*
X10968158Y-12992008D02*
X10977682Y-13001531D01*
X10977682Y-13001531D02*
X10987205Y-13020579D01*
X10987205Y-13020579D02*
X10996729Y-13058674D01*
X10996729Y-13058674D02*
X10996729Y-13106293D01*
X10996729Y-13106293D02*
X10987205Y-13144388D01*
X10987205Y-13144388D02*
X10977682Y-13163436D01*
X10977682Y-13163436D02*
X10968158Y-13172960D01*
X10968158Y-13172960D02*
X10949110Y-13182484D01*
X10949110Y-13182484D02*
X10930063Y-13182484D01*
X10930063Y-13182484D02*
X10911015Y-13172960D01*
X10911015Y-13172960D02*
X10901491Y-13163436D01*
X10901491Y-13163436D02*
X10891967Y-13144388D01*
X10891967Y-13144388D02*
X10882444Y-13106293D01*
X10882444Y-13106293D02*
X10882444Y-13058674D01*
X10882444Y-13058674D02*
X10891967Y-13020579D01*
X10891967Y-13020579D02*
X10901491Y-13001531D01*
X10901491Y-13001531D02*
X10911015Y-12992008D01*
X10911015Y-12992008D02*
X10930063Y-12982484D01*
X11120539Y-12982484D02*
X11139586Y-12982484D01*
X11139586Y-12982484D02*
X11158634Y-12992008D01*
X11158634Y-12992008D02*
X11168158Y-13001531D01*
X11168158Y-13001531D02*
X11177682Y-13020579D01*
X11177682Y-13020579D02*
X11187205Y-13058674D01*
X11187205Y-13058674D02*
X11187205Y-13106293D01*
X11187205Y-13106293D02*
X11177682Y-13144388D01*
X11177682Y-13144388D02*
X11168158Y-13163436D01*
X11168158Y-13163436D02*
X11158634Y-13172960D01*
X11158634Y-13172960D02*
X11139586Y-13182484D01*
X11139586Y-13182484D02*
X11120539Y-13182484D01*
X11120539Y-13182484D02*
X11101491Y-13172960D01*
X11101491Y-13172960D02*
X11091967Y-13163436D01*
X11091967Y-13163436D02*
X11082444Y-13144388D01*
X11082444Y-13144388D02*
X11072920Y-13106293D01*
X11072920Y-13106293D02*
X11072920Y-13058674D01*
X11072920Y-13058674D02*
X11082444Y-13020579D01*
X11082444Y-13020579D02*
X11091967Y-13001531D01*
X11091967Y-13001531D02*
X11101491Y-12992008D01*
X11101491Y-12992008D02*
X11120539Y-12982484D01*
X11272920Y-13182484D02*
X11272920Y-13049150D01*
X11272920Y-13068198D02*
X11282443Y-13058674D01*
X11282443Y-13058674D02*
X11301491Y-13049150D01*
X11301491Y-13049150D02*
X11330063Y-13049150D01*
X11330063Y-13049150D02*
X11349110Y-13058674D01*
X11349110Y-13058674D02*
X11358634Y-13077722D01*
X11358634Y-13077722D02*
X11358634Y-13182484D01*
X11358634Y-13077722D02*
X11368158Y-13058674D01*
X11368158Y-13058674D02*
X11387205Y-13049150D01*
X11387205Y-13049150D02*
X11415777Y-13049150D01*
X11415777Y-13049150D02*
X11434824Y-13058674D01*
X11434824Y-13058674D02*
X11444348Y-13077722D01*
X11444348Y-13077722D02*
X11444348Y-13182484D01*
X11539586Y-13182484D02*
X11539586Y-13049150D01*
X11539586Y-13068198D02*
X11549110Y-13058674D01*
X11549110Y-13058674D02*
X11568158Y-13049150D01*
X11568158Y-13049150D02*
X11596729Y-13049150D01*
X11596729Y-13049150D02*
X11615777Y-13058674D01*
X11615777Y-13058674D02*
X11625301Y-13077722D01*
X11625301Y-13077722D02*
X11625301Y-13182484D01*
X11625301Y-13077722D02*
X11634824Y-13058674D01*
X11634824Y-13058674D02*
X11653872Y-13049150D01*
X11653872Y-13049150D02*
X11682443Y-13049150D01*
X11682443Y-13049150D02*
X11701491Y-13058674D01*
X11701491Y-13058674D02*
X11711015Y-13077722D01*
X11711015Y-13077722D02*
X11711015Y-13182484D01*
X12101491Y-12972960D02*
X11930063Y-13230103D01*
X12358634Y-12982484D02*
X12377682Y-12982484D01*
X12377682Y-12982484D02*
X12396729Y-12992008D01*
X12396729Y-12992008D02*
X12406253Y-13001531D01*
X12406253Y-13001531D02*
X12415777Y-13020579D01*
X12415777Y-13020579D02*
X12425301Y-13058674D01*
X12425301Y-13058674D02*
X12425301Y-13106293D01*
X12425301Y-13106293D02*
X12415777Y-13144388D01*
X12415777Y-13144388D02*
X12406253Y-13163436D01*
X12406253Y-13163436D02*
X12396729Y-13172960D01*
X12396729Y-13172960D02*
X12377682Y-13182484D01*
X12377682Y-13182484D02*
X12358634Y-13182484D01*
X12358634Y-13182484D02*
X12339586Y-13172960D01*
X12339586Y-13172960D02*
X12330063Y-13163436D01*
X12330063Y-13163436D02*
X12320539Y-13144388D01*
X12320539Y-13144388D02*
X12311015Y-13106293D01*
X12311015Y-13106293D02*
X12311015Y-13058674D01*
X12311015Y-13058674D02*
X12320539Y-13020579D01*
X12320539Y-13020579D02*
X12330063Y-13001531D01*
X12330063Y-13001531D02*
X12339586Y-12992008D01*
X12339586Y-12992008D02*
X12358634Y-12982484D01*
X12511015Y-13163436D02*
X12520539Y-13172960D01*
X12520539Y-13172960D02*
X12511015Y-13182484D01*
X12511015Y-13182484D02*
X12501491Y-13172960D01*
X12501491Y-13172960D02*
X12511015Y-13163436D01*
X12511015Y-13163436D02*
X12511015Y-13182484D01*
X12644348Y-12982484D02*
X12663396Y-12982484D01*
X12663396Y-12982484D02*
X12682444Y-12992008D01*
X12682444Y-12992008D02*
X12691967Y-13001531D01*
X12691967Y-13001531D02*
X12701491Y-13020579D01*
X12701491Y-13020579D02*
X12711015Y-13058674D01*
X12711015Y-13058674D02*
X12711015Y-13106293D01*
X12711015Y-13106293D02*
X12701491Y-13144388D01*
X12701491Y-13144388D02*
X12691967Y-13163436D01*
X12691967Y-13163436D02*
X12682444Y-13172960D01*
X12682444Y-13172960D02*
X12663396Y-13182484D01*
X12663396Y-13182484D02*
X12644348Y-13182484D01*
X12644348Y-13182484D02*
X12625301Y-13172960D01*
X12625301Y-13172960D02*
X12615777Y-13163436D01*
X12615777Y-13163436D02*
X12606253Y-13144388D01*
X12606253Y-13144388D02*
X12596729Y-13106293D01*
X12596729Y-13106293D02*
X12596729Y-13058674D01*
X12596729Y-13058674D02*
X12606253Y-13020579D01*
X12606253Y-13020579D02*
X12615777Y-13001531D01*
X12615777Y-13001531D02*
X12625301Y-12992008D01*
X12625301Y-12992008D02*
X12644348Y-12982484D01*
X12777682Y-12982484D02*
X12901491Y-12982484D01*
X12901491Y-12982484D02*
X12834825Y-13058674D01*
X12834825Y-13058674D02*
X12863396Y-13058674D01*
X12863396Y-13058674D02*
X12882444Y-13068198D01*
X12882444Y-13068198D02*
X12891967Y-13077722D01*
X12891967Y-13077722D02*
X12901491Y-13096769D01*
X12901491Y-13096769D02*
X12901491Y-13144388D01*
X12901491Y-13144388D02*
X12891967Y-13163436D01*
X12891967Y-13163436D02*
X12882444Y-13172960D01*
X12882444Y-13172960D02*
X12863396Y-13182484D01*
X12863396Y-13182484D02*
X12806253Y-13182484D01*
X12806253Y-13182484D02*
X12787206Y-13172960D01*
X12787206Y-13172960D02*
X12777682Y-13163436D01*
X13091967Y-13182484D02*
X12977682Y-13182484D01*
X13034825Y-13182484D02*
X13034825Y-12982484D01*
X13034825Y-12982484D02*
X13015777Y-13011055D01*
X13015777Y-13011055D02*
X12996729Y-13030103D01*
X12996729Y-13030103D02*
X12977682Y-13039627D01*
X13272920Y-12982484D02*
X13177682Y-12982484D01*
X13177682Y-12982484D02*
X13168158Y-13077722D01*
X13168158Y-13077722D02*
X13177682Y-13068198D01*
X13177682Y-13068198D02*
X13196729Y-13058674D01*
X13196729Y-13058674D02*
X13244348Y-13058674D01*
X13244348Y-13058674D02*
X13263396Y-13068198D01*
X13263396Y-13068198D02*
X13272920Y-13077722D01*
X13272920Y-13077722D02*
X13282444Y-13096769D01*
X13282444Y-13096769D02*
X13282444Y-13144388D01*
X13282444Y-13144388D02*
X13272920Y-13163436D01*
X13272920Y-13163436D02*
X13263396Y-13172960D01*
X13263396Y-13172960D02*
X13244348Y-13182484D01*
X13244348Y-13182484D02*
X13196729Y-13182484D01*
X13196729Y-13182484D02*
X13177682Y-13172960D01*
X13177682Y-13172960D02*
X13168158Y-13163436D01*
X13358634Y-12982484D02*
X13358634Y-13020579D01*
X13434825Y-12982484D02*
X13434825Y-13020579D01*
X13730063Y-13258674D02*
X13720539Y-13249150D01*
X13720539Y-13249150D02*
X13701491Y-13220579D01*
X13701491Y-13220579D02*
X13691968Y-13201531D01*
X13691968Y-13201531D02*
X13682444Y-13172960D01*
X13682444Y-13172960D02*
X13672920Y-13125341D01*
X13672920Y-13125341D02*
X13672920Y-13087246D01*
X13672920Y-13087246D02*
X13682444Y-13039627D01*
X13682444Y-13039627D02*
X13691968Y-13011055D01*
X13691968Y-13011055D02*
X13701491Y-12992008D01*
X13701491Y-12992008D02*
X13720539Y-12963436D01*
X13720539Y-12963436D02*
X13730063Y-12953912D01*
X13796729Y-13001531D02*
X13806253Y-12992008D01*
X13806253Y-12992008D02*
X13825301Y-12982484D01*
X13825301Y-12982484D02*
X13872920Y-12982484D01*
X13872920Y-12982484D02*
X13891968Y-12992008D01*
X13891968Y-12992008D02*
X13901491Y-13001531D01*
X13901491Y-13001531D02*
X13911015Y-13020579D01*
X13911015Y-13020579D02*
X13911015Y-13039627D01*
X13911015Y-13039627D02*
X13901491Y-13068198D01*
X13901491Y-13068198D02*
X13787206Y-13182484D01*
X13787206Y-13182484D02*
X13911015Y-13182484D01*
X14082444Y-13049150D02*
X14082444Y-13182484D01*
X14034825Y-12972960D02*
X13987206Y-13115817D01*
X13987206Y-13115817D02*
X14111015Y-13115817D01*
X14339587Y-13182484D02*
X14339587Y-12982484D01*
X14425301Y-13182484D02*
X14425301Y-13077722D01*
X14425301Y-13077722D02*
X14415777Y-13058674D01*
X14415777Y-13058674D02*
X14396730Y-13049150D01*
X14396730Y-13049150D02*
X14368158Y-13049150D01*
X14368158Y-13049150D02*
X14349110Y-13058674D01*
X14349110Y-13058674D02*
X14339587Y-13068198D01*
X14549110Y-13182484D02*
X14530063Y-13172960D01*
X14530063Y-13172960D02*
X14520539Y-13163436D01*
X14520539Y-13163436D02*
X14511015Y-13144388D01*
X14511015Y-13144388D02*
X14511015Y-13087246D01*
X14511015Y-13087246D02*
X14520539Y-13068198D01*
X14520539Y-13068198D02*
X14530063Y-13058674D01*
X14530063Y-13058674D02*
X14549110Y-13049150D01*
X14549110Y-13049150D02*
X14577682Y-13049150D01*
X14577682Y-13049150D02*
X14596730Y-13058674D01*
X14596730Y-13058674D02*
X14606253Y-13068198D01*
X14606253Y-13068198D02*
X14615777Y-13087246D01*
X14615777Y-13087246D02*
X14615777Y-13144388D01*
X14615777Y-13144388D02*
X14606253Y-13163436D01*
X14606253Y-13163436D02*
X14596730Y-13172960D01*
X14596730Y-13172960D02*
X14577682Y-13182484D01*
X14577682Y-13182484D02*
X14549110Y-13182484D01*
X14730063Y-13182484D02*
X14711015Y-13172960D01*
X14711015Y-13172960D02*
X14701491Y-13153912D01*
X14701491Y-13153912D02*
X14701491Y-12982484D01*
X14882444Y-13172960D02*
X14863396Y-13182484D01*
X14863396Y-13182484D02*
X14825301Y-13182484D01*
X14825301Y-13182484D02*
X14806253Y-13172960D01*
X14806253Y-13172960D02*
X14796730Y-13153912D01*
X14796730Y-13153912D02*
X14796730Y-13077722D01*
X14796730Y-13077722D02*
X14806253Y-13058674D01*
X14806253Y-13058674D02*
X14825301Y-13049150D01*
X14825301Y-13049150D02*
X14863396Y-13049150D01*
X14863396Y-13049150D02*
X14882444Y-13058674D01*
X14882444Y-13058674D02*
X14891968Y-13077722D01*
X14891968Y-13077722D02*
X14891968Y-13096769D01*
X14891968Y-13096769D02*
X14796730Y-13115817D01*
X14968158Y-13172960D02*
X14987206Y-13182484D01*
X14987206Y-13182484D02*
X15025301Y-13182484D01*
X15025301Y-13182484D02*
X15044349Y-13172960D01*
X15044349Y-13172960D02*
X15053872Y-13153912D01*
X15053872Y-13153912D02*
X15053872Y-13144388D01*
X15053872Y-13144388D02*
X15044349Y-13125341D01*
X15044349Y-13125341D02*
X15025301Y-13115817D01*
X15025301Y-13115817D02*
X14996730Y-13115817D01*
X14996730Y-13115817D02*
X14977682Y-13106293D01*
X14977682Y-13106293D02*
X14968158Y-13087246D01*
X14968158Y-13087246D02*
X14968158Y-13077722D01*
X14968158Y-13077722D02*
X14977682Y-13058674D01*
X14977682Y-13058674D02*
X14996730Y-13049150D01*
X14996730Y-13049150D02*
X15025301Y-13049150D01*
X15025301Y-13049150D02*
X15044349Y-13058674D01*
X15120539Y-13258674D02*
X15130063Y-13249150D01*
X15130063Y-13249150D02*
X15149111Y-13220579D01*
X15149111Y-13220579D02*
X15158634Y-13201531D01*
X15158634Y-13201531D02*
X15168158Y-13172960D01*
X15168158Y-13172960D02*
X15177682Y-13125341D01*
X15177682Y-13125341D02*
X15177682Y-13087246D01*
X15177682Y-13087246D02*
X15168158Y-13039627D01*
X15168158Y-13039627D02*
X15158634Y-13011055D01*
X15158634Y-13011055D02*
X15149111Y-12992008D01*
X15149111Y-12992008D02*
X15130063Y-12963436D01*
X15130063Y-12963436D02*
X15120539Y-12953912D01*
D10*
X10155000Y-13355000D02*
G75*
G03*
X10155000Y-13355000I-50000J0D01*
G01*
D11*
X10520539Y-13446484D02*
X10406253Y-13446484D01*
X10463396Y-13446484D02*
X10463396Y-13246484D01*
X10463396Y-13246484D02*
X10444348Y-13275055D01*
X10444348Y-13275055D02*
X10425301Y-13294103D01*
X10425301Y-13294103D02*
X10406253Y-13303627D01*
X10606253Y-13427436D02*
X10615777Y-13436960D01*
X10615777Y-13436960D02*
X10606253Y-13446484D01*
X10606253Y-13446484D02*
X10596729Y-13436960D01*
X10596729Y-13436960D02*
X10606253Y-13427436D01*
X10606253Y-13427436D02*
X10606253Y-13446484D01*
X10739586Y-13246484D02*
X10758634Y-13246484D01*
X10758634Y-13246484D02*
X10777682Y-13256008D01*
X10777682Y-13256008D02*
X10787205Y-13265531D01*
X10787205Y-13265531D02*
X10796729Y-13284579D01*
X10796729Y-13284579D02*
X10806253Y-13322674D01*
X10806253Y-13322674D02*
X10806253Y-13370293D01*
X10806253Y-13370293D02*
X10796729Y-13408388D01*
X10796729Y-13408388D02*
X10787205Y-13427436D01*
X10787205Y-13427436D02*
X10777682Y-13436960D01*
X10777682Y-13436960D02*
X10758634Y-13446484D01*
X10758634Y-13446484D02*
X10739586Y-13446484D01*
X10739586Y-13446484D02*
X10720539Y-13436960D01*
X10720539Y-13436960D02*
X10711015Y-13427436D01*
X10711015Y-13427436D02*
X10701491Y-13408388D01*
X10701491Y-13408388D02*
X10691967Y-13370293D01*
X10691967Y-13370293D02*
X10691967Y-13322674D01*
X10691967Y-13322674D02*
X10701491Y-13284579D01*
X10701491Y-13284579D02*
X10711015Y-13265531D01*
X10711015Y-13265531D02*
X10720539Y-13256008D01*
X10720539Y-13256008D02*
X10739586Y-13246484D01*
X10930063Y-13246484D02*
X10949110Y-13246484D01*
X10949110Y-13246484D02*
X10968158Y-13256008D01*
X10968158Y-13256008D02*
X10977682Y-13265531D01*
X10977682Y-13265531D02*
X10987205Y-13284579D01*
X10987205Y-13284579D02*
X10996729Y-13322674D01*
X10996729Y-13322674D02*
X10996729Y-13370293D01*
X10996729Y-13370293D02*
X10987205Y-13408388D01*
X10987205Y-13408388D02*
X10977682Y-13427436D01*
X10977682Y-13427436D02*
X10968158Y-13436960D01*
X10968158Y-13436960D02*
X10949110Y-13446484D01*
X10949110Y-13446484D02*
X10930063Y-13446484D01*
X10930063Y-13446484D02*
X10911015Y-13436960D01*
X10911015Y-13436960D02*
X10901491Y-13427436D01*
X10901491Y-13427436D02*
X10891967Y-13408388D01*
X10891967Y-13408388D02*
X10882444Y-13370293D01*
X10882444Y-13370293D02*
X10882444Y-13322674D01*
X10882444Y-13322674D02*
X10891967Y-13284579D01*
X10891967Y-13284579D02*
X10901491Y-13265531D01*
X10901491Y-13265531D02*
X10911015Y-13256008D01*
X10911015Y-13256008D02*
X10930063Y-13246484D01*
X11120539Y-13246484D02*
X11139586Y-13246484D01*
X11139586Y-13246484D02*
X11158634Y-13256008D01*
X11158634Y-13256008D02*
X11168158Y-13265531D01*
X11168158Y-13265531D02*
X11177682Y-13284579D01*
X11177682Y-13284579D02*
X11187205Y-13322674D01*
X11187205Y-13322674D02*
X11187205Y-13370293D01*
X11187205Y-13370293D02*
X11177682Y-13408388D01*
X11177682Y-13408388D02*
X11168158Y-13427436D01*
X11168158Y-13427436D02*
X11158634Y-13436960D01*
X11158634Y-13436960D02*
X11139586Y-13446484D01*
X11139586Y-13446484D02*
X11120539Y-13446484D01*
X11120539Y-13446484D02*
X11101491Y-13436960D01*
X11101491Y-13436960D02*
X11091967Y-13427436D01*
X11091967Y-13427436D02*
X11082444Y-13408388D01*
X11082444Y-13408388D02*
X11072920Y-13370293D01*
X11072920Y-13370293D02*
X11072920Y-13322674D01*
X11072920Y-13322674D02*
X11082444Y-13284579D01*
X11082444Y-13284579D02*
X11091967Y-13265531D01*
X11091967Y-13265531D02*
X11101491Y-13256008D01*
X11101491Y-13256008D02*
X11120539Y-13246484D01*
X11272920Y-13446484D02*
X11272920Y-13313150D01*
X11272920Y-13332198D02*
X11282443Y-13322674D01*
X11282443Y-13322674D02*
X11301491Y-13313150D01*
X11301491Y-13313150D02*
X11330063Y-13313150D01*
X11330063Y-13313150D02*
X11349110Y-13322674D01*
X11349110Y-13322674D02*
X11358634Y-13341722D01*
X11358634Y-13341722D02*
X11358634Y-13446484D01*
X11358634Y-13341722D02*
X11368158Y-13322674D01*
X11368158Y-13322674D02*
X11387205Y-13313150D01*
X11387205Y-13313150D02*
X11415777Y-13313150D01*
X11415777Y-13313150D02*
X11434824Y-13322674D01*
X11434824Y-13322674D02*
X11444348Y-13341722D01*
X11444348Y-13341722D02*
X11444348Y-13446484D01*
X11539586Y-13446484D02*
X11539586Y-13313150D01*
X11539586Y-13332198D02*
X11549110Y-13322674D01*
X11549110Y-13322674D02*
X11568158Y-13313150D01*
X11568158Y-13313150D02*
X11596729Y-13313150D01*
X11596729Y-13313150D02*
X11615777Y-13322674D01*
X11615777Y-13322674D02*
X11625301Y-13341722D01*
X11625301Y-13341722D02*
X11625301Y-13446484D01*
X11625301Y-13341722D02*
X11634824Y-13322674D01*
X11634824Y-13322674D02*
X11653872Y-13313150D01*
X11653872Y-13313150D02*
X11682443Y-13313150D01*
X11682443Y-13313150D02*
X11701491Y-13322674D01*
X11701491Y-13322674D02*
X11711015Y-13341722D01*
X11711015Y-13341722D02*
X11711015Y-13446484D01*
X12101491Y-13236960D02*
X11930063Y-13494103D01*
X12358634Y-13246484D02*
X12377682Y-13246484D01*
X12377682Y-13246484D02*
X12396729Y-13256008D01*
X12396729Y-13256008D02*
X12406253Y-13265531D01*
X12406253Y-13265531D02*
X12415777Y-13284579D01*
X12415777Y-13284579D02*
X12425301Y-13322674D01*
X12425301Y-13322674D02*
X12425301Y-13370293D01*
X12425301Y-13370293D02*
X12415777Y-13408388D01*
X12415777Y-13408388D02*
X12406253Y-13427436D01*
X12406253Y-13427436D02*
X12396729Y-13436960D01*
X12396729Y-13436960D02*
X12377682Y-13446484D01*
X12377682Y-13446484D02*
X12358634Y-13446484D01*
X12358634Y-13446484D02*
X12339586Y-13436960D01*
X12339586Y-13436960D02*
X12330063Y-13427436D01*
X12330063Y-13427436D02*
X12320539Y-13408388D01*
X12320539Y-13408388D02*
X12311015Y-13370293D01*
X12311015Y-13370293D02*
X12311015Y-13322674D01*
X12311015Y-13322674D02*
X12320539Y-13284579D01*
X12320539Y-13284579D02*
X12330063Y-13265531D01*
X12330063Y-13265531D02*
X12339586Y-13256008D01*
X12339586Y-13256008D02*
X12358634Y-13246484D01*
X12511015Y-13427436D02*
X12520539Y-13436960D01*
X12520539Y-13436960D02*
X12511015Y-13446484D01*
X12511015Y-13446484D02*
X12501491Y-13436960D01*
X12501491Y-13436960D02*
X12511015Y-13427436D01*
X12511015Y-13427436D02*
X12511015Y-13446484D01*
X12644348Y-13246484D02*
X12663396Y-13246484D01*
X12663396Y-13246484D02*
X12682444Y-13256008D01*
X12682444Y-13256008D02*
X12691967Y-13265531D01*
X12691967Y-13265531D02*
X12701491Y-13284579D01*
X12701491Y-13284579D02*
X12711015Y-13322674D01*
X12711015Y-13322674D02*
X12711015Y-13370293D01*
X12711015Y-13370293D02*
X12701491Y-13408388D01*
X12701491Y-13408388D02*
X12691967Y-13427436D01*
X12691967Y-13427436D02*
X12682444Y-13436960D01*
X12682444Y-13436960D02*
X12663396Y-13446484D01*
X12663396Y-13446484D02*
X12644348Y-13446484D01*
X12644348Y-13446484D02*
X12625301Y-13436960D01*
X12625301Y-13436960D02*
X12615777Y-13427436D01*
X12615777Y-13427436D02*
X12606253Y-13408388D01*
X12606253Y-13408388D02*
X12596729Y-13370293D01*
X12596729Y-13370293D02*
X12596729Y-13322674D01*
X12596729Y-13322674D02*
X12606253Y-13284579D01*
X12606253Y-13284579D02*
X12615777Y-13265531D01*
X12615777Y-13265531D02*
X12625301Y-13256008D01*
X12625301Y-13256008D02*
X12644348Y-13246484D01*
X12777682Y-13246484D02*
X12901491Y-13246484D01*
X12901491Y-13246484D02*
X12834825Y-13322674D01*
X12834825Y-13322674D02*
X12863396Y-13322674D01*
X12863396Y-13322674D02*
X12882444Y-13332198D01*
X12882444Y-13332198D02*
X12891967Y-13341722D01*
X12891967Y-13341722D02*
X12901491Y-13360769D01*
X12901491Y-13360769D02*
X12901491Y-13408388D01*
X12901491Y-13408388D02*
X12891967Y-13427436D01*
X12891967Y-13427436D02*
X12882444Y-13436960D01*
X12882444Y-13436960D02*
X12863396Y-13446484D01*
X12863396Y-13446484D02*
X12806253Y-13446484D01*
X12806253Y-13446484D02*
X12787206Y-13436960D01*
X12787206Y-13436960D02*
X12777682Y-13427436D01*
X12996729Y-13446484D02*
X13034825Y-13446484D01*
X13034825Y-13446484D02*
X13053872Y-13436960D01*
X13053872Y-13436960D02*
X13063396Y-13427436D01*
X13063396Y-13427436D02*
X13082444Y-13398865D01*
X13082444Y-13398865D02*
X13091967Y-13360769D01*
X13091967Y-13360769D02*
X13091967Y-13284579D01*
X13091967Y-13284579D02*
X13082444Y-13265531D01*
X13082444Y-13265531D02*
X13072920Y-13256008D01*
X13072920Y-13256008D02*
X13053872Y-13246484D01*
X13053872Y-13246484D02*
X13015777Y-13246484D01*
X13015777Y-13246484D02*
X12996729Y-13256008D01*
X12996729Y-13256008D02*
X12987206Y-13265531D01*
X12987206Y-13265531D02*
X12977682Y-13284579D01*
X12977682Y-13284579D02*
X12977682Y-13332198D01*
X12977682Y-13332198D02*
X12987206Y-13351246D01*
X12987206Y-13351246D02*
X12996729Y-13360769D01*
X12996729Y-13360769D02*
X13015777Y-13370293D01*
X13015777Y-13370293D02*
X13053872Y-13370293D01*
X13053872Y-13370293D02*
X13072920Y-13360769D01*
X13072920Y-13360769D02*
X13082444Y-13351246D01*
X13082444Y-13351246D02*
X13091967Y-13332198D01*
X13263396Y-13313150D02*
X13263396Y-13446484D01*
X13215777Y-13236960D02*
X13168158Y-13379817D01*
X13168158Y-13379817D02*
X13291967Y-13379817D01*
X13358634Y-13246484D02*
X13358634Y-13284579D01*
X13434825Y-13246484D02*
X13434825Y-13284579D01*
X13730063Y-13522674D02*
X13720539Y-13513150D01*
X13720539Y-13513150D02*
X13701491Y-13484579D01*
X13701491Y-13484579D02*
X13691968Y-13465531D01*
X13691968Y-13465531D02*
X13682444Y-13436960D01*
X13682444Y-13436960D02*
X13672920Y-13389341D01*
X13672920Y-13389341D02*
X13672920Y-13351246D01*
X13672920Y-13351246D02*
X13682444Y-13303627D01*
X13682444Y-13303627D02*
X13691968Y-13275055D01*
X13691968Y-13275055D02*
X13701491Y-13256008D01*
X13701491Y-13256008D02*
X13720539Y-13227436D01*
X13720539Y-13227436D02*
X13730063Y-13217912D01*
X13891968Y-13246484D02*
X13853872Y-13246484D01*
X13853872Y-13246484D02*
X13834825Y-13256008D01*
X13834825Y-13256008D02*
X13825301Y-13265531D01*
X13825301Y-13265531D02*
X13806253Y-13294103D01*
X13806253Y-13294103D02*
X13796729Y-13332198D01*
X13796729Y-13332198D02*
X13796729Y-13408388D01*
X13796729Y-13408388D02*
X13806253Y-13427436D01*
X13806253Y-13427436D02*
X13815777Y-13436960D01*
X13815777Y-13436960D02*
X13834825Y-13446484D01*
X13834825Y-13446484D02*
X13872920Y-13446484D01*
X13872920Y-13446484D02*
X13891968Y-13436960D01*
X13891968Y-13436960D02*
X13901491Y-13427436D01*
X13901491Y-13427436D02*
X13911015Y-13408388D01*
X13911015Y-13408388D02*
X13911015Y-13360769D01*
X13911015Y-13360769D02*
X13901491Y-13341722D01*
X13901491Y-13341722D02*
X13891968Y-13332198D01*
X13891968Y-13332198D02*
X13872920Y-13322674D01*
X13872920Y-13322674D02*
X13834825Y-13322674D01*
X13834825Y-13322674D02*
X13815777Y-13332198D01*
X13815777Y-13332198D02*
X13806253Y-13341722D01*
X13806253Y-13341722D02*
X13796729Y-13360769D01*
X14149110Y-13446484D02*
X14149110Y-13246484D01*
X14234825Y-13446484D02*
X14234825Y-13341722D01*
X14234825Y-13341722D02*
X14225301Y-13322674D01*
X14225301Y-13322674D02*
X14206253Y-13313150D01*
X14206253Y-13313150D02*
X14177682Y-13313150D01*
X14177682Y-13313150D02*
X14158634Y-13322674D01*
X14158634Y-13322674D02*
X14149110Y-13332198D01*
X14358634Y-13446484D02*
X14339587Y-13436960D01*
X14339587Y-13436960D02*
X14330063Y-13427436D01*
X14330063Y-13427436D02*
X14320539Y-13408388D01*
X14320539Y-13408388D02*
X14320539Y-13351246D01*
X14320539Y-13351246D02*
X14330063Y-13332198D01*
X14330063Y-13332198D02*
X14339587Y-13322674D01*
X14339587Y-13322674D02*
X14358634Y-13313150D01*
X14358634Y-13313150D02*
X14387206Y-13313150D01*
X14387206Y-13313150D02*
X14406253Y-13322674D01*
X14406253Y-13322674D02*
X14415777Y-13332198D01*
X14415777Y-13332198D02*
X14425301Y-13351246D01*
X14425301Y-13351246D02*
X14425301Y-13408388D01*
X14425301Y-13408388D02*
X14415777Y-13427436D01*
X14415777Y-13427436D02*
X14406253Y-13436960D01*
X14406253Y-13436960D02*
X14387206Y-13446484D01*
X14387206Y-13446484D02*
X14358634Y-13446484D01*
X14539587Y-13446484D02*
X14520539Y-13436960D01*
X14520539Y-13436960D02*
X14511015Y-13417912D01*
X14511015Y-13417912D02*
X14511015Y-13246484D01*
X14691968Y-13436960D02*
X14672920Y-13446484D01*
X14672920Y-13446484D02*
X14634825Y-13446484D01*
X14634825Y-13446484D02*
X14615777Y-13436960D01*
X14615777Y-13436960D02*
X14606253Y-13417912D01*
X14606253Y-13417912D02*
X14606253Y-13341722D01*
X14606253Y-13341722D02*
X14615777Y-13322674D01*
X14615777Y-13322674D02*
X14634825Y-13313150D01*
X14634825Y-13313150D02*
X14672920Y-13313150D01*
X14672920Y-13313150D02*
X14691968Y-13322674D01*
X14691968Y-13322674D02*
X14701491Y-13341722D01*
X14701491Y-13341722D02*
X14701491Y-13360769D01*
X14701491Y-13360769D02*
X14606253Y-13379817D01*
X14777682Y-13436960D02*
X14796730Y-13446484D01*
X14796730Y-13446484D02*
X14834825Y-13446484D01*
X14834825Y-13446484D02*
X14853872Y-13436960D01*
X14853872Y-13436960D02*
X14863396Y-13417912D01*
X14863396Y-13417912D02*
X14863396Y-13408388D01*
X14863396Y-13408388D02*
X14853872Y-13389341D01*
X14853872Y-13389341D02*
X14834825Y-13379817D01*
X14834825Y-13379817D02*
X14806253Y-13379817D01*
X14806253Y-13379817D02*
X14787206Y-13370293D01*
X14787206Y-13370293D02*
X14777682Y-13351246D01*
X14777682Y-13351246D02*
X14777682Y-13341722D01*
X14777682Y-13341722D02*
X14787206Y-13322674D01*
X14787206Y-13322674D02*
X14806253Y-13313150D01*
X14806253Y-13313150D02*
X14834825Y-13313150D01*
X14834825Y-13313150D02*
X14853872Y-13322674D01*
X14930063Y-13522674D02*
X14939587Y-13513150D01*
X14939587Y-13513150D02*
X14958634Y-13484579D01*
X14958634Y-13484579D02*
X14968158Y-13465531D01*
X14968158Y-13465531D02*
X14977682Y-13436960D01*
X14977682Y-13436960D02*
X14987206Y-13389341D01*
X14987206Y-13389341D02*
X14987206Y-13351246D01*
X14987206Y-13351246D02*
X14977682Y-13303627D01*
X14977682Y-13303627D02*
X14968158Y-13275055D01*
X14968158Y-13275055D02*
X14958634Y-13256008D01*
X14958634Y-13256008D02*
X14939587Y-13227436D01*
X14939587Y-13227436D02*
X14930063Y-13217912D01*
D12*
X10100000Y-13564000D02*
X10100000Y-13674000D01*
X10045000Y-13619000D02*
X10155000Y-13619000D01*
D11*
X10520539Y-13710484D02*
X10406253Y-13710484D01*
X10463396Y-13710484D02*
X10463396Y-13510484D01*
X10463396Y-13510484D02*
X10444348Y-13539055D01*
X10444348Y-13539055D02*
X10425301Y-13558103D01*
X10425301Y-13558103D02*
X10406253Y-13567627D01*
X10606253Y-13691436D02*
X10615777Y-13700960D01*
X10615777Y-13700960D02*
X10606253Y-13710484D01*
X10606253Y-13710484D02*
X10596729Y-13700960D01*
X10596729Y-13700960D02*
X10606253Y-13691436D01*
X10606253Y-13691436D02*
X10606253Y-13710484D01*
X10806253Y-13710484D02*
X10691967Y-13710484D01*
X10749110Y-13710484D02*
X10749110Y-13510484D01*
X10749110Y-13510484D02*
X10730063Y-13539055D01*
X10730063Y-13539055D02*
X10711015Y-13558103D01*
X10711015Y-13558103D02*
X10691967Y-13567627D01*
X10930063Y-13510484D02*
X10949110Y-13510484D01*
X10949110Y-13510484D02*
X10968158Y-13520008D01*
X10968158Y-13520008D02*
X10977682Y-13529531D01*
X10977682Y-13529531D02*
X10987205Y-13548579D01*
X10987205Y-13548579D02*
X10996729Y-13586674D01*
X10996729Y-13586674D02*
X10996729Y-13634293D01*
X10996729Y-13634293D02*
X10987205Y-13672388D01*
X10987205Y-13672388D02*
X10977682Y-13691436D01*
X10977682Y-13691436D02*
X10968158Y-13700960D01*
X10968158Y-13700960D02*
X10949110Y-13710484D01*
X10949110Y-13710484D02*
X10930063Y-13710484D01*
X10930063Y-13710484D02*
X10911015Y-13700960D01*
X10911015Y-13700960D02*
X10901491Y-13691436D01*
X10901491Y-13691436D02*
X10891967Y-13672388D01*
X10891967Y-13672388D02*
X10882444Y-13634293D01*
X10882444Y-13634293D02*
X10882444Y-13586674D01*
X10882444Y-13586674D02*
X10891967Y-13548579D01*
X10891967Y-13548579D02*
X10901491Y-13529531D01*
X10901491Y-13529531D02*
X10911015Y-13520008D01*
X10911015Y-13520008D02*
X10930063Y-13510484D01*
X11120539Y-13510484D02*
X11139586Y-13510484D01*
X11139586Y-13510484D02*
X11158634Y-13520008D01*
X11158634Y-13520008D02*
X11168158Y-13529531D01*
X11168158Y-13529531D02*
X11177682Y-13548579D01*
X11177682Y-13548579D02*
X11187205Y-13586674D01*
X11187205Y-13586674D02*
X11187205Y-13634293D01*
X11187205Y-13634293D02*
X11177682Y-13672388D01*
X11177682Y-13672388D02*
X11168158Y-13691436D01*
X11168158Y-13691436D02*
X11158634Y-13700960D01*
X11158634Y-13700960D02*
X11139586Y-13710484D01*
X11139586Y-13710484D02*
X11120539Y-13710484D01*
X11120539Y-13710484D02*
X11101491Y-13700960D01*
X11101491Y-13700960D02*
X11091967Y-13691436D01*
X11091967Y-13691436D02*
X11082444Y-13672388D01*
X11082444Y-13672388D02*
X11072920Y-13634293D01*
X11072920Y-13634293D02*
X11072920Y-13586674D01*
X11072920Y-13586674D02*
X11082444Y-13548579D01*
X11082444Y-13548579D02*
X11091967Y-13529531D01*
X11091967Y-13529531D02*
X11101491Y-13520008D01*
X11101491Y-13520008D02*
X11120539Y-13510484D01*
X11272920Y-13710484D02*
X11272920Y-13577150D01*
X11272920Y-13596198D02*
X11282443Y-13586674D01*
X11282443Y-13586674D02*
X11301491Y-13577150D01*
X11301491Y-13577150D02*
X11330063Y-13577150D01*
X11330063Y-13577150D02*
X11349110Y-13586674D01*
X11349110Y-13586674D02*
X11358634Y-13605722D01*
X11358634Y-13605722D02*
X11358634Y-13710484D01*
X11358634Y-13605722D02*
X11368158Y-13586674D01*
X11368158Y-13586674D02*
X11387205Y-13577150D01*
X11387205Y-13577150D02*
X11415777Y-13577150D01*
X11415777Y-13577150D02*
X11434824Y-13586674D01*
X11434824Y-13586674D02*
X11444348Y-13605722D01*
X11444348Y-13605722D02*
X11444348Y-13710484D01*
X11539586Y-13710484D02*
X11539586Y-13577150D01*
X11539586Y-13596198D02*
X11549110Y-13586674D01*
X11549110Y-13586674D02*
X11568158Y-13577150D01*
X11568158Y-13577150D02*
X11596729Y-13577150D01*
X11596729Y-13577150D02*
X11615777Y-13586674D01*
X11615777Y-13586674D02*
X11625301Y-13605722D01*
X11625301Y-13605722D02*
X11625301Y-13710484D01*
X11625301Y-13605722D02*
X11634824Y-13586674D01*
X11634824Y-13586674D02*
X11653872Y-13577150D01*
X11653872Y-13577150D02*
X11682443Y-13577150D01*
X11682443Y-13577150D02*
X11701491Y-13586674D01*
X11701491Y-13586674D02*
X11711015Y-13605722D01*
X11711015Y-13605722D02*
X11711015Y-13710484D01*
X12101491Y-13500960D02*
X11930063Y-13758103D01*
X12358634Y-13510484D02*
X12377682Y-13510484D01*
X12377682Y-13510484D02*
X12396729Y-13520008D01*
X12396729Y-13520008D02*
X12406253Y-13529531D01*
X12406253Y-13529531D02*
X12415777Y-13548579D01*
X12415777Y-13548579D02*
X12425301Y-13586674D01*
X12425301Y-13586674D02*
X12425301Y-13634293D01*
X12425301Y-13634293D02*
X12415777Y-13672388D01*
X12415777Y-13672388D02*
X12406253Y-13691436D01*
X12406253Y-13691436D02*
X12396729Y-13700960D01*
X12396729Y-13700960D02*
X12377682Y-13710484D01*
X12377682Y-13710484D02*
X12358634Y-13710484D01*
X12358634Y-13710484D02*
X12339586Y-13700960D01*
X12339586Y-13700960D02*
X12330063Y-13691436D01*
X12330063Y-13691436D02*
X12320539Y-13672388D01*
X12320539Y-13672388D02*
X12311015Y-13634293D01*
X12311015Y-13634293D02*
X12311015Y-13586674D01*
X12311015Y-13586674D02*
X12320539Y-13548579D01*
X12320539Y-13548579D02*
X12330063Y-13529531D01*
X12330063Y-13529531D02*
X12339586Y-13520008D01*
X12339586Y-13520008D02*
X12358634Y-13510484D01*
X12511015Y-13691436D02*
X12520539Y-13700960D01*
X12520539Y-13700960D02*
X12511015Y-13710484D01*
X12511015Y-13710484D02*
X12501491Y-13700960D01*
X12501491Y-13700960D02*
X12511015Y-13691436D01*
X12511015Y-13691436D02*
X12511015Y-13710484D01*
X12644348Y-13510484D02*
X12663396Y-13510484D01*
X12663396Y-13510484D02*
X12682444Y-13520008D01*
X12682444Y-13520008D02*
X12691967Y-13529531D01*
X12691967Y-13529531D02*
X12701491Y-13548579D01*
X12701491Y-13548579D02*
X12711015Y-13586674D01*
X12711015Y-13586674D02*
X12711015Y-13634293D01*
X12711015Y-13634293D02*
X12701491Y-13672388D01*
X12701491Y-13672388D02*
X12691967Y-13691436D01*
X12691967Y-13691436D02*
X12682444Y-13700960D01*
X12682444Y-13700960D02*
X12663396Y-13710484D01*
X12663396Y-13710484D02*
X12644348Y-13710484D01*
X12644348Y-13710484D02*
X12625301Y-13700960D01*
X12625301Y-13700960D02*
X12615777Y-13691436D01*
X12615777Y-13691436D02*
X12606253Y-13672388D01*
X12606253Y-13672388D02*
X12596729Y-13634293D01*
X12596729Y-13634293D02*
X12596729Y-13586674D01*
X12596729Y-13586674D02*
X12606253Y-13548579D01*
X12606253Y-13548579D02*
X12615777Y-13529531D01*
X12615777Y-13529531D02*
X12625301Y-13520008D01*
X12625301Y-13520008D02*
X12644348Y-13510484D01*
X12882444Y-13577150D02*
X12882444Y-13710484D01*
X12834825Y-13500960D02*
X12787206Y-13643817D01*
X12787206Y-13643817D02*
X12911015Y-13643817D01*
X12968158Y-13510484D02*
X13091967Y-13510484D01*
X13091967Y-13510484D02*
X13025301Y-13586674D01*
X13025301Y-13586674D02*
X13053872Y-13586674D01*
X13053872Y-13586674D02*
X13072920Y-13596198D01*
X13072920Y-13596198D02*
X13082444Y-13605722D01*
X13082444Y-13605722D02*
X13091967Y-13624769D01*
X13091967Y-13624769D02*
X13091967Y-13672388D01*
X13091967Y-13672388D02*
X13082444Y-13691436D01*
X13082444Y-13691436D02*
X13072920Y-13700960D01*
X13072920Y-13700960D02*
X13053872Y-13710484D01*
X13053872Y-13710484D02*
X12996729Y-13710484D01*
X12996729Y-13710484D02*
X12977682Y-13700960D01*
X12977682Y-13700960D02*
X12968158Y-13691436D01*
X13158634Y-13510484D02*
X13282444Y-13510484D01*
X13282444Y-13510484D02*
X13215777Y-13586674D01*
X13215777Y-13586674D02*
X13244348Y-13586674D01*
X13244348Y-13586674D02*
X13263396Y-13596198D01*
X13263396Y-13596198D02*
X13272920Y-13605722D01*
X13272920Y-13605722D02*
X13282444Y-13624769D01*
X13282444Y-13624769D02*
X13282444Y-13672388D01*
X13282444Y-13672388D02*
X13272920Y-13691436D01*
X13272920Y-13691436D02*
X13263396Y-13700960D01*
X13263396Y-13700960D02*
X13244348Y-13710484D01*
X13244348Y-13710484D02*
X13187206Y-13710484D01*
X13187206Y-13710484D02*
X13168158Y-13700960D01*
X13168158Y-13700960D02*
X13158634Y-13691436D01*
X13358634Y-13510484D02*
X13358634Y-13548579D01*
X13434825Y-13510484D02*
X13434825Y-13548579D01*
X13730063Y-13786674D02*
X13720539Y-13777150D01*
X13720539Y-13777150D02*
X13701491Y-13748579D01*
X13701491Y-13748579D02*
X13691968Y-13729531D01*
X13691968Y-13729531D02*
X13682444Y-13700960D01*
X13682444Y-13700960D02*
X13672920Y-13653341D01*
X13672920Y-13653341D02*
X13672920Y-13615246D01*
X13672920Y-13615246D02*
X13682444Y-13567627D01*
X13682444Y-13567627D02*
X13691968Y-13539055D01*
X13691968Y-13539055D02*
X13701491Y-13520008D01*
X13701491Y-13520008D02*
X13720539Y-13491436D01*
X13720539Y-13491436D02*
X13730063Y-13481912D01*
X13891968Y-13577150D02*
X13891968Y-13710484D01*
X13844348Y-13500960D02*
X13796729Y-13643817D01*
X13796729Y-13643817D02*
X13920539Y-13643817D01*
X14149110Y-13710484D02*
X14149110Y-13510484D01*
X14234825Y-13710484D02*
X14234825Y-13605722D01*
X14234825Y-13605722D02*
X14225301Y-13586674D01*
X14225301Y-13586674D02*
X14206253Y-13577150D01*
X14206253Y-13577150D02*
X14177682Y-13577150D01*
X14177682Y-13577150D02*
X14158634Y-13586674D01*
X14158634Y-13586674D02*
X14149110Y-13596198D01*
X14358634Y-13710484D02*
X14339587Y-13700960D01*
X14339587Y-13700960D02*
X14330063Y-13691436D01*
X14330063Y-13691436D02*
X14320539Y-13672388D01*
X14320539Y-13672388D02*
X14320539Y-13615246D01*
X14320539Y-13615246D02*
X14330063Y-13596198D01*
X14330063Y-13596198D02*
X14339587Y-13586674D01*
X14339587Y-13586674D02*
X14358634Y-13577150D01*
X14358634Y-13577150D02*
X14387206Y-13577150D01*
X14387206Y-13577150D02*
X14406253Y-13586674D01*
X14406253Y-13586674D02*
X14415777Y-13596198D01*
X14415777Y-13596198D02*
X14425301Y-13615246D01*
X14425301Y-13615246D02*
X14425301Y-13672388D01*
X14425301Y-13672388D02*
X14415777Y-13691436D01*
X14415777Y-13691436D02*
X14406253Y-13700960D01*
X14406253Y-13700960D02*
X14387206Y-13710484D01*
X14387206Y-13710484D02*
X14358634Y-13710484D01*
X14539587Y-13710484D02*
X14520539Y-13700960D01*
X14520539Y-13700960D02*
X14511015Y-13681912D01*
X14511015Y-13681912D02*
X14511015Y-13510484D01*
X14691968Y-13700960D02*
X14672920Y-13710484D01*
X14672920Y-13710484D02*
X14634825Y-13710484D01*
X14634825Y-13710484D02*
X14615777Y-13700960D01*
X14615777Y-13700960D02*
X14606253Y-13681912D01*
X14606253Y-13681912D02*
X14606253Y-13605722D01*
X14606253Y-13605722D02*
X14615777Y-13586674D01*
X14615777Y-13586674D02*
X14634825Y-13577150D01*
X14634825Y-13577150D02*
X14672920Y-13577150D01*
X14672920Y-13577150D02*
X14691968Y-13586674D01*
X14691968Y-13586674D02*
X14701491Y-13605722D01*
X14701491Y-13605722D02*
X14701491Y-13624769D01*
X14701491Y-13624769D02*
X14606253Y-13643817D01*
X14777682Y-13700960D02*
X14796730Y-13710484D01*
X14796730Y-13710484D02*
X14834825Y-13710484D01*
X14834825Y-13710484D02*
X14853872Y-13700960D01*
X14853872Y-13700960D02*
X14863396Y-13681912D01*
X14863396Y-13681912D02*
X14863396Y-13672388D01*
X14863396Y-13672388D02*
X14853872Y-13653341D01*
X14853872Y-13653341D02*
X14834825Y-13643817D01*
X14834825Y-13643817D02*
X14806253Y-13643817D01*
X14806253Y-13643817D02*
X14787206Y-13634293D01*
X14787206Y-13634293D02*
X14777682Y-13615246D01*
X14777682Y-13615246D02*
X14777682Y-13605722D01*
X14777682Y-13605722D02*
X14787206Y-13586674D01*
X14787206Y-13586674D02*
X14806253Y-13577150D01*
X14806253Y-13577150D02*
X14834825Y-13577150D01*
X14834825Y-13577150D02*
X14853872Y-13586674D01*
X15101492Y-13634293D02*
X15253873Y-13634293D01*
X15177682Y-13710484D02*
X15177682Y-13558103D01*
X15587206Y-13577150D02*
X15587206Y-13710484D01*
X15539587Y-13500960D02*
X15491968Y-13643817D01*
X15491968Y-13643817D02*
X15615777Y-13643817D01*
X15834825Y-13700960D02*
X15853873Y-13710484D01*
X15853873Y-13710484D02*
X15891968Y-13710484D01*
X15891968Y-13710484D02*
X15911015Y-13700960D01*
X15911015Y-13700960D02*
X15920539Y-13681912D01*
X15920539Y-13681912D02*
X15920539Y-13672388D01*
X15920539Y-13672388D02*
X15911015Y-13653341D01*
X15911015Y-13653341D02*
X15891968Y-13643817D01*
X15891968Y-13643817D02*
X15863396Y-13643817D01*
X15863396Y-13643817D02*
X15844349Y-13634293D01*
X15844349Y-13634293D02*
X15834825Y-13615246D01*
X15834825Y-13615246D02*
X15834825Y-13605722D01*
X15834825Y-13605722D02*
X15844349Y-13586674D01*
X15844349Y-13586674D02*
X15863396Y-13577150D01*
X15863396Y-13577150D02*
X15891968Y-13577150D01*
X15891968Y-13577150D02*
X15911015Y-13586674D01*
X16034825Y-13710484D02*
X16015777Y-13700960D01*
X16015777Y-13700960D02*
X16006254Y-13681912D01*
X16006254Y-13681912D02*
X16006254Y-13510484D01*
X16139587Y-13710484D02*
X16120539Y-13700960D01*
X16120539Y-13700960D02*
X16111015Y-13691436D01*
X16111015Y-13691436D02*
X16101492Y-13672388D01*
X16101492Y-13672388D02*
X16101492Y-13615246D01*
X16101492Y-13615246D02*
X16111015Y-13596198D01*
X16111015Y-13596198D02*
X16120539Y-13586674D01*
X16120539Y-13586674D02*
X16139587Y-13577150D01*
X16139587Y-13577150D02*
X16168158Y-13577150D01*
X16168158Y-13577150D02*
X16187206Y-13586674D01*
X16187206Y-13586674D02*
X16196730Y-13596198D01*
X16196730Y-13596198D02*
X16206254Y-13615246D01*
X16206254Y-13615246D02*
X16206254Y-13672388D01*
X16206254Y-13672388D02*
X16196730Y-13691436D01*
X16196730Y-13691436D02*
X16187206Y-13700960D01*
X16187206Y-13700960D02*
X16168158Y-13710484D01*
X16168158Y-13710484D02*
X16139587Y-13710484D01*
X16263396Y-13577150D02*
X16339587Y-13577150D01*
X16291968Y-13510484D02*
X16291968Y-13681912D01*
X16291968Y-13681912D02*
X16301492Y-13700960D01*
X16301492Y-13700960D02*
X16320539Y-13710484D01*
X16320539Y-13710484D02*
X16339587Y-13710484D01*
X16396730Y-13700960D02*
X16415777Y-13710484D01*
X16415777Y-13710484D02*
X16453873Y-13710484D01*
X16453873Y-13710484D02*
X16472920Y-13700960D01*
X16472920Y-13700960D02*
X16482444Y-13681912D01*
X16482444Y-13681912D02*
X16482444Y-13672388D01*
X16482444Y-13672388D02*
X16472920Y-13653341D01*
X16472920Y-13653341D02*
X16453873Y-13643817D01*
X16453873Y-13643817D02*
X16425301Y-13643817D01*
X16425301Y-13643817D02*
X16406254Y-13634293D01*
X16406254Y-13634293D02*
X16396730Y-13615246D01*
X16396730Y-13615246D02*
X16396730Y-13605722D01*
X16396730Y-13605722D02*
X16406254Y-13586674D01*
X16406254Y-13586674D02*
X16425301Y-13577150D01*
X16425301Y-13577150D02*
X16453873Y-13577150D01*
X16453873Y-13577150D02*
X16472920Y-13586674D01*
X16549111Y-13786674D02*
X16558635Y-13777150D01*
X16558635Y-13777150D02*
X16577682Y-13748579D01*
X16577682Y-13748579D02*
X16587206Y-13729531D01*
X16587206Y-13729531D02*
X16596730Y-13700960D01*
X16596730Y-13700960D02*
X16606254Y-13653341D01*
X16606254Y-13653341D02*
X16606254Y-13615246D01*
X16606254Y-13615246D02*
X16596730Y-13567627D01*
X16596730Y-13567627D02*
X16587206Y-13539055D01*
X16587206Y-13539055D02*
X16577682Y-13520008D01*
X16577682Y-13520008D02*
X16558635Y-13491436D01*
X16558635Y-13491436D02*
X16549111Y-13481912D01*
M02*
