%TF.GenerationSoftware,KiCad,Pcbnew,7.0.9*%
%TF.CreationDate,2023-11-29T23:53:55+08:00*%
%TF.ProjectId,SynthCard,53796e74-6843-4617-9264-2e6b69636164,rev?*%
%TF.SameCoordinates,Original*%
%TF.FileFunction,Drillmap*%
%TF.FilePolarity,Positive*%
%FSLAX45Y45*%
G04 Gerber Fmt 4.5, Leading zero omitted, Abs format (unit mm)*
G04 Created by KiCad (PCBNEW 7.0.9) date 2023-11-29 23:53:55*
%MOMM*%
%LPD*%
G01*
G04 APERTURE LIST*
%ADD10C,0.100000*%
%ADD11C,0.200000*%
%ADD12C,0.260000*%
G04 APERTURE END LIST*
D10*
X10160000Y-12192000D02*
G75*
G03*
X10414000Y-12446000I254000J0D01*
G01*
X17018000Y-8128000D02*
G75*
G03*
X16764000Y-7874000I-254000J0D01*
G01*
X16764000Y-12446000D02*
X10414000Y-12446000D01*
X10414000Y-7874000D02*
G75*
G03*
X10160000Y-8128000I0J-254000D01*
G01*
X10160000Y-12192000D02*
X10160000Y-8128000D01*
X10414000Y-7874000D02*
X16764000Y-7874000D01*
X16764000Y-12446000D02*
G75*
G03*
X17018000Y-12192000I0J254000D01*
G01*
X17018000Y-8128000D02*
X17018000Y-12192000D01*
D11*
D12*
X10538000Y-8643000D02*
X10798000Y-8903000D01*
X10798000Y-8643000D02*
X10538000Y-8903000D01*
X10998000Y-8643000D02*
X11258000Y-8903000D01*
X11258000Y-8643000D02*
X10998000Y-8903000D01*
D11*
X10415777Y-12762484D02*
X10415777Y-12562484D01*
X10415777Y-12562484D02*
X10463396Y-12562484D01*
X10463396Y-12562484D02*
X10491967Y-12572008D01*
X10491967Y-12572008D02*
X10511015Y-12591055D01*
X10511015Y-12591055D02*
X10520539Y-12610103D01*
X10520539Y-12610103D02*
X10530063Y-12648198D01*
X10530063Y-12648198D02*
X10530063Y-12676769D01*
X10530063Y-12676769D02*
X10520539Y-12714865D01*
X10520539Y-12714865D02*
X10511015Y-12733912D01*
X10511015Y-12733912D02*
X10491967Y-12752960D01*
X10491967Y-12752960D02*
X10463396Y-12762484D01*
X10463396Y-12762484D02*
X10415777Y-12762484D01*
X10615777Y-12762484D02*
X10615777Y-12629150D01*
X10615777Y-12667246D02*
X10625301Y-12648198D01*
X10625301Y-12648198D02*
X10634824Y-12638674D01*
X10634824Y-12638674D02*
X10653872Y-12629150D01*
X10653872Y-12629150D02*
X10672920Y-12629150D01*
X10739586Y-12762484D02*
X10739586Y-12629150D01*
X10739586Y-12562484D02*
X10730063Y-12572008D01*
X10730063Y-12572008D02*
X10739586Y-12581531D01*
X10739586Y-12581531D02*
X10749110Y-12572008D01*
X10749110Y-12572008D02*
X10739586Y-12562484D01*
X10739586Y-12562484D02*
X10739586Y-12581531D01*
X10863396Y-12762484D02*
X10844348Y-12752960D01*
X10844348Y-12752960D02*
X10834824Y-12733912D01*
X10834824Y-12733912D02*
X10834824Y-12562484D01*
X10968158Y-12762484D02*
X10949110Y-12752960D01*
X10949110Y-12752960D02*
X10939586Y-12733912D01*
X10939586Y-12733912D02*
X10939586Y-12562484D01*
X11196729Y-12762484D02*
X11196729Y-12562484D01*
X11196729Y-12562484D02*
X11263396Y-12705341D01*
X11263396Y-12705341D02*
X11330062Y-12562484D01*
X11330062Y-12562484D02*
X11330062Y-12762484D01*
X11511015Y-12762484D02*
X11511015Y-12657722D01*
X11511015Y-12657722D02*
X11501491Y-12638674D01*
X11501491Y-12638674D02*
X11482443Y-12629150D01*
X11482443Y-12629150D02*
X11444348Y-12629150D01*
X11444348Y-12629150D02*
X11425301Y-12638674D01*
X11511015Y-12752960D02*
X11491967Y-12762484D01*
X11491967Y-12762484D02*
X11444348Y-12762484D01*
X11444348Y-12762484D02*
X11425301Y-12752960D01*
X11425301Y-12752960D02*
X11415777Y-12733912D01*
X11415777Y-12733912D02*
X11415777Y-12714865D01*
X11415777Y-12714865D02*
X11425301Y-12695817D01*
X11425301Y-12695817D02*
X11444348Y-12686293D01*
X11444348Y-12686293D02*
X11491967Y-12686293D01*
X11491967Y-12686293D02*
X11511015Y-12676769D01*
X11606253Y-12629150D02*
X11606253Y-12829150D01*
X11606253Y-12638674D02*
X11625301Y-12629150D01*
X11625301Y-12629150D02*
X11663396Y-12629150D01*
X11663396Y-12629150D02*
X11682443Y-12638674D01*
X11682443Y-12638674D02*
X11691967Y-12648198D01*
X11691967Y-12648198D02*
X11701491Y-12667246D01*
X11701491Y-12667246D02*
X11701491Y-12724388D01*
X11701491Y-12724388D02*
X11691967Y-12743436D01*
X11691967Y-12743436D02*
X11682443Y-12752960D01*
X11682443Y-12752960D02*
X11663396Y-12762484D01*
X11663396Y-12762484D02*
X11625301Y-12762484D01*
X11625301Y-12762484D02*
X11606253Y-12752960D01*
X11787205Y-12743436D02*
X11796729Y-12752960D01*
X11796729Y-12752960D02*
X11787205Y-12762484D01*
X11787205Y-12762484D02*
X11777682Y-12752960D01*
X11777682Y-12752960D02*
X11787205Y-12743436D01*
X11787205Y-12743436D02*
X11787205Y-12762484D01*
X11787205Y-12638674D02*
X11796729Y-12648198D01*
X11796729Y-12648198D02*
X11787205Y-12657722D01*
X11787205Y-12657722D02*
X11777682Y-12648198D01*
X11777682Y-12648198D02*
X11787205Y-12638674D01*
X11787205Y-12638674D02*
X11787205Y-12657722D01*
X9955000Y-12991000D02*
X10155000Y-13191000D01*
X10155000Y-12991000D02*
X9955000Y-13191000D01*
X10406253Y-13001531D02*
X10415777Y-12992008D01*
X10415777Y-12992008D02*
X10434824Y-12982484D01*
X10434824Y-12982484D02*
X10482444Y-12982484D01*
X10482444Y-12982484D02*
X10501491Y-12992008D01*
X10501491Y-12992008D02*
X10511015Y-13001531D01*
X10511015Y-13001531D02*
X10520539Y-13020579D01*
X10520539Y-13020579D02*
X10520539Y-13039627D01*
X10520539Y-13039627D02*
X10511015Y-13068198D01*
X10511015Y-13068198D02*
X10396729Y-13182484D01*
X10396729Y-13182484D02*
X10520539Y-13182484D01*
X10606253Y-13163436D02*
X10615777Y-13172960D01*
X10615777Y-13172960D02*
X10606253Y-13182484D01*
X10606253Y-13182484D02*
X10596729Y-13172960D01*
X10596729Y-13172960D02*
X10606253Y-13163436D01*
X10606253Y-13163436D02*
X10606253Y-13182484D01*
X10787205Y-12982484D02*
X10749110Y-12982484D01*
X10749110Y-12982484D02*
X10730063Y-12992008D01*
X10730063Y-12992008D02*
X10720539Y-13001531D01*
X10720539Y-13001531D02*
X10701491Y-13030103D01*
X10701491Y-13030103D02*
X10691967Y-13068198D01*
X10691967Y-13068198D02*
X10691967Y-13144388D01*
X10691967Y-13144388D02*
X10701491Y-13163436D01*
X10701491Y-13163436D02*
X10711015Y-13172960D01*
X10711015Y-13172960D02*
X10730063Y-13182484D01*
X10730063Y-13182484D02*
X10768158Y-13182484D01*
X10768158Y-13182484D02*
X10787205Y-13172960D01*
X10787205Y-13172960D02*
X10796729Y-13163436D01*
X10796729Y-13163436D02*
X10806253Y-13144388D01*
X10806253Y-13144388D02*
X10806253Y-13096769D01*
X10806253Y-13096769D02*
X10796729Y-13077722D01*
X10796729Y-13077722D02*
X10787205Y-13068198D01*
X10787205Y-13068198D02*
X10768158Y-13058674D01*
X10768158Y-13058674D02*
X10730063Y-13058674D01*
X10730063Y-13058674D02*
X10711015Y-13068198D01*
X10711015Y-13068198D02*
X10701491Y-13077722D01*
X10701491Y-13077722D02*
X10691967Y-13096769D01*
X10930063Y-12982484D02*
X10949110Y-12982484D01*
X10949110Y-12982484D02*
X10968158Y-12992008D01*
X10968158Y-12992008D02*
X10977682Y-13001531D01*
X10977682Y-13001531D02*
X10987205Y-13020579D01*
X10987205Y-13020579D02*
X10996729Y-13058674D01*
X10996729Y-13058674D02*
X10996729Y-13106293D01*
X10996729Y-13106293D02*
X10987205Y-13144388D01*
X10987205Y-13144388D02*
X10977682Y-13163436D01*
X10977682Y-13163436D02*
X10968158Y-13172960D01*
X10968158Y-13172960D02*
X10949110Y-13182484D01*
X10949110Y-13182484D02*
X10930063Y-13182484D01*
X10930063Y-13182484D02*
X10911015Y-13172960D01*
X10911015Y-13172960D02*
X10901491Y-13163436D01*
X10901491Y-13163436D02*
X10891967Y-13144388D01*
X10891967Y-13144388D02*
X10882444Y-13106293D01*
X10882444Y-13106293D02*
X10882444Y-13058674D01*
X10882444Y-13058674D02*
X10891967Y-13020579D01*
X10891967Y-13020579D02*
X10901491Y-13001531D01*
X10901491Y-13001531D02*
X10911015Y-12992008D01*
X10911015Y-12992008D02*
X10930063Y-12982484D01*
X11120539Y-12982484D02*
X11139586Y-12982484D01*
X11139586Y-12982484D02*
X11158634Y-12992008D01*
X11158634Y-12992008D02*
X11168158Y-13001531D01*
X11168158Y-13001531D02*
X11177682Y-13020579D01*
X11177682Y-13020579D02*
X11187205Y-13058674D01*
X11187205Y-13058674D02*
X11187205Y-13106293D01*
X11187205Y-13106293D02*
X11177682Y-13144388D01*
X11177682Y-13144388D02*
X11168158Y-13163436D01*
X11168158Y-13163436D02*
X11158634Y-13172960D01*
X11158634Y-13172960D02*
X11139586Y-13182484D01*
X11139586Y-13182484D02*
X11120539Y-13182484D01*
X11120539Y-13182484D02*
X11101491Y-13172960D01*
X11101491Y-13172960D02*
X11091967Y-13163436D01*
X11091967Y-13163436D02*
X11082444Y-13144388D01*
X11082444Y-13144388D02*
X11072920Y-13106293D01*
X11072920Y-13106293D02*
X11072920Y-13058674D01*
X11072920Y-13058674D02*
X11082444Y-13020579D01*
X11082444Y-13020579D02*
X11091967Y-13001531D01*
X11091967Y-13001531D02*
X11101491Y-12992008D01*
X11101491Y-12992008D02*
X11120539Y-12982484D01*
X11272920Y-13182484D02*
X11272920Y-13049150D01*
X11272920Y-13068198D02*
X11282443Y-13058674D01*
X11282443Y-13058674D02*
X11301491Y-13049150D01*
X11301491Y-13049150D02*
X11330063Y-13049150D01*
X11330063Y-13049150D02*
X11349110Y-13058674D01*
X11349110Y-13058674D02*
X11358634Y-13077722D01*
X11358634Y-13077722D02*
X11358634Y-13182484D01*
X11358634Y-13077722D02*
X11368158Y-13058674D01*
X11368158Y-13058674D02*
X11387205Y-13049150D01*
X11387205Y-13049150D02*
X11415777Y-13049150D01*
X11415777Y-13049150D02*
X11434824Y-13058674D01*
X11434824Y-13058674D02*
X11444348Y-13077722D01*
X11444348Y-13077722D02*
X11444348Y-13182484D01*
X11539586Y-13182484D02*
X11539586Y-13049150D01*
X11539586Y-13068198D02*
X11549110Y-13058674D01*
X11549110Y-13058674D02*
X11568158Y-13049150D01*
X11568158Y-13049150D02*
X11596729Y-13049150D01*
X11596729Y-13049150D02*
X11615777Y-13058674D01*
X11615777Y-13058674D02*
X11625301Y-13077722D01*
X11625301Y-13077722D02*
X11625301Y-13182484D01*
X11625301Y-13077722D02*
X11634824Y-13058674D01*
X11634824Y-13058674D02*
X11653872Y-13049150D01*
X11653872Y-13049150D02*
X11682443Y-13049150D01*
X11682443Y-13049150D02*
X11701491Y-13058674D01*
X11701491Y-13058674D02*
X11711015Y-13077722D01*
X11711015Y-13077722D02*
X11711015Y-13182484D01*
X12101491Y-12972960D02*
X11930063Y-13230103D01*
X12358634Y-12982484D02*
X12377682Y-12982484D01*
X12377682Y-12982484D02*
X12396729Y-12992008D01*
X12396729Y-12992008D02*
X12406253Y-13001531D01*
X12406253Y-13001531D02*
X12415777Y-13020579D01*
X12415777Y-13020579D02*
X12425301Y-13058674D01*
X12425301Y-13058674D02*
X12425301Y-13106293D01*
X12425301Y-13106293D02*
X12415777Y-13144388D01*
X12415777Y-13144388D02*
X12406253Y-13163436D01*
X12406253Y-13163436D02*
X12396729Y-13172960D01*
X12396729Y-13172960D02*
X12377682Y-13182484D01*
X12377682Y-13182484D02*
X12358634Y-13182484D01*
X12358634Y-13182484D02*
X12339586Y-13172960D01*
X12339586Y-13172960D02*
X12330063Y-13163436D01*
X12330063Y-13163436D02*
X12320539Y-13144388D01*
X12320539Y-13144388D02*
X12311015Y-13106293D01*
X12311015Y-13106293D02*
X12311015Y-13058674D01*
X12311015Y-13058674D02*
X12320539Y-13020579D01*
X12320539Y-13020579D02*
X12330063Y-13001531D01*
X12330063Y-13001531D02*
X12339586Y-12992008D01*
X12339586Y-12992008D02*
X12358634Y-12982484D01*
X12511015Y-13163436D02*
X12520539Y-13172960D01*
X12520539Y-13172960D02*
X12511015Y-13182484D01*
X12511015Y-13182484D02*
X12501491Y-13172960D01*
X12501491Y-13172960D02*
X12511015Y-13163436D01*
X12511015Y-13163436D02*
X12511015Y-13182484D01*
X12711015Y-13182484D02*
X12596729Y-13182484D01*
X12653872Y-13182484D02*
X12653872Y-12982484D01*
X12653872Y-12982484D02*
X12634825Y-13011055D01*
X12634825Y-13011055D02*
X12615777Y-13030103D01*
X12615777Y-13030103D02*
X12596729Y-13039627D01*
X12834825Y-12982484D02*
X12853872Y-12982484D01*
X12853872Y-12982484D02*
X12872920Y-12992008D01*
X12872920Y-12992008D02*
X12882444Y-13001531D01*
X12882444Y-13001531D02*
X12891967Y-13020579D01*
X12891967Y-13020579D02*
X12901491Y-13058674D01*
X12901491Y-13058674D02*
X12901491Y-13106293D01*
X12901491Y-13106293D02*
X12891967Y-13144388D01*
X12891967Y-13144388D02*
X12882444Y-13163436D01*
X12882444Y-13163436D02*
X12872920Y-13172960D01*
X12872920Y-13172960D02*
X12853872Y-13182484D01*
X12853872Y-13182484D02*
X12834825Y-13182484D01*
X12834825Y-13182484D02*
X12815777Y-13172960D01*
X12815777Y-13172960D02*
X12806253Y-13163436D01*
X12806253Y-13163436D02*
X12796729Y-13144388D01*
X12796729Y-13144388D02*
X12787206Y-13106293D01*
X12787206Y-13106293D02*
X12787206Y-13058674D01*
X12787206Y-13058674D02*
X12796729Y-13020579D01*
X12796729Y-13020579D02*
X12806253Y-13001531D01*
X12806253Y-13001531D02*
X12815777Y-12992008D01*
X12815777Y-12992008D02*
X12834825Y-12982484D01*
X12977682Y-13001531D02*
X12987206Y-12992008D01*
X12987206Y-12992008D02*
X13006253Y-12982484D01*
X13006253Y-12982484D02*
X13053872Y-12982484D01*
X13053872Y-12982484D02*
X13072920Y-12992008D01*
X13072920Y-12992008D02*
X13082444Y-13001531D01*
X13082444Y-13001531D02*
X13091967Y-13020579D01*
X13091967Y-13020579D02*
X13091967Y-13039627D01*
X13091967Y-13039627D02*
X13082444Y-13068198D01*
X13082444Y-13068198D02*
X12968158Y-13182484D01*
X12968158Y-13182484D02*
X13091967Y-13182484D01*
X13263396Y-13049150D02*
X13263396Y-13182484D01*
X13215777Y-12972960D02*
X13168158Y-13115817D01*
X13168158Y-13115817D02*
X13291967Y-13115817D01*
X13358634Y-12982484D02*
X13358634Y-13020579D01*
X13434825Y-12982484D02*
X13434825Y-13020579D01*
X13730063Y-13258674D02*
X13720539Y-13249150D01*
X13720539Y-13249150D02*
X13701491Y-13220579D01*
X13701491Y-13220579D02*
X13691968Y-13201531D01*
X13691968Y-13201531D02*
X13682444Y-13172960D01*
X13682444Y-13172960D02*
X13672920Y-13125341D01*
X13672920Y-13125341D02*
X13672920Y-13087246D01*
X13672920Y-13087246D02*
X13682444Y-13039627D01*
X13682444Y-13039627D02*
X13691968Y-13011055D01*
X13691968Y-13011055D02*
X13701491Y-12992008D01*
X13701491Y-12992008D02*
X13720539Y-12963436D01*
X13720539Y-12963436D02*
X13730063Y-12953912D01*
X13796729Y-13001531D02*
X13806253Y-12992008D01*
X13806253Y-12992008D02*
X13825301Y-12982484D01*
X13825301Y-12982484D02*
X13872920Y-12982484D01*
X13872920Y-12982484D02*
X13891968Y-12992008D01*
X13891968Y-12992008D02*
X13901491Y-13001531D01*
X13901491Y-13001531D02*
X13911015Y-13020579D01*
X13911015Y-13020579D02*
X13911015Y-13039627D01*
X13911015Y-13039627D02*
X13901491Y-13068198D01*
X13901491Y-13068198D02*
X13787206Y-13182484D01*
X13787206Y-13182484D02*
X13911015Y-13182484D01*
X14149110Y-13182484D02*
X14149110Y-12982484D01*
X14234825Y-13182484D02*
X14234825Y-13077722D01*
X14234825Y-13077722D02*
X14225301Y-13058674D01*
X14225301Y-13058674D02*
X14206253Y-13049150D01*
X14206253Y-13049150D02*
X14177682Y-13049150D01*
X14177682Y-13049150D02*
X14158634Y-13058674D01*
X14158634Y-13058674D02*
X14149110Y-13068198D01*
X14358634Y-13182484D02*
X14339587Y-13172960D01*
X14339587Y-13172960D02*
X14330063Y-13163436D01*
X14330063Y-13163436D02*
X14320539Y-13144388D01*
X14320539Y-13144388D02*
X14320539Y-13087246D01*
X14320539Y-13087246D02*
X14330063Y-13068198D01*
X14330063Y-13068198D02*
X14339587Y-13058674D01*
X14339587Y-13058674D02*
X14358634Y-13049150D01*
X14358634Y-13049150D02*
X14387206Y-13049150D01*
X14387206Y-13049150D02*
X14406253Y-13058674D01*
X14406253Y-13058674D02*
X14415777Y-13068198D01*
X14415777Y-13068198D02*
X14425301Y-13087246D01*
X14425301Y-13087246D02*
X14425301Y-13144388D01*
X14425301Y-13144388D02*
X14415777Y-13163436D01*
X14415777Y-13163436D02*
X14406253Y-13172960D01*
X14406253Y-13172960D02*
X14387206Y-13182484D01*
X14387206Y-13182484D02*
X14358634Y-13182484D01*
X14539587Y-13182484D02*
X14520539Y-13172960D01*
X14520539Y-13172960D02*
X14511015Y-13153912D01*
X14511015Y-13153912D02*
X14511015Y-12982484D01*
X14691968Y-13172960D02*
X14672920Y-13182484D01*
X14672920Y-13182484D02*
X14634825Y-13182484D01*
X14634825Y-13182484D02*
X14615777Y-13172960D01*
X14615777Y-13172960D02*
X14606253Y-13153912D01*
X14606253Y-13153912D02*
X14606253Y-13077722D01*
X14606253Y-13077722D02*
X14615777Y-13058674D01*
X14615777Y-13058674D02*
X14634825Y-13049150D01*
X14634825Y-13049150D02*
X14672920Y-13049150D01*
X14672920Y-13049150D02*
X14691968Y-13058674D01*
X14691968Y-13058674D02*
X14701491Y-13077722D01*
X14701491Y-13077722D02*
X14701491Y-13096769D01*
X14701491Y-13096769D02*
X14606253Y-13115817D01*
X14777682Y-13172960D02*
X14796730Y-13182484D01*
X14796730Y-13182484D02*
X14834825Y-13182484D01*
X14834825Y-13182484D02*
X14853872Y-13172960D01*
X14853872Y-13172960D02*
X14863396Y-13153912D01*
X14863396Y-13153912D02*
X14863396Y-13144388D01*
X14863396Y-13144388D02*
X14853872Y-13125341D01*
X14853872Y-13125341D02*
X14834825Y-13115817D01*
X14834825Y-13115817D02*
X14806253Y-13115817D01*
X14806253Y-13115817D02*
X14787206Y-13106293D01*
X14787206Y-13106293D02*
X14777682Y-13087246D01*
X14777682Y-13087246D02*
X14777682Y-13077722D01*
X14777682Y-13077722D02*
X14787206Y-13058674D01*
X14787206Y-13058674D02*
X14806253Y-13049150D01*
X14806253Y-13049150D02*
X14834825Y-13049150D01*
X14834825Y-13049150D02*
X14853872Y-13058674D01*
X14930063Y-13258674D02*
X14939587Y-13249150D01*
X14939587Y-13249150D02*
X14958634Y-13220579D01*
X14958634Y-13220579D02*
X14968158Y-13201531D01*
X14968158Y-13201531D02*
X14977682Y-13172960D01*
X14977682Y-13172960D02*
X14987206Y-13125341D01*
X14987206Y-13125341D02*
X14987206Y-13087246D01*
X14987206Y-13087246D02*
X14977682Y-13039627D01*
X14977682Y-13039627D02*
X14968158Y-13011055D01*
X14968158Y-13011055D02*
X14958634Y-12992008D01*
X14958634Y-12992008D02*
X14939587Y-12963436D01*
X14939587Y-12963436D02*
X14930063Y-12953912D01*
X15291968Y-13258674D02*
X15282444Y-13249150D01*
X15282444Y-13249150D02*
X15263396Y-13220579D01*
X15263396Y-13220579D02*
X15253872Y-13201531D01*
X15253872Y-13201531D02*
X15244349Y-13172960D01*
X15244349Y-13172960D02*
X15234825Y-13125341D01*
X15234825Y-13125341D02*
X15234825Y-13087246D01*
X15234825Y-13087246D02*
X15244349Y-13039627D01*
X15244349Y-13039627D02*
X15253872Y-13011055D01*
X15253872Y-13011055D02*
X15263396Y-12992008D01*
X15263396Y-12992008D02*
X15282444Y-12963436D01*
X15282444Y-12963436D02*
X15291968Y-12953912D01*
X15368158Y-13049150D02*
X15368158Y-13182484D01*
X15368158Y-13068198D02*
X15377682Y-13058674D01*
X15377682Y-13058674D02*
X15396730Y-13049150D01*
X15396730Y-13049150D02*
X15425301Y-13049150D01*
X15425301Y-13049150D02*
X15444349Y-13058674D01*
X15444349Y-13058674D02*
X15453872Y-13077722D01*
X15453872Y-13077722D02*
X15453872Y-13182484D01*
X15577682Y-13182484D02*
X15558634Y-13172960D01*
X15558634Y-13172960D02*
X15549111Y-13163436D01*
X15549111Y-13163436D02*
X15539587Y-13144388D01*
X15539587Y-13144388D02*
X15539587Y-13087246D01*
X15539587Y-13087246D02*
X15549111Y-13068198D01*
X15549111Y-13068198D02*
X15558634Y-13058674D01*
X15558634Y-13058674D02*
X15577682Y-13049150D01*
X15577682Y-13049150D02*
X15606253Y-13049150D01*
X15606253Y-13049150D02*
X15625301Y-13058674D01*
X15625301Y-13058674D02*
X15634825Y-13068198D01*
X15634825Y-13068198D02*
X15644349Y-13087246D01*
X15644349Y-13087246D02*
X15644349Y-13144388D01*
X15644349Y-13144388D02*
X15634825Y-13163436D01*
X15634825Y-13163436D02*
X15625301Y-13172960D01*
X15625301Y-13172960D02*
X15606253Y-13182484D01*
X15606253Y-13182484D02*
X15577682Y-13182484D01*
X15701492Y-13049150D02*
X15777682Y-13049150D01*
X15730063Y-12982484D02*
X15730063Y-13153912D01*
X15730063Y-13153912D02*
X15739587Y-13172960D01*
X15739587Y-13172960D02*
X15758634Y-13182484D01*
X15758634Y-13182484D02*
X15777682Y-13182484D01*
X15996730Y-13049150D02*
X15996730Y-13249150D01*
X15996730Y-13058674D02*
X16015777Y-13049150D01*
X16015777Y-13049150D02*
X16053873Y-13049150D01*
X16053873Y-13049150D02*
X16072920Y-13058674D01*
X16072920Y-13058674D02*
X16082444Y-13068198D01*
X16082444Y-13068198D02*
X16091968Y-13087246D01*
X16091968Y-13087246D02*
X16091968Y-13144388D01*
X16091968Y-13144388D02*
X16082444Y-13163436D01*
X16082444Y-13163436D02*
X16072920Y-13172960D01*
X16072920Y-13172960D02*
X16053873Y-13182484D01*
X16053873Y-13182484D02*
X16015777Y-13182484D01*
X16015777Y-13182484D02*
X15996730Y-13172960D01*
X16206253Y-13182484D02*
X16187206Y-13172960D01*
X16187206Y-13172960D02*
X16177682Y-13153912D01*
X16177682Y-13153912D02*
X16177682Y-12982484D01*
X16368158Y-13182484D02*
X16368158Y-13077722D01*
X16368158Y-13077722D02*
X16358634Y-13058674D01*
X16358634Y-13058674D02*
X16339587Y-13049150D01*
X16339587Y-13049150D02*
X16301492Y-13049150D01*
X16301492Y-13049150D02*
X16282444Y-13058674D01*
X16368158Y-13172960D02*
X16349111Y-13182484D01*
X16349111Y-13182484D02*
X16301492Y-13182484D01*
X16301492Y-13182484D02*
X16282444Y-13172960D01*
X16282444Y-13172960D02*
X16272920Y-13153912D01*
X16272920Y-13153912D02*
X16272920Y-13134865D01*
X16272920Y-13134865D02*
X16282444Y-13115817D01*
X16282444Y-13115817D02*
X16301492Y-13106293D01*
X16301492Y-13106293D02*
X16349111Y-13106293D01*
X16349111Y-13106293D02*
X16368158Y-13096769D01*
X16434825Y-13049150D02*
X16511015Y-13049150D01*
X16463396Y-12982484D02*
X16463396Y-13153912D01*
X16463396Y-13153912D02*
X16472920Y-13172960D01*
X16472920Y-13172960D02*
X16491968Y-13182484D01*
X16491968Y-13182484D02*
X16511015Y-13182484D01*
X16653873Y-13172960D02*
X16634825Y-13182484D01*
X16634825Y-13182484D02*
X16596730Y-13182484D01*
X16596730Y-13182484D02*
X16577682Y-13172960D01*
X16577682Y-13172960D02*
X16568158Y-13153912D01*
X16568158Y-13153912D02*
X16568158Y-13077722D01*
X16568158Y-13077722D02*
X16577682Y-13058674D01*
X16577682Y-13058674D02*
X16596730Y-13049150D01*
X16596730Y-13049150D02*
X16634825Y-13049150D01*
X16634825Y-13049150D02*
X16653873Y-13058674D01*
X16653873Y-13058674D02*
X16663396Y-13077722D01*
X16663396Y-13077722D02*
X16663396Y-13096769D01*
X16663396Y-13096769D02*
X16568158Y-13115817D01*
X16834825Y-13182484D02*
X16834825Y-12982484D01*
X16834825Y-13172960D02*
X16815777Y-13182484D01*
X16815777Y-13182484D02*
X16777682Y-13182484D01*
X16777682Y-13182484D02*
X16758634Y-13172960D01*
X16758634Y-13172960D02*
X16749111Y-13163436D01*
X16749111Y-13163436D02*
X16739587Y-13144388D01*
X16739587Y-13144388D02*
X16739587Y-13087246D01*
X16739587Y-13087246D02*
X16749111Y-13068198D01*
X16749111Y-13068198D02*
X16758634Y-13058674D01*
X16758634Y-13058674D02*
X16777682Y-13049150D01*
X16777682Y-13049150D02*
X16815777Y-13049150D01*
X16815777Y-13049150D02*
X16834825Y-13058674D01*
X16911016Y-13258674D02*
X16920539Y-13249150D01*
X16920539Y-13249150D02*
X16939587Y-13220579D01*
X16939587Y-13220579D02*
X16949111Y-13201531D01*
X16949111Y-13201531D02*
X16958635Y-13172960D01*
X16958635Y-13172960D02*
X16968158Y-13125341D01*
X16968158Y-13125341D02*
X16968158Y-13087246D01*
X16968158Y-13087246D02*
X16958635Y-13039627D01*
X16958635Y-13039627D02*
X16949111Y-13011055D01*
X16949111Y-13011055D02*
X16939587Y-12992008D01*
X16939587Y-12992008D02*
X16920539Y-12963436D01*
X16920539Y-12963436D02*
X16911016Y-12953912D01*
M02*
