M48
; DRILL file {KiCad 7.0.10+1} date Saturday, 10 February, 2024 04:40:51 PM
; FORMAT={-:-/ absolute / inch / decimal}
; #@! TF.CreationDate,2024-02-10T16:40:51+08:00
; #@! TF.GenerationSoftware,Kicad,Pcbnew,7.0.10+1
; #@! TF.FileFunction,Plated,1,2,PTH
FMAT,2
INCH
; #@! TA.AperFunction,Plated,PTH,ComponentDrill
T1C0.0315
; #@! TA.AperFunction,Plated,PTH,ComponentDrill
T2C0.0394
; #@! TA.AperFunction,Plated,PTH,ComponentDrill
T3C0.0433
%
G90
G05
T1
X4.7307Y-4.45
X4.7307Y-4.6469
X4.8811Y-4.45
X4.8811Y-4.55
X4.8811Y-4.65
X4.8811Y-4.75
X5.1811Y-4.45
X5.1811Y-4.55
X5.1811Y-4.65
X5.1811Y-4.75
X5.3307Y-4.45
X5.3307Y-4.75
X5.4807Y-4.45
X5.4807Y-4.55
X5.4807Y-4.65
X5.4807Y-4.75
X5.7807Y-4.45
X5.7807Y-4.55
X5.7807Y-4.65
X5.7807Y-4.75
X5.925Y-4.224
X5.925Y-4.3224
X5.9307Y-4.5531
X5.9307Y-4.75
T2
X4.2827Y-4.8
X4.3811Y-4.8
X4.4795Y-4.8
X6.2311Y-4.8
X6.3295Y-4.8
X6.428Y-4.8
T3
X4.2Y-3.95
X4.3811Y-3.95
X6.2394Y-4.045
X6.4206Y-4.045
T3
G00X4.1921Y-4.5185
M15
G01X4.1921Y-4.4909
M16
G05
G00X4.5701Y-4.5185
M15
G01X4.5701Y-4.4909
M16
G05
G00X6.1406Y-4.5185
M15
G01X6.1406Y-4.4909
M16
G05
G00X6.5185Y-4.5185
M15
G01X6.5185Y-4.4909
M16
G05
M30
