%TF.GenerationSoftware,KiCad,Pcbnew,7.0.10+1*%
%TF.CreationDate,2024-02-10T16:40:48+08:00*%
%TF.ProjectId,ohmify-synthcard,6f686d69-6679-42d7-9379-6e7468636172,v1.1*%
%TF.SameCoordinates,Original*%
%TF.FileFunction,Copper,L2,Bot*%
%TF.FilePolarity,Positive*%
%FSLAX46Y46*%
G04 Gerber Fmt 4.6, Leading zero omitted, Abs format (unit mm)*
G04 Created by KiCad (PCBNEW 7.0.10+1) date 2024-02-10 16:40:48*
%MOMM*%
%LPD*%
G01*
G04 APERTURE LIST*
G04 Aperture macros list*
%AMRoundRect*
0 Rectangle with rounded corners*
0 $1 Rounding radius*
0 $2 $3 $4 $5 $6 $7 $8 $9 X,Y pos of 4 corners*
0 Add a 4 corners polygon primitive as box body*
4,1,4,$2,$3,$4,$5,$6,$7,$8,$9,$2,$3,0*
0 Add four circle primitives for the rounded corners*
1,1,$1+$1,$2,$3*
1,1,$1+$1,$4,$5*
1,1,$1+$1,$6,$7*
1,1,$1+$1,$8,$9*
0 Add four rect primitives between the rounded corners*
20,1,$1+$1,$2,$3,$4,$5,0*
20,1,$1+$1,$4,$5,$6,$7,0*
20,1,$1+$1,$6,$7,$8,$9,0*
20,1,$1+$1,$8,$9,$2,$3,0*%
G04 Aperture macros list end*
%TA.AperFunction,ComponentPad*%
%ADD10C,1.600000*%
%TD*%
%TA.AperFunction,ComponentPad*%
%ADD11O,1.600000X1.600000*%
%TD*%
%TA.AperFunction,ComponentPad*%
%ADD12R,1.600000X1.600000*%
%TD*%
%TA.AperFunction,ComponentPad*%
%ADD13O,2.720000X3.240000*%
%TD*%
%TA.AperFunction,ComponentPad*%
%ADD14R,1.800000X1.800000*%
%TD*%
%TA.AperFunction,ComponentPad*%
%ADD15C,1.800000*%
%TD*%
%TA.AperFunction,ComponentPad*%
%ADD16RoundRect,0.250001X-0.799999X-0.799999X0.799999X-0.799999X0.799999X0.799999X-0.799999X0.799999X0*%
%TD*%
%TA.AperFunction,ComponentPad*%
%ADD17C,2.100000*%
%TD*%
%TA.AperFunction,ComponentPad*%
%ADD18RoundRect,0.250001X0.799999X0.799999X-0.799999X0.799999X-0.799999X-0.799999X0.799999X-0.799999X0*%
%TD*%
%TA.AperFunction,Conductor*%
%ADD19C,0.500000*%
%TD*%
G04 APERTURE END LIST*
D10*
%TO.P,R1,1*%
%TO.N,Net-(U1-THR)*%
X135400000Y-120650000D03*
D11*
%TO.P,R1,2*%
%TO.N,Net-(U1-DIS)*%
X135400000Y-113030000D03*
%TD*%
D10*
%TO.P,C2,1*%
%TO.N,Net-(U2-DIS)*%
X150640000Y-120650000D03*
%TO.P,C2,2*%
%TO.N,GND*%
X150640000Y-115650000D03*
%TD*%
D12*
%TO.P,C3,1*%
%TO.N,Net-(U2-Q)*%
X150495000Y-109790113D03*
D10*
%TO.P,C3,2*%
%TO.N,Net-(C3-Pad2)*%
X150495000Y-107290113D03*
%TD*%
%TO.P,C1,1*%
%TO.N,Net-(U1-THR)*%
X120160000Y-118030000D03*
%TO.P,C1,2*%
%TO.N,GND*%
X120160000Y-113030000D03*
%TD*%
D13*
%TO.P,RV1,*%
%TO.N,*%
X106480000Y-114420000D03*
X116080000Y-114420000D03*
D14*
%TO.P,RV1,1,1*%
%TO.N,+9V*%
X108780000Y-121920000D03*
D15*
%TO.P,RV1,2,2*%
X111280000Y-121920000D03*
%TO.P,RV1,3,3*%
%TO.N,Net-(U1-DIS)*%
X113780000Y-121920000D03*
%TD*%
D12*
%TO.P,U1,1,GND*%
%TO.N,GND*%
X123980000Y-113030000D03*
D11*
%TO.P,U1,2,TR*%
%TO.N,Net-(U1-THR)*%
X123980000Y-115570000D03*
%TO.P,U1,3,Q*%
%TO.N,Net-(U1-Q)*%
X123980000Y-118110000D03*
%TO.P,U1,4,R*%
%TO.N,+9V*%
X123980000Y-120650000D03*
%TO.P,U1,5,CV*%
%TO.N,unconnected-(U1-CV-Pad5)*%
X131600000Y-120650000D03*
%TO.P,U1,6,THR*%
%TO.N,Net-(U1-THR)*%
X131600000Y-118110000D03*
%TO.P,U1,7,DIS*%
%TO.N,Net-(U1-DIS)*%
X131600000Y-115570000D03*
%TO.P,U1,8,VCC*%
%TO.N,+9V*%
X131600000Y-113030000D03*
%TD*%
D16*
%TO.P,LS1,1,1*%
%TO.N,Net-(C3-Pad2)*%
X158482000Y-102743000D03*
D17*
%TO.P,LS1,2,2*%
%TO.N,GND*%
X163082000Y-102743000D03*
%TD*%
D18*
%TO.P,BT1,1,+*%
%TO.N,+9V*%
X111280000Y-100330000D03*
D17*
%TO.P,BT1,2,-*%
%TO.N,GND*%
X106680000Y-100330000D03*
%TD*%
D12*
%TO.P,U2,1,GND*%
%TO.N,GND*%
X139210000Y-113030000D03*
D11*
%TO.P,U2,2,TR*%
%TO.N,Net-(U1-Q)*%
X139210000Y-115570000D03*
%TO.P,U2,3,Q*%
%TO.N,Net-(U2-Q)*%
X139210000Y-118110000D03*
%TO.P,U2,4,R*%
%TO.N,+9V*%
X139210000Y-120650000D03*
%TO.P,U2,5,CV*%
%TO.N,unconnected-(U2-CV-Pad5)*%
X146830000Y-120650000D03*
%TO.P,U2,6,THR*%
%TO.N,Net-(U2-DIS)*%
X146830000Y-118110000D03*
%TO.P,U2,7,DIS*%
X146830000Y-115570000D03*
%TO.P,U2,8,VCC*%
%TO.N,+9V*%
X146830000Y-113030000D03*
%TD*%
D13*
%TO.P,RV2,*%
%TO.N,*%
X155970000Y-114420000D03*
X165570000Y-114420000D03*
D14*
%TO.P,RV2,1,1*%
%TO.N,+9V*%
X158270000Y-121920000D03*
D15*
%TO.P,RV2,2,2*%
X160770000Y-121920000D03*
%TO.P,RV2,3,3*%
%TO.N,Net-(U2-DIS)*%
X163270000Y-121920000D03*
%TD*%
D19*
%TO.N,Net-(U2-DIS)*%
X146830000Y-118110000D02*
X148100000Y-118110000D01*
X150640000Y-120650000D02*
X151439999Y-119850001D01*
X161200001Y-119850001D02*
X163270000Y-121920000D01*
X151439999Y-119850001D02*
X161200001Y-119850001D01*
X148100000Y-118110000D02*
X150640000Y-120650000D01*
X146830000Y-115570000D02*
X146830000Y-118110000D01*
%TO.N,Net-(U1-THR)*%
X129032000Y-118110000D02*
X131600000Y-118110000D01*
X122620000Y-115570000D02*
X120160000Y-118030000D01*
X123980000Y-115570000D02*
X126492000Y-115570000D01*
X131600000Y-118110000D02*
X132860000Y-118110000D01*
X132860000Y-118110000D02*
X135400000Y-120650000D01*
X123980000Y-115570000D02*
X122620000Y-115570000D01*
X126492000Y-115570000D02*
X129032000Y-118110000D01*
%TO.N,Net-(U1-DIS)*%
X132860000Y-115570000D02*
X135400000Y-113030000D01*
X131600000Y-115570000D02*
X132860000Y-115570000D01*
%TO.N,Net-(U1-Q)*%
X128425000Y-122555000D02*
X123980000Y-118110000D01*
X137160000Y-117620000D02*
X137160000Y-121920000D01*
X136525000Y-122555000D02*
X128425000Y-122555000D01*
X139210000Y-115570000D02*
X137160000Y-117620000D01*
X137160000Y-121920000D02*
X136525000Y-122555000D01*
%TD*%
%TA.AperFunction,Conductor*%
%TO.N,GND*%
G36*
X167583039Y-81299685D02*
G01*
X167628794Y-81352489D01*
X167640000Y-81404000D01*
X167640000Y-113732016D01*
X167620315Y-113799055D01*
X167567511Y-113844810D01*
X167498353Y-113854754D01*
X167434797Y-113825729D01*
X167397023Y-113766951D01*
X167394967Y-113758977D01*
X167364065Y-113620253D01*
X167364063Y-113620249D01*
X167364063Y-113620247D01*
X167266355Y-113364781D01*
X167132493Y-113126264D01*
X167058160Y-113030000D01*
X166965330Y-112909781D01*
X166965321Y-112909771D01*
X166768429Y-112719944D01*
X166768427Y-112719942D01*
X166707633Y-112676447D01*
X166545981Y-112560795D01*
X166538200Y-112556794D01*
X166302749Y-112435739D01*
X166302727Y-112435730D01*
X166043883Y-112347424D01*
X166043870Y-112347421D01*
X166043865Y-112347420D01*
X165774903Y-112297740D01*
X165501577Y-112287751D01*
X165229703Y-112317666D01*
X164965084Y-112386846D01*
X164713364Y-112493814D01*
X164479892Y-112636300D01*
X164479882Y-112636307D01*
X164269654Y-112811260D01*
X164269648Y-112811266D01*
X164087133Y-113014966D01*
X163936217Y-113243077D01*
X163820121Y-113490732D01*
X163820119Y-113490739D01*
X163741326Y-113752633D01*
X163741323Y-113752647D01*
X163723420Y-113874300D01*
X163701500Y-114023243D01*
X163701500Y-114023247D01*
X163701500Y-114748306D01*
X163716467Y-114952782D01*
X163716469Y-114952795D01*
X163775934Y-115219746D01*
X163775937Y-115219753D01*
X163849448Y-115411955D01*
X163873646Y-115475221D01*
X164007506Y-115713734D01*
X164007509Y-115713739D01*
X164174669Y-115930218D01*
X164174678Y-115930228D01*
X164283521Y-116035165D01*
X164371574Y-116120059D01*
X164594019Y-116279205D01*
X164659902Y-116313078D01*
X164837250Y-116404260D01*
X164837261Y-116404264D01*
X164837266Y-116404267D01*
X164837272Y-116404269D01*
X165096116Y-116492575D01*
X165096122Y-116492576D01*
X165096130Y-116492579D01*
X165365093Y-116542259D01*
X165529091Y-116548252D01*
X165638422Y-116552248D01*
X165638422Y-116552247D01*
X165638424Y-116552248D01*
X165910296Y-116522334D01*
X166174916Y-116453153D01*
X166289971Y-116404260D01*
X166426635Y-116346185D01*
X166426638Y-116346183D01*
X166426643Y-116346181D01*
X166660112Y-116203697D01*
X166870347Y-116028738D01*
X167052867Y-115825033D01*
X167203783Y-115596923D01*
X167319877Y-115349271D01*
X167327974Y-115322359D01*
X167397258Y-115092070D01*
X167435421Y-115033544D01*
X167499169Y-115004942D01*
X167568259Y-115015344D01*
X167620758Y-115061449D01*
X167640000Y-115127794D01*
X167640000Y-121796000D01*
X167620315Y-121863039D01*
X167567511Y-121908794D01*
X167516000Y-121920000D01*
X164797477Y-121920000D01*
X164730438Y-121900315D01*
X164684683Y-121847511D01*
X164673901Y-121806240D01*
X164666323Y-121714797D01*
X164664051Y-121687374D01*
X164606749Y-121461093D01*
X164512984Y-121247331D01*
X164432706Y-121124456D01*
X164385313Y-121051915D01*
X164227223Y-120880185D01*
X164227222Y-120880184D01*
X164227220Y-120880182D01*
X164043017Y-120736810D01*
X164043015Y-120736809D01*
X164043014Y-120736808D01*
X164043011Y-120736806D01*
X163837733Y-120625716D01*
X163837730Y-120625715D01*
X163837727Y-120625713D01*
X163837721Y-120625711D01*
X163837719Y-120625710D01*
X163616954Y-120549920D01*
X163425730Y-120518011D01*
X163386712Y-120511500D01*
X163153288Y-120511500D01*
X163153287Y-120511500D01*
X163028469Y-120532327D01*
X162959104Y-120523945D01*
X162920380Y-120497699D01*
X161781805Y-119359124D01*
X161770023Y-119345491D01*
X161755473Y-119325947D01*
X161755472Y-119325946D01*
X161755470Y-119325943D01*
X161750155Y-119321483D01*
X161717060Y-119293712D01*
X161709086Y-119286405D01*
X161705103Y-119282422D01*
X161705097Y-119282417D01*
X161680513Y-119262977D01*
X161677720Y-119260702D01*
X161619643Y-119211971D01*
X161619641Y-119211969D01*
X161619636Y-119211966D01*
X161613606Y-119208000D01*
X161613631Y-119207960D01*
X161607070Y-119203780D01*
X161607046Y-119203821D01*
X161600908Y-119200035D01*
X161600907Y-119200034D01*
X161600904Y-119200033D01*
X161600900Y-119200030D01*
X161532161Y-119167975D01*
X161528917Y-119166405D01*
X161461186Y-119132390D01*
X161454402Y-119129921D01*
X161454417Y-119129877D01*
X161447072Y-119127323D01*
X161447058Y-119127368D01*
X161440206Y-119125097D01*
X161365927Y-119109759D01*
X161362409Y-119108979D01*
X161288654Y-119091500D01*
X161281483Y-119090662D01*
X161281488Y-119090613D01*
X161273758Y-119089823D01*
X161273754Y-119089871D01*
X161266563Y-119089241D01*
X161190708Y-119091449D01*
X161187102Y-119091501D01*
X151504293Y-119091501D01*
X151486323Y-119090192D01*
X151462205Y-119086659D01*
X151415410Y-119090754D01*
X151412271Y-119091029D01*
X151401465Y-119091501D01*
X151395815Y-119091501D01*
X151364677Y-119095140D01*
X151361094Y-119095506D01*
X151285575Y-119102113D01*
X151278502Y-119103574D01*
X151278492Y-119103527D01*
X151270904Y-119105210D01*
X151270915Y-119105256D01*
X151263889Y-119106921D01*
X151192660Y-119132845D01*
X151189259Y-119134027D01*
X151117259Y-119157887D01*
X151110712Y-119160940D01*
X151110692Y-119160897D01*
X151103700Y-119164281D01*
X151103722Y-119164324D01*
X151097272Y-119167563D01*
X151097267Y-119167565D01*
X151097267Y-119167566D01*
X151035850Y-119207960D01*
X151033907Y-119209238D01*
X151030867Y-119211174D01*
X150966350Y-119250969D01*
X150960685Y-119255449D01*
X150960655Y-119255411D01*
X150954626Y-119260323D01*
X150954656Y-119260358D01*
X150949125Y-119264998D01*
X150904433Y-119312368D01*
X150844109Y-119347621D01*
X150803434Y-119350800D01*
X150640002Y-119336502D01*
X150639997Y-119336502D01*
X150476156Y-119350835D01*
X150407657Y-119337068D01*
X150377669Y-119314988D01*
X148681804Y-117619123D01*
X148670022Y-117605490D01*
X148655472Y-117585946D01*
X148655471Y-117585945D01*
X148655469Y-117585942D01*
X148649290Y-117580757D01*
X148617059Y-117553711D01*
X148609085Y-117546404D01*
X148605102Y-117542421D01*
X148605096Y-117542416D01*
X148580512Y-117522976D01*
X148577719Y-117520701D01*
X148519642Y-117471970D01*
X148519640Y-117471968D01*
X148519635Y-117471965D01*
X148513605Y-117467999D01*
X148513630Y-117467959D01*
X148507069Y-117463779D01*
X148507045Y-117463820D01*
X148500907Y-117460034D01*
X148500906Y-117460033D01*
X148500903Y-117460032D01*
X148500899Y-117460029D01*
X148432160Y-117427974D01*
X148428916Y-117426404D01*
X148361185Y-117392389D01*
X148354401Y-117389920D01*
X148354416Y-117389876D01*
X148347071Y-117387322D01*
X148347057Y-117387367D01*
X148340205Y-117385096D01*
X148265926Y-117369758D01*
X148262408Y-117368978D01*
X148188653Y-117351499D01*
X148181482Y-117350661D01*
X148181487Y-117350612D01*
X148173757Y-117349822D01*
X148173753Y-117349870D01*
X148166562Y-117349240D01*
X148090707Y-117351448D01*
X148087101Y-117351500D01*
X147960826Y-117351500D01*
X147893787Y-117331815D01*
X147859252Y-117298625D01*
X147836198Y-117265700D01*
X147674300Y-117103802D01*
X147641374Y-117080747D01*
X147597751Y-117026171D01*
X147588500Y-116979174D01*
X147588500Y-116700825D01*
X147608185Y-116633786D01*
X147641375Y-116599251D01*
X147674300Y-116576198D01*
X147836198Y-116414300D01*
X147967523Y-116226749D01*
X148064284Y-116019243D01*
X148123543Y-115798087D01*
X148136499Y-115650002D01*
X149335034Y-115650002D01*
X149354858Y-115876599D01*
X149354860Y-115876610D01*
X149413730Y-116096317D01*
X149413735Y-116096331D01*
X149509863Y-116302478D01*
X149560974Y-116375472D01*
X150242046Y-115694400D01*
X150254835Y-115775148D01*
X150312359Y-115888045D01*
X150401955Y-115977641D01*
X150514852Y-116035165D01*
X150595599Y-116047953D01*
X149914526Y-116729025D01*
X149987513Y-116780132D01*
X149987521Y-116780136D01*
X150193668Y-116876264D01*
X150193682Y-116876269D01*
X150413389Y-116935139D01*
X150413400Y-116935141D01*
X150639998Y-116954966D01*
X150640002Y-116954966D01*
X150866599Y-116935141D01*
X150866610Y-116935139D01*
X151086317Y-116876269D01*
X151086331Y-116876264D01*
X151292478Y-116780136D01*
X151365471Y-116729024D01*
X150684400Y-116047953D01*
X150765148Y-116035165D01*
X150878045Y-115977641D01*
X150967641Y-115888045D01*
X151025165Y-115775148D01*
X151037953Y-115694400D01*
X151719024Y-116375471D01*
X151770136Y-116302478D01*
X151866264Y-116096331D01*
X151866269Y-116096317D01*
X151925139Y-115876610D01*
X151925141Y-115876599D01*
X151944966Y-115650002D01*
X151944966Y-115649997D01*
X151925141Y-115423400D01*
X151925139Y-115423389D01*
X151866269Y-115203682D01*
X151866264Y-115203668D01*
X151770136Y-114997521D01*
X151770132Y-114997513D01*
X151719025Y-114924526D01*
X151037953Y-115605598D01*
X151025165Y-115524852D01*
X150967641Y-115411955D01*
X150878045Y-115322359D01*
X150765148Y-115264835D01*
X150684401Y-115252046D01*
X151188140Y-114748306D01*
X154101500Y-114748306D01*
X154116467Y-114952782D01*
X154116469Y-114952795D01*
X154175934Y-115219746D01*
X154175937Y-115219753D01*
X154249448Y-115411955D01*
X154273646Y-115475221D01*
X154407506Y-115713734D01*
X154407509Y-115713739D01*
X154574669Y-115930218D01*
X154574678Y-115930228D01*
X154683521Y-116035165D01*
X154771574Y-116120059D01*
X154994019Y-116279205D01*
X155059902Y-116313078D01*
X155237250Y-116404260D01*
X155237261Y-116404264D01*
X155237266Y-116404267D01*
X155237272Y-116404269D01*
X155496116Y-116492575D01*
X155496122Y-116492576D01*
X155496130Y-116492579D01*
X155765093Y-116542259D01*
X155929091Y-116548252D01*
X156038422Y-116552248D01*
X156038422Y-116552247D01*
X156038424Y-116552248D01*
X156310296Y-116522334D01*
X156574916Y-116453153D01*
X156689971Y-116404260D01*
X156826635Y-116346185D01*
X156826638Y-116346183D01*
X156826643Y-116346181D01*
X157060112Y-116203697D01*
X157270347Y-116028738D01*
X157452867Y-115825033D01*
X157603783Y-115596923D01*
X157719877Y-115349271D01*
X157788629Y-115120750D01*
X157798673Y-115087366D01*
X157798673Y-115087362D01*
X157798676Y-115087355D01*
X157838500Y-114816757D01*
X157838500Y-114091712D01*
X157823533Y-113887217D01*
X157796743Y-113766951D01*
X157764065Y-113620253D01*
X157764063Y-113620249D01*
X157764063Y-113620247D01*
X157666355Y-113364781D01*
X157532493Y-113126264D01*
X157458160Y-113030000D01*
X157365330Y-112909781D01*
X157365321Y-112909771D01*
X157168429Y-112719944D01*
X157168427Y-112719942D01*
X157107633Y-112676447D01*
X156945981Y-112560795D01*
X156938200Y-112556794D01*
X156702749Y-112435739D01*
X156702727Y-112435730D01*
X156443883Y-112347424D01*
X156443870Y-112347421D01*
X156443865Y-112347420D01*
X156174903Y-112297740D01*
X155901577Y-112287751D01*
X155629703Y-112317666D01*
X155365084Y-112386846D01*
X155113364Y-112493814D01*
X154879892Y-112636300D01*
X154879882Y-112636307D01*
X154669654Y-112811260D01*
X154669648Y-112811266D01*
X154487133Y-113014966D01*
X154336217Y-113243077D01*
X154220121Y-113490732D01*
X154220119Y-113490739D01*
X154141326Y-113752633D01*
X154141323Y-113752647D01*
X154123420Y-113874300D01*
X154101500Y-114023243D01*
X154101500Y-114023247D01*
X154101500Y-114748306D01*
X151188140Y-114748306D01*
X151365472Y-114570974D01*
X151292478Y-114519863D01*
X151086331Y-114423735D01*
X151086317Y-114423730D01*
X150866610Y-114364860D01*
X150866599Y-114364858D01*
X150640002Y-114345034D01*
X150639998Y-114345034D01*
X150413400Y-114364858D01*
X150413389Y-114364860D01*
X150193682Y-114423730D01*
X150193673Y-114423734D01*
X149987516Y-114519866D01*
X149987512Y-114519868D01*
X149914526Y-114570973D01*
X149914526Y-114570974D01*
X150595599Y-115252046D01*
X150514852Y-115264835D01*
X150401955Y-115322359D01*
X150312359Y-115411955D01*
X150254835Y-115524852D01*
X150242046Y-115605598D01*
X149560974Y-114924526D01*
X149560973Y-114924526D01*
X149509868Y-114997512D01*
X149509866Y-114997516D01*
X149413734Y-115203673D01*
X149413730Y-115203682D01*
X149354860Y-115423389D01*
X149354858Y-115423400D01*
X149335034Y-115649997D01*
X149335034Y-115650002D01*
X148136499Y-115650002D01*
X148143498Y-115570000D01*
X148123543Y-115341913D01*
X148064284Y-115120757D01*
X148048708Y-115087355D01*
X148000979Y-114984999D01*
X147967523Y-114913251D01*
X147836198Y-114725700D01*
X147674300Y-114563802D01*
X147486749Y-114432477D01*
X147467999Y-114423734D01*
X147443655Y-114412382D01*
X147391215Y-114366210D01*
X147372063Y-114299017D01*
X147392278Y-114232136D01*
X147443655Y-114187618D01*
X147446882Y-114186112D01*
X147486749Y-114167523D01*
X147674300Y-114036198D01*
X147836198Y-113874300D01*
X147967523Y-113686749D01*
X148064284Y-113479243D01*
X148123543Y-113258087D01*
X148143498Y-113030000D01*
X148123543Y-112801913D01*
X148064284Y-112580757D01*
X147967523Y-112373251D01*
X147836198Y-112185700D01*
X147674300Y-112023802D01*
X147486749Y-111892477D01*
X147486745Y-111892475D01*
X147279249Y-111795718D01*
X147279238Y-111795714D01*
X147058089Y-111736457D01*
X147058081Y-111736456D01*
X146830002Y-111716502D01*
X146829998Y-111716502D01*
X146601918Y-111736456D01*
X146601910Y-111736457D01*
X146380761Y-111795714D01*
X146380750Y-111795718D01*
X146173254Y-111892475D01*
X146173252Y-111892476D01*
X146102856Y-111941767D01*
X145985700Y-112023802D01*
X145985698Y-112023803D01*
X145985695Y-112023806D01*
X145823806Y-112185695D01*
X145692476Y-112373252D01*
X145692475Y-112373254D01*
X145595718Y-112580750D01*
X145595714Y-112580761D01*
X145536457Y-112801910D01*
X145536456Y-112801918D01*
X145516502Y-113029998D01*
X145516502Y-113030001D01*
X145536456Y-113258081D01*
X145536457Y-113258089D01*
X145595714Y-113479238D01*
X145595718Y-113479249D01*
X145690485Y-113682478D01*
X145692477Y-113686749D01*
X145823802Y-113874300D01*
X145985700Y-114036198D01*
X146162696Y-114160132D01*
X146173251Y-114167523D01*
X146216345Y-114187618D01*
X146268784Y-114233791D01*
X146287936Y-114300984D01*
X146267720Y-114367865D01*
X146216345Y-114412382D01*
X146173251Y-114432476D01*
X146105268Y-114480079D01*
X145985700Y-114563802D01*
X145985698Y-114563803D01*
X145985695Y-114563806D01*
X145823806Y-114725695D01*
X145823803Y-114725698D01*
X145823802Y-114725700D01*
X145763725Y-114811499D01*
X145692476Y-114913252D01*
X145692475Y-114913254D01*
X145595718Y-115120750D01*
X145595714Y-115120761D01*
X145536457Y-115341910D01*
X145536456Y-115341918D01*
X145516502Y-115569998D01*
X145516502Y-115570001D01*
X145536456Y-115798081D01*
X145536457Y-115798089D01*
X145595714Y-116019238D01*
X145595718Y-116019249D01*
X145684119Y-116208825D01*
X145692477Y-116226749D01*
X145823802Y-116414300D01*
X145823805Y-116414303D01*
X145823806Y-116414304D01*
X145985695Y-116576194D01*
X145985698Y-116576196D01*
X145985700Y-116576198D01*
X146018623Y-116599250D01*
X146062247Y-116653824D01*
X146071500Y-116700825D01*
X146071500Y-116979174D01*
X146051815Y-117046213D01*
X146018626Y-117080746D01*
X145986934Y-117102938D01*
X145985696Y-117103805D01*
X145823806Y-117265695D01*
X145823803Y-117265698D01*
X145823802Y-117265700D01*
X145758604Y-117358812D01*
X145692476Y-117453252D01*
X145692475Y-117453254D01*
X145595718Y-117660750D01*
X145595714Y-117660761D01*
X145536457Y-117881910D01*
X145536456Y-117881918D01*
X145516502Y-118109998D01*
X145516502Y-118110001D01*
X145536456Y-118338081D01*
X145536457Y-118338089D01*
X145595714Y-118559238D01*
X145595718Y-118559249D01*
X145692475Y-118766745D01*
X145692477Y-118766749D01*
X145823802Y-118954300D01*
X145985700Y-119116198D01*
X146122475Y-119211969D01*
X146173251Y-119247523D01*
X146216345Y-119267618D01*
X146268784Y-119313791D01*
X146287936Y-119380984D01*
X146267720Y-119447865D01*
X146216345Y-119492382D01*
X146173251Y-119512476D01*
X146072945Y-119582712D01*
X145985700Y-119643802D01*
X145985698Y-119643803D01*
X145985695Y-119643806D01*
X145823806Y-119805695D01*
X145823803Y-119805698D01*
X145823802Y-119805700D01*
X145764074Y-119891000D01*
X145692476Y-119993252D01*
X145692475Y-119993254D01*
X145595718Y-120200750D01*
X145595714Y-120200761D01*
X145536457Y-120421910D01*
X145536456Y-120421918D01*
X145516502Y-120649998D01*
X145516502Y-120650001D01*
X145536456Y-120878081D01*
X145536457Y-120878089D01*
X145595714Y-121099238D01*
X145595718Y-121099249D01*
X145664770Y-121247331D01*
X145692477Y-121306749D01*
X145823802Y-121494300D01*
X145823806Y-121494304D01*
X145985699Y-121656197D01*
X146040295Y-121694426D01*
X146083920Y-121749003D01*
X146091112Y-121818501D01*
X146059590Y-121880856D01*
X145999360Y-121916269D01*
X145969171Y-121920000D01*
X140070829Y-121920000D01*
X140003790Y-121900315D01*
X139958035Y-121847511D01*
X139948091Y-121778353D01*
X139977116Y-121714797D01*
X139999705Y-121694426D01*
X140009776Y-121687374D01*
X140054300Y-121656198D01*
X140216198Y-121494300D01*
X140347523Y-121306749D01*
X140444284Y-121099243D01*
X140503543Y-120878087D01*
X140523498Y-120650000D01*
X140521373Y-120625716D01*
X140513203Y-120532327D01*
X140503543Y-120421913D01*
X140444284Y-120200757D01*
X140347523Y-119993251D01*
X140216198Y-119805700D01*
X140054300Y-119643802D01*
X139866749Y-119512477D01*
X139823655Y-119492382D01*
X139771215Y-119446210D01*
X139752063Y-119379017D01*
X139772278Y-119312136D01*
X139823655Y-119267618D01*
X139829273Y-119264998D01*
X139866749Y-119247523D01*
X140054300Y-119116198D01*
X140216198Y-118954300D01*
X140347523Y-118766749D01*
X140444284Y-118559243D01*
X140503543Y-118338087D01*
X140523498Y-118110000D01*
X140503543Y-117881913D01*
X140444284Y-117660757D01*
X140406981Y-117580761D01*
X140394368Y-117553711D01*
X140347523Y-117453251D01*
X140216198Y-117265700D01*
X140054300Y-117103802D01*
X139866749Y-116972477D01*
X139823655Y-116952382D01*
X139771215Y-116906210D01*
X139752063Y-116839017D01*
X139772278Y-116772136D01*
X139823655Y-116727618D01*
X139826882Y-116726112D01*
X139866749Y-116707523D01*
X140054300Y-116576198D01*
X140216198Y-116414300D01*
X140347523Y-116226749D01*
X140444284Y-116019243D01*
X140503543Y-115798087D01*
X140523498Y-115570000D01*
X140503543Y-115341913D01*
X140444284Y-115120757D01*
X140428708Y-115087355D01*
X140380979Y-114984999D01*
X140347523Y-114913251D01*
X140216198Y-114725700D01*
X140054300Y-114563802D01*
X140035998Y-114550986D01*
X139992375Y-114496410D01*
X139985183Y-114426912D01*
X140016706Y-114364558D01*
X140076937Y-114329145D01*
X140093871Y-114326124D01*
X140117379Y-114323596D01*
X140252086Y-114273354D01*
X140252093Y-114273350D01*
X140367187Y-114187190D01*
X140367190Y-114187187D01*
X140453350Y-114072093D01*
X140453354Y-114072086D01*
X140503596Y-113937379D01*
X140503598Y-113937372D01*
X140509999Y-113877844D01*
X140510000Y-113877827D01*
X140510000Y-113280000D01*
X139525686Y-113280000D01*
X139537641Y-113268045D01*
X139595165Y-113155148D01*
X139614986Y-113030000D01*
X139595165Y-112904852D01*
X139537641Y-112791955D01*
X139525686Y-112780000D01*
X140510000Y-112780000D01*
X140510000Y-112182172D01*
X140509999Y-112182155D01*
X140503598Y-112122627D01*
X140503596Y-112122620D01*
X140453354Y-111987913D01*
X140453350Y-111987906D01*
X140367190Y-111872812D01*
X140367187Y-111872809D01*
X140252093Y-111786649D01*
X140252086Y-111786645D01*
X140117379Y-111736403D01*
X140117372Y-111736401D01*
X140057844Y-111730000D01*
X139460000Y-111730000D01*
X139460000Y-112714314D01*
X139448045Y-112702359D01*
X139335148Y-112644835D01*
X139241481Y-112630000D01*
X139178519Y-112630000D01*
X139084852Y-112644835D01*
X138971955Y-112702359D01*
X138960000Y-112714314D01*
X138960000Y-111730000D01*
X138362155Y-111730000D01*
X138302627Y-111736401D01*
X138302620Y-111736403D01*
X138167913Y-111786645D01*
X138167906Y-111786649D01*
X138052812Y-111872809D01*
X138052809Y-111872812D01*
X137966649Y-111987906D01*
X137966645Y-111987913D01*
X137916403Y-112122620D01*
X137916401Y-112122627D01*
X137910000Y-112182155D01*
X137910000Y-112780000D01*
X138894314Y-112780000D01*
X138882359Y-112791955D01*
X138824835Y-112904852D01*
X138805014Y-113030000D01*
X138824835Y-113155148D01*
X138882359Y-113268045D01*
X138894314Y-113280000D01*
X137910000Y-113280000D01*
X137910000Y-113877844D01*
X137916401Y-113937372D01*
X137916403Y-113937379D01*
X137966645Y-114072086D01*
X137966649Y-114072093D01*
X138052809Y-114187187D01*
X138052812Y-114187190D01*
X138167906Y-114273350D01*
X138167913Y-114273354D01*
X138302620Y-114323596D01*
X138302619Y-114323596D01*
X138326129Y-114326124D01*
X138390680Y-114352862D01*
X138430529Y-114410254D01*
X138433023Y-114480079D01*
X138397372Y-114540168D01*
X138384002Y-114550986D01*
X138365699Y-114563802D01*
X138203806Y-114725695D01*
X138203803Y-114725698D01*
X138203802Y-114725700D01*
X138143725Y-114811499D01*
X138072476Y-114913252D01*
X138072475Y-114913254D01*
X137975718Y-115120750D01*
X137975714Y-115120761D01*
X137916457Y-115341910D01*
X137916456Y-115341918D01*
X137896502Y-115569998D01*
X137896502Y-115570002D01*
X137910835Y-115733841D01*
X137897068Y-115802341D01*
X137874988Y-115832329D01*
X136669122Y-117038195D01*
X136655495Y-117049973D01*
X136635941Y-117064531D01*
X136603713Y-117102938D01*
X136596421Y-117110897D01*
X136592420Y-117114898D01*
X136572983Y-117139479D01*
X136570710Y-117142269D01*
X136521967Y-117200360D01*
X136518001Y-117206391D01*
X136517963Y-117206366D01*
X136513782Y-117212928D01*
X136513821Y-117212952D01*
X136510035Y-117219088D01*
X136491168Y-117259547D01*
X136477967Y-117287855D01*
X136476412Y-117291068D01*
X136442391Y-117358810D01*
X136439923Y-117365593D01*
X136439878Y-117365576D01*
X136437322Y-117372932D01*
X136437366Y-117372947D01*
X136435096Y-117379794D01*
X136419758Y-117454073D01*
X136418978Y-117457589D01*
X136401499Y-117531344D01*
X136400661Y-117538519D01*
X136400613Y-117538513D01*
X136399823Y-117546244D01*
X136399870Y-117546249D01*
X136399240Y-117553438D01*
X136401448Y-117629290D01*
X136401500Y-117632897D01*
X136401500Y-119515673D01*
X136381815Y-119582712D01*
X136329011Y-119628467D01*
X136259853Y-119638411D01*
X136206378Y-119617248D01*
X136056749Y-119512477D01*
X136013655Y-119492382D01*
X135849249Y-119415718D01*
X135849238Y-119415714D01*
X135628089Y-119356457D01*
X135628081Y-119356456D01*
X135400002Y-119336502D01*
X135399997Y-119336502D01*
X135236156Y-119350835D01*
X135167657Y-119337068D01*
X135137669Y-119314988D01*
X133441804Y-117619123D01*
X133430022Y-117605490D01*
X133415472Y-117585946D01*
X133415471Y-117585945D01*
X133415469Y-117585942D01*
X133409290Y-117580757D01*
X133377059Y-117553711D01*
X133369085Y-117546404D01*
X133365102Y-117542421D01*
X133365096Y-117542416D01*
X133340512Y-117522976D01*
X133337719Y-117520701D01*
X133279642Y-117471970D01*
X133279640Y-117471968D01*
X133279635Y-117471965D01*
X133273605Y-117467999D01*
X133273630Y-117467959D01*
X133267069Y-117463779D01*
X133267045Y-117463820D01*
X133260907Y-117460034D01*
X133260906Y-117460033D01*
X133260903Y-117460032D01*
X133260899Y-117460029D01*
X133192160Y-117427974D01*
X133188916Y-117426404D01*
X133121185Y-117392389D01*
X133114401Y-117389920D01*
X133114416Y-117389876D01*
X133107071Y-117387322D01*
X133107057Y-117387367D01*
X133100205Y-117385096D01*
X133025926Y-117369758D01*
X133022408Y-117368978D01*
X132948653Y-117351499D01*
X132941482Y-117350661D01*
X132941487Y-117350612D01*
X132933757Y-117349822D01*
X132933753Y-117349870D01*
X132926562Y-117349240D01*
X132850707Y-117351448D01*
X132847101Y-117351500D01*
X132730826Y-117351500D01*
X132663787Y-117331815D01*
X132629252Y-117298625D01*
X132606198Y-117265700D01*
X132444300Y-117103802D01*
X132256749Y-116972477D01*
X132213655Y-116952382D01*
X132161215Y-116906210D01*
X132142063Y-116839017D01*
X132162278Y-116772136D01*
X132213655Y-116727618D01*
X132216882Y-116726112D01*
X132256749Y-116707523D01*
X132444300Y-116576198D01*
X132606198Y-116414300D01*
X132629252Y-116381374D01*
X132683829Y-116337751D01*
X132730826Y-116328500D01*
X132795706Y-116328500D01*
X132813676Y-116329809D01*
X132816174Y-116330174D01*
X132837789Y-116333341D01*
X132887727Y-116328971D01*
X132898534Y-116328500D01*
X132904175Y-116328500D01*
X132904180Y-116328500D01*
X132935370Y-116324853D01*
X132938851Y-116324498D01*
X132989822Y-116320039D01*
X133014418Y-116317888D01*
X133014420Y-116317887D01*
X133014426Y-116317887D01*
X133014431Y-116317885D01*
X133021493Y-116316427D01*
X133021502Y-116316474D01*
X133029097Y-116314790D01*
X133029087Y-116314744D01*
X133036108Y-116313079D01*
X133036113Y-116313079D01*
X133107414Y-116287126D01*
X133110708Y-116285981D01*
X133182738Y-116262114D01*
X133182744Y-116262110D01*
X133189284Y-116259061D01*
X133189305Y-116259106D01*
X133196302Y-116255719D01*
X133196280Y-116255675D01*
X133202728Y-116252436D01*
X133202732Y-116252435D01*
X133266103Y-116210753D01*
X133269110Y-116208837D01*
X133333651Y-116169030D01*
X133333656Y-116169024D01*
X133339319Y-116164548D01*
X133339350Y-116164587D01*
X133345374Y-116159680D01*
X133345342Y-116159642D01*
X133350864Y-116155006D01*
X133350874Y-116155001D01*
X133402962Y-116099789D01*
X133405409Y-116097270D01*
X135137671Y-114365008D01*
X135198992Y-114331525D01*
X135236154Y-114329163D01*
X135377987Y-114341572D01*
X135399999Y-114343498D01*
X135400000Y-114343498D01*
X135400002Y-114343498D01*
X135457021Y-114338509D01*
X135628087Y-114323543D01*
X135849243Y-114264284D01*
X136056749Y-114167523D01*
X136244300Y-114036198D01*
X136406198Y-113874300D01*
X136537523Y-113686749D01*
X136634284Y-113479243D01*
X136693543Y-113258087D01*
X136713498Y-113030000D01*
X136693543Y-112801913D01*
X136634284Y-112580757D01*
X136537523Y-112373251D01*
X136406198Y-112185700D01*
X136244300Y-112023802D01*
X136056749Y-111892477D01*
X136056745Y-111892475D01*
X135849249Y-111795718D01*
X135849238Y-111795714D01*
X135628089Y-111736457D01*
X135628081Y-111736456D01*
X135400002Y-111716502D01*
X135399998Y-111716502D01*
X135171918Y-111736456D01*
X135171910Y-111736457D01*
X134950761Y-111795714D01*
X134950750Y-111795718D01*
X134743254Y-111892475D01*
X134743252Y-111892476D01*
X134672856Y-111941767D01*
X134555700Y-112023802D01*
X134555698Y-112023803D01*
X134555695Y-112023806D01*
X134393806Y-112185695D01*
X134262476Y-112373252D01*
X134262475Y-112373254D01*
X134165718Y-112580750D01*
X134165714Y-112580761D01*
X134106457Y-112801910D01*
X134106456Y-112801918D01*
X134086502Y-113029998D01*
X134086502Y-113030002D01*
X134100835Y-113193841D01*
X134087068Y-113262341D01*
X134064988Y-113292329D01*
X132706589Y-114650729D01*
X132645266Y-114684214D01*
X132575574Y-114679230D01*
X132531227Y-114650729D01*
X132444304Y-114563806D01*
X132444300Y-114563802D01*
X132256749Y-114432477D01*
X132237999Y-114423734D01*
X132213655Y-114412382D01*
X132161215Y-114366210D01*
X132142063Y-114299017D01*
X132162278Y-114232136D01*
X132213655Y-114187618D01*
X132216882Y-114186112D01*
X132256749Y-114167523D01*
X132444300Y-114036198D01*
X132606198Y-113874300D01*
X132737523Y-113686749D01*
X132834284Y-113479243D01*
X132893543Y-113258087D01*
X132913498Y-113030000D01*
X132893543Y-112801913D01*
X132834284Y-112580757D01*
X132737523Y-112373251D01*
X132606198Y-112185700D01*
X132444300Y-112023802D01*
X132256749Y-111892477D01*
X132256745Y-111892475D01*
X132049249Y-111795718D01*
X132049238Y-111795714D01*
X131828089Y-111736457D01*
X131828081Y-111736456D01*
X131600002Y-111716502D01*
X131599998Y-111716502D01*
X131371918Y-111736456D01*
X131371910Y-111736457D01*
X131150761Y-111795714D01*
X131150750Y-111795718D01*
X130943254Y-111892475D01*
X130943252Y-111892476D01*
X130872856Y-111941767D01*
X130755700Y-112023802D01*
X130755698Y-112023803D01*
X130755695Y-112023806D01*
X130593806Y-112185695D01*
X130462476Y-112373252D01*
X130462475Y-112373254D01*
X130365718Y-112580750D01*
X130365714Y-112580761D01*
X130306457Y-112801910D01*
X130306456Y-112801918D01*
X130286502Y-113029998D01*
X130286502Y-113030001D01*
X130306456Y-113258081D01*
X130306457Y-113258089D01*
X130365714Y-113479238D01*
X130365718Y-113479249D01*
X130460485Y-113682478D01*
X130462477Y-113686749D01*
X130593802Y-113874300D01*
X130755700Y-114036198D01*
X130932696Y-114160132D01*
X130943251Y-114167523D01*
X130986345Y-114187618D01*
X131038784Y-114233791D01*
X131057936Y-114300984D01*
X131037720Y-114367865D01*
X130986345Y-114412382D01*
X130943251Y-114432476D01*
X130875268Y-114480079D01*
X130755700Y-114563802D01*
X130755698Y-114563803D01*
X130755695Y-114563806D01*
X130593806Y-114725695D01*
X130593803Y-114725698D01*
X130593802Y-114725700D01*
X130533725Y-114811499D01*
X130462476Y-114913252D01*
X130462475Y-114913254D01*
X130365718Y-115120750D01*
X130365714Y-115120761D01*
X130306457Y-115341910D01*
X130306456Y-115341918D01*
X130286502Y-115569998D01*
X130286502Y-115570001D01*
X130306456Y-115798081D01*
X130306457Y-115798089D01*
X130365714Y-116019238D01*
X130365718Y-116019249D01*
X130454119Y-116208825D01*
X130462477Y-116226749D01*
X130593802Y-116414300D01*
X130755700Y-116576198D01*
X130925349Y-116694988D01*
X130943251Y-116707523D01*
X130986345Y-116727618D01*
X131038784Y-116773791D01*
X131057936Y-116840984D01*
X131037720Y-116907865D01*
X130986345Y-116952382D01*
X130943251Y-116972476D01*
X130818126Y-117060090D01*
X130755700Y-117103802D01*
X130755698Y-117103803D01*
X130755695Y-117103806D01*
X130593805Y-117265696D01*
X130570748Y-117298625D01*
X130516171Y-117342249D01*
X130469174Y-117351500D01*
X129397543Y-117351500D01*
X129330504Y-117331815D01*
X129309862Y-117315181D01*
X127073804Y-115079123D01*
X127062022Y-115065490D01*
X127047472Y-115045946D01*
X127047471Y-115045945D01*
X127047469Y-115045942D01*
X127042175Y-115041500D01*
X127009059Y-115013711D01*
X127001085Y-115006404D01*
X126997102Y-115002421D01*
X126997096Y-115002416D01*
X126972512Y-114982976D01*
X126969719Y-114980701D01*
X126911642Y-114931970D01*
X126911640Y-114931968D01*
X126911635Y-114931965D01*
X126905605Y-114927999D01*
X126905630Y-114927959D01*
X126899069Y-114923779D01*
X126899045Y-114923820D01*
X126892907Y-114920034D01*
X126892906Y-114920033D01*
X126892903Y-114920032D01*
X126892899Y-114920029D01*
X126824160Y-114887974D01*
X126820916Y-114886404D01*
X126753185Y-114852389D01*
X126746401Y-114849920D01*
X126746416Y-114849876D01*
X126739071Y-114847322D01*
X126739057Y-114847367D01*
X126732205Y-114845096D01*
X126657926Y-114829758D01*
X126654408Y-114828978D01*
X126580653Y-114811499D01*
X126573482Y-114810661D01*
X126573487Y-114810612D01*
X126565757Y-114809822D01*
X126565753Y-114809870D01*
X126558562Y-114809240D01*
X126482707Y-114811448D01*
X126479101Y-114811500D01*
X125110826Y-114811500D01*
X125043787Y-114791815D01*
X125009252Y-114758625D01*
X124986198Y-114725700D01*
X124824300Y-114563802D01*
X124805998Y-114550986D01*
X124762375Y-114496410D01*
X124755183Y-114426912D01*
X124786706Y-114364558D01*
X124846937Y-114329145D01*
X124863871Y-114326124D01*
X124887379Y-114323596D01*
X125022086Y-114273354D01*
X125022093Y-114273350D01*
X125137187Y-114187190D01*
X125137190Y-114187187D01*
X125223350Y-114072093D01*
X125223354Y-114072086D01*
X125273596Y-113937379D01*
X125273598Y-113937372D01*
X125279999Y-113877844D01*
X125280000Y-113877827D01*
X125280000Y-113280000D01*
X124295686Y-113280000D01*
X124307641Y-113268045D01*
X124365165Y-113155148D01*
X124384986Y-113030000D01*
X124365165Y-112904852D01*
X124307641Y-112791955D01*
X124295686Y-112780000D01*
X125280000Y-112780000D01*
X125280000Y-112182172D01*
X125279999Y-112182155D01*
X125273598Y-112122627D01*
X125273596Y-112122620D01*
X125223354Y-111987913D01*
X125223350Y-111987906D01*
X125137190Y-111872812D01*
X125137187Y-111872809D01*
X125022093Y-111786649D01*
X125022086Y-111786645D01*
X124887379Y-111736403D01*
X124887372Y-111736401D01*
X124827844Y-111730000D01*
X124230000Y-111730000D01*
X124230000Y-112714314D01*
X124218045Y-112702359D01*
X124105148Y-112644835D01*
X124011481Y-112630000D01*
X123948519Y-112630000D01*
X123854852Y-112644835D01*
X123741955Y-112702359D01*
X123730000Y-112714314D01*
X123730000Y-111730000D01*
X123132155Y-111730000D01*
X123072627Y-111736401D01*
X123072620Y-111736403D01*
X122937913Y-111786645D01*
X122937906Y-111786649D01*
X122822812Y-111872809D01*
X122822809Y-111872812D01*
X122736649Y-111987906D01*
X122736645Y-111987913D01*
X122686403Y-112122620D01*
X122686401Y-112122627D01*
X122680000Y-112182155D01*
X122680000Y-112780000D01*
X123664314Y-112780000D01*
X123652359Y-112791955D01*
X123594835Y-112904852D01*
X123575014Y-113030000D01*
X123594835Y-113155148D01*
X123652359Y-113268045D01*
X123664314Y-113280000D01*
X122680000Y-113280000D01*
X122680000Y-113877844D01*
X122686401Y-113937372D01*
X122686403Y-113937379D01*
X122736645Y-114072086D01*
X122736649Y-114072093D01*
X122822809Y-114187187D01*
X122822812Y-114187190D01*
X122937906Y-114273350D01*
X122937913Y-114273354D01*
X123072620Y-114323596D01*
X123072619Y-114323596D01*
X123096129Y-114326124D01*
X123160680Y-114352862D01*
X123200529Y-114410254D01*
X123203023Y-114480079D01*
X123167372Y-114540168D01*
X123154002Y-114550986D01*
X123135699Y-114563802D01*
X122973805Y-114725696D01*
X122950748Y-114758625D01*
X122896171Y-114802249D01*
X122849174Y-114811500D01*
X122684294Y-114811500D01*
X122666324Y-114810191D01*
X122642206Y-114806658D01*
X122595411Y-114810753D01*
X122592272Y-114811028D01*
X122581466Y-114811500D01*
X122575816Y-114811500D01*
X122544678Y-114815139D01*
X122541095Y-114815505D01*
X122465576Y-114822112D01*
X122458503Y-114823573D01*
X122458493Y-114823526D01*
X122450905Y-114825209D01*
X122450916Y-114825255D01*
X122443890Y-114826920D01*
X122372661Y-114852844D01*
X122369260Y-114854026D01*
X122297260Y-114877886D01*
X122290713Y-114880939D01*
X122290693Y-114880896D01*
X122283695Y-114884284D01*
X122283717Y-114884327D01*
X122277258Y-114887570D01*
X122213879Y-114929253D01*
X122210843Y-114931188D01*
X122146345Y-114970973D01*
X122140686Y-114975448D01*
X122140656Y-114975411D01*
X122134627Y-114980322D01*
X122134657Y-114980357D01*
X122129132Y-114984993D01*
X122129126Y-114984998D01*
X122129126Y-114984999D01*
X122084746Y-115032037D01*
X122077053Y-115040192D01*
X122074541Y-115042777D01*
X120422329Y-116694988D01*
X120361006Y-116728473D01*
X120323841Y-116730835D01*
X120160002Y-116716502D01*
X120159998Y-116716502D01*
X119931918Y-116736456D01*
X119931910Y-116736457D01*
X119710761Y-116795714D01*
X119710750Y-116795718D01*
X119503254Y-116892475D01*
X119503252Y-116892476D01*
X119442321Y-116935141D01*
X119315700Y-117023802D01*
X119315698Y-117023803D01*
X119315695Y-117023806D01*
X119153806Y-117185695D01*
X119153803Y-117185698D01*
X119153802Y-117185700D01*
X119097789Y-117265695D01*
X119022476Y-117373252D01*
X119022475Y-117373254D01*
X118925718Y-117580750D01*
X118925714Y-117580761D01*
X118866457Y-117801910D01*
X118866456Y-117801918D01*
X118846502Y-118029998D01*
X118846502Y-118030001D01*
X118866456Y-118258081D01*
X118866457Y-118258089D01*
X118925714Y-118479238D01*
X118925718Y-118479249D01*
X118997907Y-118634058D01*
X119022477Y-118686749D01*
X119153802Y-118874300D01*
X119315700Y-119036198D01*
X119503251Y-119167523D01*
X119598571Y-119211971D01*
X119710750Y-119264281D01*
X119710752Y-119264281D01*
X119710757Y-119264284D01*
X119931913Y-119323543D01*
X120086505Y-119337068D01*
X120159998Y-119343498D01*
X120160000Y-119343498D01*
X120160002Y-119343498D01*
X120233495Y-119337068D01*
X120388087Y-119323543D01*
X120609243Y-119264284D01*
X120816749Y-119167523D01*
X121004300Y-119036198D01*
X121166198Y-118874300D01*
X121297523Y-118686749D01*
X121394284Y-118479243D01*
X121453543Y-118258087D01*
X121473498Y-118030000D01*
X121459163Y-117866156D01*
X121472929Y-117797658D01*
X121495007Y-117767672D01*
X122823410Y-116439270D01*
X122884733Y-116405785D01*
X122954425Y-116410769D01*
X122998772Y-116439270D01*
X123135700Y-116576198D01*
X123305349Y-116694988D01*
X123323251Y-116707523D01*
X123366345Y-116727618D01*
X123418784Y-116773791D01*
X123437936Y-116840984D01*
X123417720Y-116907865D01*
X123366345Y-116952382D01*
X123323251Y-116972476D01*
X123198126Y-117060090D01*
X123135700Y-117103802D01*
X123135698Y-117103803D01*
X123135695Y-117103806D01*
X122973806Y-117265695D01*
X122973803Y-117265698D01*
X122973802Y-117265700D01*
X122908604Y-117358812D01*
X122842476Y-117453252D01*
X122842475Y-117453254D01*
X122745718Y-117660750D01*
X122745714Y-117660761D01*
X122686457Y-117881910D01*
X122686456Y-117881918D01*
X122666502Y-118109998D01*
X122666502Y-118110001D01*
X122686456Y-118338081D01*
X122686457Y-118338089D01*
X122745714Y-118559238D01*
X122745718Y-118559249D01*
X122842475Y-118766745D01*
X122842477Y-118766749D01*
X122973802Y-118954300D01*
X123135700Y-119116198D01*
X123272475Y-119211969D01*
X123323251Y-119247523D01*
X123366345Y-119267618D01*
X123418784Y-119313791D01*
X123437936Y-119380984D01*
X123417720Y-119447865D01*
X123366345Y-119492382D01*
X123323251Y-119512476D01*
X123222945Y-119582712D01*
X123135700Y-119643802D01*
X123135698Y-119643803D01*
X123135695Y-119643806D01*
X122973806Y-119805695D01*
X122973803Y-119805698D01*
X122973802Y-119805700D01*
X122914074Y-119891000D01*
X122842476Y-119993252D01*
X122842475Y-119993254D01*
X122745718Y-120200750D01*
X122745714Y-120200761D01*
X122686457Y-120421910D01*
X122686456Y-120421918D01*
X122666502Y-120649998D01*
X122666502Y-120650001D01*
X122686456Y-120878081D01*
X122686457Y-120878089D01*
X122745714Y-121099238D01*
X122745718Y-121099249D01*
X122814770Y-121247331D01*
X122842477Y-121306749D01*
X122973802Y-121494300D01*
X122973806Y-121494304D01*
X123135699Y-121656197D01*
X123190295Y-121694426D01*
X123233920Y-121749003D01*
X123241112Y-121818501D01*
X123209590Y-121880856D01*
X123149360Y-121916269D01*
X123119171Y-121920000D01*
X115307477Y-121920000D01*
X115240438Y-121900315D01*
X115194683Y-121847511D01*
X115183901Y-121806240D01*
X115176323Y-121714797D01*
X115174051Y-121687374D01*
X115116749Y-121461093D01*
X115022984Y-121247331D01*
X114942706Y-121124456D01*
X114895313Y-121051915D01*
X114737223Y-120880185D01*
X114737222Y-120880184D01*
X114737220Y-120880182D01*
X114553017Y-120736810D01*
X114553015Y-120736809D01*
X114553014Y-120736808D01*
X114553011Y-120736806D01*
X114347733Y-120625716D01*
X114347730Y-120625715D01*
X114347727Y-120625713D01*
X114347721Y-120625711D01*
X114347719Y-120625710D01*
X114126954Y-120549920D01*
X113935730Y-120518011D01*
X113896712Y-120511500D01*
X113663288Y-120511500D01*
X113624270Y-120518011D01*
X113433045Y-120549920D01*
X113212280Y-120625710D01*
X113212266Y-120625716D01*
X113006988Y-120736806D01*
X113006985Y-120736808D01*
X112822781Y-120880181D01*
X112822776Y-120880185D01*
X112664688Y-121051913D01*
X112633809Y-121099178D01*
X112580662Y-121144534D01*
X112511431Y-121153958D01*
X112448095Y-121124456D01*
X112426191Y-121099178D01*
X112395311Y-121051913D01*
X112237223Y-120880185D01*
X112237222Y-120880184D01*
X112237220Y-120880182D01*
X112053017Y-120736810D01*
X112053015Y-120736809D01*
X112053014Y-120736808D01*
X112053011Y-120736806D01*
X111847733Y-120625716D01*
X111847730Y-120625715D01*
X111847727Y-120625713D01*
X111847721Y-120625711D01*
X111847719Y-120625710D01*
X111626954Y-120549920D01*
X111435730Y-120518011D01*
X111396712Y-120511500D01*
X111163288Y-120511500D01*
X111124270Y-120518011D01*
X110933045Y-120549920D01*
X110712280Y-120625710D01*
X110712266Y-120625716D01*
X110506988Y-120736806D01*
X110506986Y-120736807D01*
X110338123Y-120868239D01*
X110273129Y-120893881D01*
X110204589Y-120880314D01*
X110154264Y-120831846D01*
X110145780Y-120813719D01*
X110130889Y-120773796D01*
X110113186Y-120750148D01*
X110043261Y-120656739D01*
X109926204Y-120569111D01*
X109789203Y-120518011D01*
X109728654Y-120511500D01*
X109728638Y-120511500D01*
X107831362Y-120511500D01*
X107831345Y-120511500D01*
X107770797Y-120518011D01*
X107770795Y-120518011D01*
X107633795Y-120569111D01*
X107516739Y-120656739D01*
X107429111Y-120773795D01*
X107378011Y-120910795D01*
X107378011Y-120910797D01*
X107371500Y-120971345D01*
X107371500Y-121796000D01*
X107351815Y-121863039D01*
X107299011Y-121908794D01*
X107247500Y-121920000D01*
X104264000Y-121920000D01*
X104196961Y-121900315D01*
X104151206Y-121847511D01*
X104140000Y-121796000D01*
X104140000Y-114748306D01*
X104611500Y-114748306D01*
X104626467Y-114952782D01*
X104626469Y-114952795D01*
X104685934Y-115219746D01*
X104685937Y-115219753D01*
X104759448Y-115411955D01*
X104783646Y-115475221D01*
X104917506Y-115713734D01*
X104917509Y-115713739D01*
X105084669Y-115930218D01*
X105084678Y-115930228D01*
X105193521Y-116035165D01*
X105281574Y-116120059D01*
X105504019Y-116279205D01*
X105569902Y-116313078D01*
X105747250Y-116404260D01*
X105747261Y-116404264D01*
X105747266Y-116404267D01*
X105747272Y-116404269D01*
X106006116Y-116492575D01*
X106006122Y-116492576D01*
X106006130Y-116492579D01*
X106275093Y-116542259D01*
X106439091Y-116548252D01*
X106548422Y-116552248D01*
X106548422Y-116552247D01*
X106548424Y-116552248D01*
X106820296Y-116522334D01*
X107084916Y-116453153D01*
X107199971Y-116404260D01*
X107336635Y-116346185D01*
X107336638Y-116346183D01*
X107336643Y-116346181D01*
X107570112Y-116203697D01*
X107780347Y-116028738D01*
X107962867Y-115825033D01*
X108113783Y-115596923D01*
X108229877Y-115349271D01*
X108298629Y-115120750D01*
X108308673Y-115087366D01*
X108308673Y-115087362D01*
X108308676Y-115087355D01*
X108348500Y-114816757D01*
X108348500Y-114748306D01*
X114211500Y-114748306D01*
X114226467Y-114952782D01*
X114226469Y-114952795D01*
X114285934Y-115219746D01*
X114285937Y-115219753D01*
X114359448Y-115411955D01*
X114383646Y-115475221D01*
X114517506Y-115713734D01*
X114517509Y-115713739D01*
X114684669Y-115930218D01*
X114684678Y-115930228D01*
X114793521Y-116035165D01*
X114881574Y-116120059D01*
X115104019Y-116279205D01*
X115169902Y-116313078D01*
X115347250Y-116404260D01*
X115347261Y-116404264D01*
X115347266Y-116404267D01*
X115347272Y-116404269D01*
X115606116Y-116492575D01*
X115606122Y-116492576D01*
X115606130Y-116492579D01*
X115875093Y-116542259D01*
X116039091Y-116548252D01*
X116148422Y-116552248D01*
X116148422Y-116552247D01*
X116148424Y-116552248D01*
X116420296Y-116522334D01*
X116684916Y-116453153D01*
X116799971Y-116404260D01*
X116936635Y-116346185D01*
X116936638Y-116346183D01*
X116936643Y-116346181D01*
X117170112Y-116203697D01*
X117380347Y-116028738D01*
X117562867Y-115825033D01*
X117713783Y-115596923D01*
X117829877Y-115349271D01*
X117898629Y-115120750D01*
X117908673Y-115087366D01*
X117908673Y-115087362D01*
X117908676Y-115087355D01*
X117948500Y-114816757D01*
X117948500Y-114091712D01*
X117933533Y-113887217D01*
X117906743Y-113766951D01*
X117874065Y-113620253D01*
X117874063Y-113620249D01*
X117874063Y-113620247D01*
X117776355Y-113364781D01*
X117642493Y-113126264D01*
X117568162Y-113030002D01*
X118855034Y-113030002D01*
X118874858Y-113256599D01*
X118874860Y-113256610D01*
X118933730Y-113476317D01*
X118933735Y-113476331D01*
X119029863Y-113682478D01*
X119080974Y-113755472D01*
X119762046Y-113074400D01*
X119774835Y-113155148D01*
X119832359Y-113268045D01*
X119921955Y-113357641D01*
X120034852Y-113415165D01*
X120115599Y-113427953D01*
X119434526Y-114109025D01*
X119507513Y-114160132D01*
X119507521Y-114160136D01*
X119713668Y-114256264D01*
X119713682Y-114256269D01*
X119933389Y-114315139D01*
X119933400Y-114315141D01*
X120159998Y-114334966D01*
X120160002Y-114334966D01*
X120386599Y-114315141D01*
X120386610Y-114315139D01*
X120606317Y-114256269D01*
X120606331Y-114256264D01*
X120812478Y-114160136D01*
X120885471Y-114109024D01*
X120204400Y-113427953D01*
X120285148Y-113415165D01*
X120398045Y-113357641D01*
X120487641Y-113268045D01*
X120545165Y-113155148D01*
X120557953Y-113074400D01*
X121239024Y-113755471D01*
X121290136Y-113682478D01*
X121386264Y-113476331D01*
X121386269Y-113476317D01*
X121445139Y-113256610D01*
X121445141Y-113256599D01*
X121464966Y-113030002D01*
X121464966Y-113029997D01*
X121445141Y-112803400D01*
X121445139Y-112803389D01*
X121386269Y-112583682D01*
X121386264Y-112583668D01*
X121290136Y-112377521D01*
X121290132Y-112377513D01*
X121239025Y-112304526D01*
X120557953Y-112985598D01*
X120545165Y-112904852D01*
X120487641Y-112791955D01*
X120398045Y-112702359D01*
X120285148Y-112644835D01*
X120204401Y-112632046D01*
X120885472Y-111950974D01*
X120812478Y-111899863D01*
X120606331Y-111803735D01*
X120606317Y-111803730D01*
X120386610Y-111744860D01*
X120386599Y-111744858D01*
X120160002Y-111725034D01*
X120159998Y-111725034D01*
X119933400Y-111744858D01*
X119933389Y-111744860D01*
X119713682Y-111803730D01*
X119713673Y-111803734D01*
X119507516Y-111899866D01*
X119507512Y-111899868D01*
X119434526Y-111950973D01*
X119434526Y-111950974D01*
X120115599Y-112632046D01*
X120034852Y-112644835D01*
X119921955Y-112702359D01*
X119832359Y-112791955D01*
X119774835Y-112904852D01*
X119762046Y-112985598D01*
X119080974Y-112304526D01*
X119080973Y-112304526D01*
X119029868Y-112377512D01*
X119029866Y-112377516D01*
X118933734Y-112583673D01*
X118933730Y-112583682D01*
X118874860Y-112803389D01*
X118874858Y-112803400D01*
X118855034Y-113029997D01*
X118855034Y-113030002D01*
X117568162Y-113030002D01*
X117568160Y-113030000D01*
X117475330Y-112909781D01*
X117475321Y-112909771D01*
X117278429Y-112719944D01*
X117278427Y-112719942D01*
X117217633Y-112676447D01*
X117055981Y-112560795D01*
X117048200Y-112556794D01*
X116812749Y-112435739D01*
X116812727Y-112435730D01*
X116553883Y-112347424D01*
X116553870Y-112347421D01*
X116553865Y-112347420D01*
X116284903Y-112297740D01*
X116011577Y-112287751D01*
X115739703Y-112317666D01*
X115475084Y-112386846D01*
X115223364Y-112493814D01*
X114989892Y-112636300D01*
X114989882Y-112636307D01*
X114779654Y-112811260D01*
X114779648Y-112811266D01*
X114597133Y-113014966D01*
X114446217Y-113243077D01*
X114330121Y-113490732D01*
X114330119Y-113490739D01*
X114251326Y-113752633D01*
X114251323Y-113752647D01*
X114233420Y-113874300D01*
X114211500Y-114023243D01*
X114211500Y-114023247D01*
X114211500Y-114748306D01*
X108348500Y-114748306D01*
X108348500Y-114091712D01*
X108333533Y-113887217D01*
X108306743Y-113766951D01*
X108274065Y-113620253D01*
X108274063Y-113620249D01*
X108274063Y-113620247D01*
X108176355Y-113364781D01*
X108042493Y-113126264D01*
X107968160Y-113030000D01*
X107875330Y-112909781D01*
X107875321Y-112909771D01*
X107678429Y-112719944D01*
X107678427Y-112719942D01*
X107617633Y-112676447D01*
X107455981Y-112560795D01*
X107448200Y-112556794D01*
X107212749Y-112435739D01*
X107212727Y-112435730D01*
X106953883Y-112347424D01*
X106953870Y-112347421D01*
X106953865Y-112347420D01*
X106684903Y-112297740D01*
X106411577Y-112287751D01*
X106139703Y-112317666D01*
X105875084Y-112386846D01*
X105623364Y-112493814D01*
X105389892Y-112636300D01*
X105389882Y-112636307D01*
X105179654Y-112811260D01*
X105179648Y-112811266D01*
X104997133Y-113014966D01*
X104846217Y-113243077D01*
X104730121Y-113490732D01*
X104730119Y-113490739D01*
X104651326Y-113752633D01*
X104651323Y-113752647D01*
X104633420Y-113874300D01*
X104611500Y-114023243D01*
X104611500Y-114023247D01*
X104611500Y-114748306D01*
X104140000Y-114748306D01*
X104140000Y-107290114D01*
X149181502Y-107290114D01*
X149201456Y-107518194D01*
X149201457Y-107518202D01*
X149260714Y-107739351D01*
X149260718Y-107739362D01*
X149357475Y-107946858D01*
X149357477Y-107946862D01*
X149488802Y-108134413D01*
X149488806Y-108134417D01*
X149636339Y-108281950D01*
X149669824Y-108343273D01*
X149664840Y-108412965D01*
X149622968Y-108468898D01*
X149591993Y-108485812D01*
X149448795Y-108539224D01*
X149331739Y-108626852D01*
X149244111Y-108743908D01*
X149193011Y-108880908D01*
X149193011Y-108880910D01*
X149186500Y-108941458D01*
X149186500Y-110638767D01*
X149193011Y-110699315D01*
X149193011Y-110699317D01*
X149244111Y-110836317D01*
X149331739Y-110953374D01*
X149448796Y-111041002D01*
X149585799Y-111092102D01*
X149613050Y-111095031D01*
X149646345Y-111098612D01*
X149646362Y-111098613D01*
X151343638Y-111098613D01*
X151343654Y-111098612D01*
X151370692Y-111095704D01*
X151404201Y-111092102D01*
X151541204Y-111041002D01*
X151658261Y-110953374D01*
X151745889Y-110836317D01*
X151796989Y-110699314D01*
X151800591Y-110665805D01*
X151803499Y-110638767D01*
X151803500Y-110638750D01*
X151803500Y-108941475D01*
X151803499Y-108941458D01*
X151800157Y-108910383D01*
X151796989Y-108880912D01*
X151745889Y-108743909D01*
X151658261Y-108626852D01*
X151541204Y-108539224D01*
X151398006Y-108485812D01*
X151342073Y-108443940D01*
X151317657Y-108378475D01*
X151332510Y-108310203D01*
X151353654Y-108281956D01*
X151501198Y-108134413D01*
X151632523Y-107946862D01*
X151729284Y-107739356D01*
X151788543Y-107518200D01*
X151808498Y-107290113D01*
X151788543Y-107062026D01*
X151729284Y-106840870D01*
X151632523Y-106633364D01*
X151501198Y-106445813D01*
X151339300Y-106283915D01*
X151151749Y-106152590D01*
X151151745Y-106152588D01*
X150944249Y-106055831D01*
X150944238Y-106055827D01*
X150723089Y-105996570D01*
X150723081Y-105996569D01*
X150495002Y-105976615D01*
X150494998Y-105976615D01*
X150266918Y-105996569D01*
X150266910Y-105996570D01*
X150045761Y-106055827D01*
X150045750Y-106055831D01*
X149838254Y-106152588D01*
X149838252Y-106152589D01*
X149838251Y-106152590D01*
X149650700Y-106283915D01*
X149650698Y-106283916D01*
X149650695Y-106283919D01*
X149488806Y-106445808D01*
X149357476Y-106633365D01*
X149357475Y-106633367D01*
X149260718Y-106840863D01*
X149260714Y-106840874D01*
X149201457Y-107062023D01*
X149201456Y-107062031D01*
X149181502Y-107290111D01*
X149181502Y-107290114D01*
X104140000Y-107290114D01*
X104140000Y-103593551D01*
X156923500Y-103593551D01*
X156934113Y-103697428D01*
X156989883Y-103865735D01*
X156989884Y-103865738D01*
X157082967Y-104016647D01*
X157082970Y-104016651D01*
X157208348Y-104142029D01*
X157208352Y-104142032D01*
X157359261Y-104235115D01*
X157359264Y-104235116D01*
X157527571Y-104290886D01*
X157527572Y-104290886D01*
X157527575Y-104290887D01*
X157631456Y-104301500D01*
X157631461Y-104301500D01*
X159332539Y-104301500D01*
X159332544Y-104301500D01*
X159436425Y-104290887D01*
X159604738Y-104235115D01*
X159755651Y-104142030D01*
X159881030Y-104016651D01*
X159974115Y-103865738D01*
X160029887Y-103697425D01*
X160040500Y-103593544D01*
X160040500Y-102743000D01*
X161527207Y-102743000D01*
X161546348Y-102986219D01*
X161603303Y-103223457D01*
X161696668Y-103448861D01*
X161820504Y-103650941D01*
X162556070Y-102915375D01*
X162558884Y-102928915D01*
X162628442Y-103063156D01*
X162731638Y-103173652D01*
X162860819Y-103252209D01*
X162912002Y-103266549D01*
X162174057Y-104004494D01*
X162376138Y-104128331D01*
X162601542Y-104221696D01*
X162838780Y-104278651D01*
X162838779Y-104278651D01*
X163082000Y-104297792D01*
X163325219Y-104278651D01*
X163562457Y-104221696D01*
X163787861Y-104128331D01*
X163989941Y-104004495D01*
X163989941Y-104004494D01*
X163253568Y-103268121D01*
X163370458Y-103217349D01*
X163487739Y-103121934D01*
X163574928Y-102998415D01*
X163605354Y-102912801D01*
X164343494Y-103650941D01*
X164343495Y-103650941D01*
X164467331Y-103448861D01*
X164560696Y-103223457D01*
X164617651Y-102986219D01*
X164636792Y-102743000D01*
X164617651Y-102499780D01*
X164560696Y-102262542D01*
X164467331Y-102037138D01*
X164343494Y-101835057D01*
X163607929Y-102570622D01*
X163605116Y-102557085D01*
X163535558Y-102422844D01*
X163432362Y-102312348D01*
X163303181Y-102233791D01*
X163251996Y-102219449D01*
X163989941Y-101481504D01*
X163787861Y-101357668D01*
X163562457Y-101264303D01*
X163325219Y-101207348D01*
X163325220Y-101207348D01*
X163082000Y-101188207D01*
X162838780Y-101207348D01*
X162601542Y-101264303D01*
X162376138Y-101357668D01*
X162174057Y-101481504D01*
X162910432Y-102217878D01*
X162793542Y-102268651D01*
X162676261Y-102364066D01*
X162589072Y-102487585D01*
X162558645Y-102573198D01*
X161820504Y-101835057D01*
X161696668Y-102037138D01*
X161603303Y-102262542D01*
X161546348Y-102499780D01*
X161527207Y-102743000D01*
X160040500Y-102743000D01*
X160040500Y-101892456D01*
X160029887Y-101788575D01*
X160010157Y-101729032D01*
X159974116Y-101620264D01*
X159974115Y-101620261D01*
X159881032Y-101469352D01*
X159881029Y-101469348D01*
X159755651Y-101343970D01*
X159755647Y-101343967D01*
X159604738Y-101250884D01*
X159604735Y-101250883D01*
X159436428Y-101195113D01*
X159332551Y-101184500D01*
X159332544Y-101184500D01*
X157631456Y-101184500D01*
X157631448Y-101184500D01*
X157527571Y-101195113D01*
X157359264Y-101250883D01*
X157359261Y-101250884D01*
X157208352Y-101343967D01*
X157208348Y-101343970D01*
X157082970Y-101469348D01*
X157082967Y-101469352D01*
X156989884Y-101620261D01*
X156989883Y-101620264D01*
X156934113Y-101788571D01*
X156923500Y-101892448D01*
X156923500Y-103593551D01*
X104140000Y-103593551D01*
X104140000Y-100330000D01*
X105125207Y-100330000D01*
X105144348Y-100573219D01*
X105201303Y-100810457D01*
X105294668Y-101035861D01*
X105418504Y-101237941D01*
X106154070Y-100502375D01*
X106156884Y-100515915D01*
X106226442Y-100650156D01*
X106329638Y-100760652D01*
X106458819Y-100839209D01*
X106510002Y-100853549D01*
X105772057Y-101591494D01*
X105974138Y-101715331D01*
X106199542Y-101808696D01*
X106436780Y-101865651D01*
X106436779Y-101865651D01*
X106680000Y-101884792D01*
X106923219Y-101865651D01*
X107160457Y-101808696D01*
X107385861Y-101715331D01*
X107587941Y-101591495D01*
X107587941Y-101591494D01*
X106851568Y-100855121D01*
X106968458Y-100804349D01*
X107085739Y-100708934D01*
X107172928Y-100585415D01*
X107203354Y-100499801D01*
X107941494Y-101237941D01*
X107941495Y-101237941D01*
X107976664Y-101180551D01*
X109721500Y-101180551D01*
X109732113Y-101284428D01*
X109787883Y-101452735D01*
X109787884Y-101452738D01*
X109880967Y-101603647D01*
X109880970Y-101603651D01*
X110006348Y-101729029D01*
X110006352Y-101729032D01*
X110157261Y-101822115D01*
X110157264Y-101822116D01*
X110325571Y-101877886D01*
X110325572Y-101877886D01*
X110325575Y-101877887D01*
X110429456Y-101888500D01*
X110429461Y-101888500D01*
X112130539Y-101888500D01*
X112130544Y-101888500D01*
X112234425Y-101877887D01*
X112402738Y-101822115D01*
X112553651Y-101729030D01*
X112679030Y-101603651D01*
X112772115Y-101452738D01*
X112827887Y-101284425D01*
X112838500Y-101180544D01*
X112838500Y-99479456D01*
X112827887Y-99375575D01*
X112772115Y-99207262D01*
X112772115Y-99207261D01*
X112679032Y-99056352D01*
X112679029Y-99056348D01*
X112553651Y-98930970D01*
X112553647Y-98930967D01*
X112402738Y-98837884D01*
X112402735Y-98837883D01*
X112234428Y-98782113D01*
X112130551Y-98771500D01*
X112130544Y-98771500D01*
X110429456Y-98771500D01*
X110429448Y-98771500D01*
X110325571Y-98782113D01*
X110157264Y-98837883D01*
X110157261Y-98837884D01*
X110006352Y-98930967D01*
X110006348Y-98930970D01*
X109880970Y-99056348D01*
X109880967Y-99056352D01*
X109787884Y-99207261D01*
X109787883Y-99207264D01*
X109732113Y-99375571D01*
X109721500Y-99479448D01*
X109721500Y-101180551D01*
X107976664Y-101180551D01*
X108065331Y-101035861D01*
X108158696Y-100810457D01*
X108215651Y-100573219D01*
X108234792Y-100330000D01*
X108215651Y-100086780D01*
X108158696Y-99849542D01*
X108065331Y-99624138D01*
X107941494Y-99422057D01*
X107205929Y-100157622D01*
X107203116Y-100144085D01*
X107133558Y-100009844D01*
X107030362Y-99899348D01*
X106901181Y-99820791D01*
X106849996Y-99806449D01*
X107587941Y-99068504D01*
X107385861Y-98944668D01*
X107160457Y-98851303D01*
X106923219Y-98794348D01*
X106923220Y-98794348D01*
X106680000Y-98775207D01*
X106436780Y-98794348D01*
X106199542Y-98851303D01*
X105974138Y-98944668D01*
X105772057Y-99068504D01*
X106508432Y-99804878D01*
X106391542Y-99855651D01*
X106274261Y-99951066D01*
X106187072Y-100074585D01*
X106156645Y-100160198D01*
X105418504Y-99422057D01*
X105294668Y-99624138D01*
X105201303Y-99849542D01*
X105144348Y-100086780D01*
X105125207Y-100330000D01*
X104140000Y-100330000D01*
X104140000Y-87792629D01*
X105125717Y-87792629D01*
X105155892Y-88041150D01*
X105225540Y-88281601D01*
X105332860Y-88507775D01*
X105405941Y-88613650D01*
X105475068Y-88713797D01*
X105648484Y-88894341D01*
X105848615Y-89044730D01*
X106070279Y-89161069D01*
X106307734Y-89240343D01*
X106307737Y-89240343D01*
X106307739Y-89240344D01*
X106554828Y-89280500D01*
X106554831Y-89280500D01*
X106742471Y-89280500D01*
X106742481Y-89280500D01*
X106929527Y-89265400D01*
X107172591Y-89205490D01*
X107402897Y-89107366D01*
X107614481Y-88973568D01*
X107801862Y-88807563D01*
X107960188Y-88613650D01*
X108085357Y-88396850D01*
X108174128Y-88162780D01*
X108224202Y-87917500D01*
X108229234Y-87792629D01*
X109725717Y-87792629D01*
X109755892Y-88041150D01*
X109825540Y-88281601D01*
X109932860Y-88507775D01*
X110005941Y-88613650D01*
X110075068Y-88713797D01*
X110248484Y-88894341D01*
X110448615Y-89044730D01*
X110670279Y-89161069D01*
X110907734Y-89240343D01*
X110907737Y-89240343D01*
X110907739Y-89240344D01*
X111154828Y-89280500D01*
X111154831Y-89280500D01*
X111342471Y-89280500D01*
X111342481Y-89280500D01*
X111529527Y-89265400D01*
X111772591Y-89205490D01*
X112002897Y-89107366D01*
X112214481Y-88973568D01*
X112401862Y-88807563D01*
X112560188Y-88613650D01*
X112685357Y-88396850D01*
X112774128Y-88162780D01*
X112824202Y-87917500D01*
X112834282Y-87667365D01*
X112804107Y-87418851D01*
X112804107Y-87418849D01*
X112768876Y-87297220D01*
X112734459Y-87178396D01*
X112627141Y-86952228D01*
X112627140Y-86952227D01*
X112627139Y-86952224D01*
X112484933Y-86746205D01*
X112484932Y-86746203D01*
X112311516Y-86565659D01*
X112111385Y-86415270D01*
X112111383Y-86415269D01*
X112111382Y-86415268D01*
X111889726Y-86298933D01*
X111889722Y-86298931D01*
X111889721Y-86298931D01*
X111652266Y-86219657D01*
X111652265Y-86219656D01*
X111652260Y-86219655D01*
X111405172Y-86179500D01*
X111405169Y-86179500D01*
X111217519Y-86179500D01*
X111217508Y-86179500D01*
X111030473Y-86194599D01*
X110787411Y-86254509D01*
X110557106Y-86352632D01*
X110345514Y-86486435D01*
X110158143Y-86652431D01*
X109999809Y-86846353D01*
X109874643Y-87063148D01*
X109785871Y-87297222D01*
X109735798Y-87542493D01*
X109735797Y-87542503D01*
X109725717Y-87792628D01*
X109725717Y-87792629D01*
X108229234Y-87792629D01*
X108234282Y-87667365D01*
X108204107Y-87418851D01*
X108204107Y-87418849D01*
X108168876Y-87297220D01*
X108134459Y-87178396D01*
X108027141Y-86952228D01*
X108027140Y-86952227D01*
X108027139Y-86952224D01*
X107884933Y-86746205D01*
X107884932Y-86746203D01*
X107711516Y-86565659D01*
X107511385Y-86415270D01*
X107511383Y-86415269D01*
X107511382Y-86415268D01*
X107289726Y-86298933D01*
X107289722Y-86298931D01*
X107289721Y-86298931D01*
X107052266Y-86219657D01*
X107052265Y-86219656D01*
X107052260Y-86219655D01*
X106805172Y-86179500D01*
X106805169Y-86179500D01*
X106617519Y-86179500D01*
X106617508Y-86179500D01*
X106430473Y-86194599D01*
X106187411Y-86254509D01*
X105957106Y-86352632D01*
X105745514Y-86486435D01*
X105558143Y-86652431D01*
X105399809Y-86846353D01*
X105274643Y-87063148D01*
X105185871Y-87297222D01*
X105135798Y-87542493D01*
X105135797Y-87542503D01*
X105125717Y-87792628D01*
X105125717Y-87792629D01*
X104140000Y-87792629D01*
X104140000Y-81404000D01*
X104159685Y-81336961D01*
X104212489Y-81291206D01*
X104264000Y-81280000D01*
X167516000Y-81280000D01*
X167583039Y-81299685D01*
G37*
%TD.AperFunction*%
%TD*%
M02*
