%TF.GenerationSoftware,KiCad,Pcbnew,7.0.10+1*%
%TF.CreationDate,2024-02-10T16:40:48+08:00*%
%TF.ProjectId,ohmify-synthcard,6f686d69-6679-42d7-9379-6e7468636172,v1.1*%
%TF.SameCoordinates,Original*%
%TF.FileFunction,Soldermask,Top*%
%TF.FilePolarity,Negative*%
%FSLAX46Y46*%
G04 Gerber Fmt 4.6, Leading zero omitted, Abs format (unit mm)*
G04 Created by KiCad (PCBNEW 7.0.10+1) date 2024-02-10 16:40:48*
%MOMM*%
%LPD*%
G01*
G04 APERTURE LIST*
G04 Aperture macros list*
%AMRoundRect*
0 Rectangle with rounded corners*
0 $1 Rounding radius*
0 $2 $3 $4 $5 $6 $7 $8 $9 X,Y pos of 4 corners*
0 Add a 4 corners polygon primitive as box body*
4,1,4,$2,$3,$4,$5,$6,$7,$8,$9,$2,$3,0*
0 Add four circle primitives for the rounded corners*
1,1,$1+$1,$2,$3*
1,1,$1+$1,$4,$5*
1,1,$1+$1,$6,$7*
1,1,$1+$1,$8,$9*
0 Add four rect primitives between the rounded corners*
20,1,$1+$1,$2,$3,$4,$5,0*
20,1,$1+$1,$4,$5,$6,$7,0*
20,1,$1+$1,$6,$7,$8,$9,0*
20,1,$1+$1,$8,$9,$2,$3,0*%
G04 Aperture macros list end*
%ADD10C,1.600000*%
%ADD11O,1.600000X1.600000*%
%ADD12R,1.600000X1.600000*%
%ADD13O,2.720000X3.240000*%
%ADD14R,1.800000X1.800000*%
%ADD15C,1.800000*%
%ADD16RoundRect,0.250001X-0.799999X-0.799999X0.799999X-0.799999X0.799999X0.799999X-0.799999X0.799999X0*%
%ADD17C,2.100000*%
%ADD18C,2.600000*%
%ADD19RoundRect,0.250001X0.799999X0.799999X-0.799999X0.799999X-0.799999X-0.799999X0.799999X-0.799999X0*%
G04 APERTURE END LIST*
D10*
%TO.C,R1*%
X135400000Y-120650000D03*
D11*
X135400000Y-113030000D03*
%TD*%
D10*
%TO.C,C2*%
X150640000Y-120650000D03*
X150640000Y-115650000D03*
%TD*%
D12*
%TO.C,C3*%
X150495000Y-109790113D03*
D10*
X150495000Y-107290113D03*
%TD*%
%TO.C,C1*%
X120160000Y-118030000D03*
X120160000Y-113030000D03*
%TD*%
D13*
%TO.C,RV1*%
X106480000Y-114420000D03*
X116080000Y-114420000D03*
D14*
X108780000Y-121920000D03*
D15*
X111280000Y-121920000D03*
X113780000Y-121920000D03*
%TD*%
D12*
%TO.C,U1*%
X123980000Y-113030000D03*
D11*
X123980000Y-115570000D03*
X123980000Y-118110000D03*
X123980000Y-120650000D03*
X131600000Y-120650000D03*
X131600000Y-118110000D03*
X131600000Y-115570000D03*
X131600000Y-113030000D03*
%TD*%
D16*
%TO.C,LS1*%
X158482000Y-102743000D03*
D17*
X163082000Y-102743000D03*
%TD*%
D18*
%TO.C,BT1*%
X111280000Y-87730000D03*
X106680000Y-87730000D03*
D19*
X111280000Y-100330000D03*
D17*
X106680000Y-100330000D03*
%TD*%
D12*
%TO.C,U2*%
X139210000Y-113030000D03*
D11*
X139210000Y-115570000D03*
X139210000Y-118110000D03*
X139210000Y-120650000D03*
X146830000Y-120650000D03*
X146830000Y-118110000D03*
X146830000Y-115570000D03*
X146830000Y-113030000D03*
%TD*%
D13*
%TO.C,RV2*%
X155970000Y-114420000D03*
X165570000Y-114420000D03*
D14*
X158270000Y-121920000D03*
D15*
X160770000Y-121920000D03*
X163270000Y-121920000D03*
%TD*%
M02*
